<svg width="31" height="26" viewBox="0 0 31 26" fill="none" xmlns="http://www.w3.org/2000/svg">
<path d="M1.50036 2.28605C1.05591 2.28605 0.695312 1.92546 0.695312 1.48193C0.695312 1.03748 1.05591 0.67688 1.50036 0.67688H5.0206C5.3989 0.67688 5.71571 0.937776 5.80236 1.28905L6.42199 3.27H17.6666H29.5011C29.5738 3.27094 29.6474 3.28025 29.721 3.30169C30.1477 3.42282 30.3956 3.8682 30.2745 4.29496L28.6355 9.99741C28.6299 10.0235 28.6224 10.0487 28.614 10.0729L27.6953 13.2698C27.6105 13.5652 27.3589 13.799 27.0347 13.8447L17.8306 15.1594C17.798 15.166 17.7654 15.1706 17.7319 15.1734L9.55927 16.3409L8.42903 16.5413V18.4756H26.5092C26.9536 18.4756 27.3133 18.8362 27.3133 19.2807C27.3133 19.7251 26.9527 20.0848 26.5092 20.0848H25.1926C25.651 20.6383 25.9268 21.3492 25.9268 22.1244C25.9268 23.0078 25.5681 23.8072 24.9894 24.3858C24.4108 24.9645 23.6104 25.3232 22.7271 25.3232C21.8438 25.3232 21.0443 24.9645 20.4657 24.3858C19.887 23.8072 19.5283 23.0068 19.5283 22.1244C19.5283 21.3492 19.8041 20.6392 20.2626 20.0848H13.7653C14.2237 20.6383 14.4995 21.3492 14.4995 22.1244C14.4995 23.0078 14.1417 23.8072 13.5622 24.3858C12.9835 24.9645 12.1841 25.3232 11.3008 25.3232C10.4174 25.3232 9.61797 24.9645 9.03934 24.3858C8.46071 23.8072 8.10198 23.0068 8.10198 22.1244C8.10198 21.3492 8.37778 20.6392 8.83622 20.0848H7.62211C7.17766 20.0848 6.81706 19.7242 6.81706 19.2807V15.8676C6.81706 15.4837 7.09287 15.1436 7.48328 15.0756L8.37871 14.9162L6.87204 10.099C6.85992 10.0682 6.85061 10.0365 6.84222 10.0039L5.07744 4.36111C5.06533 4.33036 5.05601 4.29868 5.04763 4.26607L4.428 2.28512H1.49757L1.50036 2.28605ZM8.21565 9.00693H11.5682L11.1181 4.87918H6.92515L8.21565 9.00693ZM13.1829 9.00693H16.8616V4.87918H12.7338L13.1839 9.00693H13.1829ZM18.4708 9.00693H22.3581L22.8082 4.87918H18.4708V9.00693ZM23.9738 9.00693H27.2471L28.4333 4.87918H24.4238L23.9738 9.00693ZM26.784 10.6161H23.7986L23.5703 12.7163L26.293 12.3278L26.785 10.617L26.784 10.6161ZM22.1829 10.6161H18.4708V13.444L21.9286 12.9502L22.1829 10.6161ZM16.8616 10.6161H13.359L13.7411 14.1205L16.8625 13.6742V10.6161H16.8616ZM11.7433 10.6161H8.71974L9.98323 14.6572L12.1496 14.3479L11.7433 10.617V10.6161ZM23.8517 21.0007C23.5638 20.7128 23.1669 20.5348 22.728 20.5348C22.2892 20.5348 21.8922 20.7128 21.6043 21.0007C21.3164 21.2886 21.1384 21.6856 21.1384 22.1244C21.1384 22.5633 21.3164 22.9602 21.6043 23.2482C21.8922 23.5361 22.2892 23.714 22.728 23.714C23.1669 23.714 23.5648 23.5361 23.8517 23.2482C24.1397 22.9602 24.3176 22.5633 24.3176 22.1244C24.3176 21.6856 24.1397 21.2877 23.8517 21.0007ZM12.4263 21.0007C12.1384 20.7128 11.7415 20.5348 11.3026 20.5348C10.8638 20.5348 10.4659 20.7128 10.1789 21.0007C9.89098 21.2886 9.71301 21.6856 9.71301 22.1244C9.71301 22.5633 9.89098 22.9602 10.1789 23.2482C10.4659 23.5361 10.8638 23.714 11.3026 23.714C11.7415 23.714 12.1393 23.5361 12.4263 23.2482C12.7143 22.9602 12.8913 22.5633 12.8913 22.1244C12.8913 21.6856 12.7133 21.2877 12.4263 21.0007Z" fill="#0C0E0D" fill-opacity="0.64"/>
</svg>
