<svg width="44" height="38" viewBox="0 0 44 38" fill="none" xmlns="http://www.w3.org/2000/svg">
<g filter="url(#filter0_d_152_12747)">
<path d="M1.1479 3.2233C0.514162 3.2233 0 2.70914 0 2.07673C0 1.443 0.514162 0.928833 1.1479 0.928833H6.16729C6.7067 0.928833 7.15841 1.30084 7.28197 1.80171L8.16548 4.62628H24.1988H41.0732C41.1768 4.62761 41.2818 4.6409 41.3867 4.67146C41.9952 4.84417 42.3486 5.47924 42.1759 6.08773L39.8389 14.2187C39.831 14.2559 39.8203 14.2917 39.8084 14.3263L38.4984 18.8847C38.3775 19.3058 38.0188 19.6393 37.5564 19.7044L24.4327 21.579C24.3862 21.5883 24.3397 21.595 24.2918 21.599L12.6388 23.2637L11.0273 23.5493V26.3075H36.8071C37.4408 26.3075 37.9537 26.8216 37.9537 27.4554C37.9537 28.0891 37.4395 28.6019 36.8071 28.6019H34.9298C35.5835 29.3911 35.9767 30.4048 35.9767 31.5102C35.9767 32.7697 35.4652 33.9096 34.6402 34.7347C33.8151 35.5597 32.6739 36.0712 31.4144 36.0712C30.1549 36.0712 29.015 35.5597 28.1899 34.7347C27.3649 33.9096 26.8534 32.7684 26.8534 31.5102C26.8534 30.4048 27.2466 29.3924 27.9003 28.6019H18.6361C19.2897 29.3911 19.683 30.4048 19.683 31.5102C19.683 32.7697 19.1728 33.9096 18.3464 34.7347C17.5214 35.5597 16.3814 36.0712 15.122 36.0712C13.8625 36.0712 12.7225 35.5597 11.8975 34.7347C11.0724 33.9096 10.5609 32.7684 10.5609 31.5102C10.5609 30.4048 10.9542 29.3924 11.6078 28.6019H9.8767C9.24296 28.6019 8.7288 28.0878 8.7288 27.4554V22.5887C8.7288 22.0414 9.12206 21.5564 9.67874 21.4595L10.9555 21.2323L8.80719 14.3635C8.78992 14.3196 8.77663 14.2745 8.76467 14.228L6.24833 6.18206C6.23106 6.13821 6.21778 6.09304 6.20582 6.04654L5.32231 3.22197H1.14391L1.1479 3.2233ZM10.723 12.8064H15.5033L14.8615 6.92075H8.88292L10.723 12.8064ZM17.8057 12.8064H23.0509V6.92075H17.1653L17.807 12.8064H17.8057ZM25.3454 12.8064H30.8883L31.53 6.92075H25.3454V12.8064ZM33.192 12.8064H37.8593L39.5506 6.92075H33.8337L33.192 12.8064ZM37.199 15.1008H32.9423L32.6168 18.0955L36.4989 17.5415L37.2004 15.1022L37.199 15.1008ZM30.6385 15.1008H25.3454V19.1331L30.2758 18.429L30.6385 15.1008ZM23.0509 15.1008H18.0568L18.6015 20.0977L23.0523 19.4613V15.1008H23.0509ZM15.753 15.1008H11.4418L13.2433 20.8629L16.3323 20.4218L15.753 15.1022V15.1008ZM33.018 29.9079C32.6075 29.4974 32.0415 29.2436 31.4157 29.2436C30.79 29.2436 30.224 29.4974 29.8134 29.9079C29.4029 30.3185 29.1491 30.8844 29.1491 31.5102C29.1491 32.136 29.4029 32.7019 29.8134 33.1125C30.224 33.523 30.79 33.7768 31.4157 33.7768C32.0415 33.7768 32.6088 33.523 33.018 33.1125C33.4285 32.7019 33.6823 32.136 33.6823 31.5102C33.6823 30.8844 33.4285 30.3171 33.018 29.9079ZM16.7269 29.9079C16.3163 29.4974 15.7504 29.2436 15.1246 29.2436C14.4988 29.2436 13.9315 29.4974 13.5223 29.9079C13.1118 30.3185 12.858 30.8844 12.858 31.5102C12.858 32.136 13.1118 32.7019 13.5223 33.1125C13.9315 33.523 14.4988 33.7768 15.1246 33.7768C15.7504 33.7768 16.3177 33.523 16.7269 33.1125C17.1374 32.7019 17.3898 32.136 17.3898 31.5102C17.3898 30.8844 17.1361 30.3171 16.7269 29.9079Z" fill="white"/>
</g>
<defs>
<filter id="filter0_d_152_12747" x="0" y="0.928833" width="43.2197" height="36.1424" filterUnits="userSpaceOnUse" color-interpolation-filters="sRGB">
<feFlood flood-opacity="0" result="BackgroundImageFix"/>
<feColorMatrix in="SourceAlpha" type="matrix" values="0 0 0 0 0 0 0 0 0 0 0 0 0 0 0 0 0 0 127 0" result="hardAlpha"/>
<feOffset dx="1" dy="1"/>
<feComposite in2="hardAlpha" operator="out"/>
<feColorMatrix type="matrix" values="0 0 0 0 0.886275 0 0 0 0 0.188235 0 0 0 0 0.160784 0 0 0 1 0"/>
<feBlend mode="normal" in2="BackgroundImageFix" result="effect1_dropShadow_152_12747"/>
<feBlend mode="normal" in="SourceGraphic" in2="effect1_dropShadow_152_12747" result="shape"/>
</filter>
</defs>
</svg>
