<svg width="212" height="36" viewBox="0 0 212 36" fill="none" xmlns="http://www.w3.org/2000/svg">
<g clip-path="url(#clip0_265_21688)">
<path d="M94.8456 10.4429L99.2424 7.0791H84.5183V27.2313H99.2424V23.8647H88.724V18.7212H97.714V15.3574H88.724V10.4429H94.8456Z" fill="#21A038"/>
<path d="M73.3942 14.9271H68.2933V10.4429H76.4537L80.8531 7.0791H64.0876V27.2313H72.8511C77.7609 27.2313 80.5966 24.9208 80.5966 20.8976C80.5966 17.0393 78.0475 14.9271 73.3942 14.9271ZM72.6928 23.8647H68.2933V18.2909H72.6928C75.3702 18.2909 76.6119 19.2157 76.6119 21.096C76.6119 22.9762 75.2746 23.8647 72.6928 23.8647Z" fill="#21A038"/>
<path d="M111.164 7.0791H103.164V27.2313H107.37V21.5234H111.196C116.294 21.5234 119.482 18.7547 119.482 14.3013C119.482 9.84783 116.294 7.0791 111.164 7.0791ZM111.068 18.1596H107.34V10.4429H111.068C113.778 10.4429 115.244 11.8287 115.244 14.3013C115.244 16.7738 113.778 18.1596 111.068 18.1596Z" fill="#21A038"/>
<path d="M56.8825 22.8755C55.769 23.5041 54.5245 23.8338 53.2499 23.8338C49.4563 23.8338 46.7162 21.0287 46.7162 17.1704C46.7162 13.312 49.4563 10.507 53.2499 10.507C54.62 10.4762 55.96 10.9372 57.0735 11.7614L60.103 9.45369L59.9119 9.25532C58.1598 7.63767 55.799 6.81348 53.1217 6.81348C50.2232 6.81348 47.5759 7.83603 45.6655 9.68279C43.7523 11.5966 42.6688 14.2675 42.7316 17.0391C42.6988 19.8413 43.7523 22.5458 45.6655 24.5238C47.6714 26.4712 50.3488 27.5608 53.0916 27.4937C56.1183 27.4937 58.7629 26.4041 60.5478 24.4261L57.8404 22.3474L56.8825 22.8755Z" fill="#21A038"/>
<path d="M170.065 7.11263V27.262H174.271V19.0173H183.228V27.262H187.436V7.11263H183.228V15.3909H174.271V7.11263H170.065ZM162.83 27.262H167.26L159.036 7.11263H154.765L146.384 27.262H150.622L152.312 23.2053H161.236L162.83 27.262ZM153.586 19.8415L156.837 11.7616L159.896 19.8415H153.586ZM196.871 19.1179H199.483L205.921 27.2313H211.339L202.734 16.8074L210.255 7.0791H205.444L199.197 15.7206H196.871V7.0791H192.663V27.2313H196.871V19.1179ZM132.487 14.9606V10.4765H143.483V7.11263H128.278V27.262H137.045C141.952 27.262 144.79 24.9543 144.79 20.9311C144.79 17.0728 142.241 14.9606 137.585 14.9606H132.487ZM132.487 23.8982V18.3244H136.886C139.561 18.3244 140.805 19.2492 140.805 21.1295C140.805 23.0098 139.498 23.9317 136.886 23.9317H132.487V23.8982Z" fill="#21A038"/>
<path d="M29.5687 6.94775C30.3329 7.97031 30.9715 9.09066 31.5119 10.2781L16.7879 21.5234L10.6035 17.5002V12.6864L16.7551 16.676L29.5687 6.94775Z" fill="#21A038"/>
<path d="M4.32355 17.1702C4.32355 16.9383 4.32355 16.7428 4.3563 16.5109L0.628209 16.3125C0.628209 16.5779 0.595459 16.8741 0.595459 17.1367C0.595459 21.755 2.41311 25.943 5.34427 28.9771L7.98886 26.2391C5.72636 23.9314 4.32355 20.7324 4.32355 17.1702Z" fill="url(#paint0_linear_265_21688)"/>
<path d="M16.755 4.30756C16.9788 4.30756 17.1699 4.30756 17.3937 4.34109L17.5847 0.482745C17.3282 0.482745 17.0416 0.449219 16.7878 0.449219C12.3255 0.449219 8.27813 2.3295 5.34424 5.36364L7.98883 8.10164C10.2213 5.76037 13.3435 4.30756 16.755 4.30756Z" fill="url(#paint1_linear_265_21688)"/>
<path d="M16.755 30.0333C16.5312 30.0333 16.3401 30.0333 16.1163 29.9998L15.9253 33.8582C16.1818 33.8582 16.4684 33.8917 16.7222 33.8917C21.1845 33.8917 25.2346 32.0114 28.1658 28.9773L25.5212 26.2393C23.2887 28.6141 20.1965 30.0333 16.755 30.0333Z" fill="url(#paint2_linear_265_21688)"/>
<path d="M23.7664 6.55088L26.9214 4.14256C24.1485 1.83482 20.6115 0.415527 16.7551 0.415527V4.27387C19.3697 4.30739 21.7905 5.13159 23.7664 6.55088Z" fill="url(#paint3_linear_265_21688)"/>
<path d="M32.9474 17.1705C32.9474 16.148 32.8519 15.159 32.6909 14.1699L29.2166 16.8409C29.2166 16.9387 29.2166 17.0728 29.2166 17.1705C29.2166 20.9646 27.6228 24.362 25.1064 26.7032L27.6228 29.5726C30.876 26.5384 32.9474 22.085 32.9474 17.1705Z" fill="#21A038"/>
<path d="M16.7552 30.0334C13.0898 30.0334 9.80662 28.385 7.54411 25.7783L4.77124 28.385C7.73515 31.7824 12.0064 33.8917 16.7552 33.8917V30.0334Z" fill="url(#paint4_linear_265_21688)"/>
<path d="M8.43645 7.63786L5.9174 4.76855C2.63417 7.83623 0.595459 12.2561 0.595459 17.1706H4.32355C4.32355 13.41 5.9174 9.98192 8.43645 7.63786Z" fill="url(#paint5_linear_265_21688)"/>
</g>
<defs>
<linearGradient id="paint0_linear_265_21688" x1="4.94671" y1="28.508" x2="0.954496" y2="17.1843" gradientUnits="userSpaceOnUse">
<stop offset="0.1444" stop-color="#F2E913"/>
<stop offset="0.3037" stop-color="#E7E518"/>
<stop offset="0.5823" stop-color="#CADB26"/>
<stop offset="0.891" stop-color="#A3CD39"/>
</linearGradient>
<linearGradient id="paint1_linear_265_21688" x1="6.40762" y1="4.92809" x2="16.1388" y2="1.28911" gradientUnits="userSpaceOnUse">
<stop offset="0.0592" stop-color="#0FA8E0"/>
<stop offset="0.5385" stop-color="#0099F9"/>
<stop offset="0.9234" stop-color="#0291EB"/>
</linearGradient>
<linearGradient id="paint2_linear_265_21688" x1="15.7075" y1="30.6101" x2="27.2609" y2="28.0479" gradientUnits="userSpaceOnUse">
<stop offset="0.1226" stop-color="#A3CD39"/>
<stop offset="0.2846" stop-color="#86C339"/>
<stop offset="0.8693" stop-color="#21A038"/>
</linearGradient>
<linearGradient id="paint3_linear_265_21688" x1="15.9891" y1="2.87397" x2="25.6143" y2="5.78822" gradientUnits="userSpaceOnUse">
<stop offset="0.0566" stop-color="#0291EB"/>
<stop offset="0.79" stop-color="#0C8ACB"/>
</linearGradient>
<linearGradient id="paint4_linear_265_21688" x1="5.71924" y1="28.9954" x2="16.0772" y2="32.7931" gradientUnits="userSpaceOnUse">
<stop offset="0.1324" stop-color="#F2E913"/>
<stop offset="0.2977" stop-color="#EBE716"/>
<stop offset="0.5306" stop-color="#D9E01F"/>
<stop offset="0.8023" stop-color="#BBD62D"/>
<stop offset="0.9829" stop-color="#A3CD39"/>
</linearGradient>
<linearGradient id="paint5_linear_265_21688" x1="3.45291" y1="17.6368" x2="7.76382" y2="6.63246" gradientUnits="userSpaceOnUse">
<stop offset="0.0698" stop-color="#A3CD39"/>
<stop offset="0.2599" stop-color="#81C55F"/>
<stop offset="0.9216" stop-color="#0FA8E0"/>
</linearGradient>
<clipPath id="clip0_265_21688">
<rect width="211" height="36" fill="white" transform="translate(0.5)"/>
</clipPath>
</defs>
</svg>
