<svg width="124" height="76" viewBox="0 0 124 76" fill="none" xmlns="http://www.w3.org/2000/svg">
<g clip-path="url(#clip0_265_21740)">
<mask id="mask0_265_21740" style="mask-type:luminance" maskUnits="userSpaceOnUse" x="0" y="0" width="124" height="76">
<path d="M123.5 0H0.5V76H123.5V0Z" fill="white"/>
</mask>
<g mask="url(#mask0_265_21740)">
<path d="M113.28 75.9847H0.5L10.7217 42.8687H123.5L113.28 75.9847Z" fill="#00AEC7"/>
<path d="M48.612 30.4533V9.74501H57.8016V16.6038H62.0276V9.74501H71.2157V30.4533H62.0276V23.5915H57.8016V30.4533H48.612ZM94.0846 18.9386L97.574 9.74501H88.6141L85.8246 16.6053H84.1817V9.74501H74.9925V30.4549H84.1817V23.593H86.3781L89.169 30.4549H98.3398L94.0846 18.9386ZM111.342 24.1456C109.124 24.1456 108.604 22.4279 108.604 21.0893C108.604 19.7568 109.124 18.079 111.342 18.079C113.514 18.079 114.036 19.7568 114.036 21.0893C114.036 22.4279 113.514 24.1456 111.342 24.1456ZM114.645 12.0507C111.863 12.0507 109.952 13.1238 108.648 14.5038C108.692 12.7384 109.993 10.8871 111.775 10.1579C114.861 8.86385 118.425 9.76803 120.947 7.57134V0.015625C120.947 0.015625 118.791 0.892155 114.815 1.35576C112.425 1.63514 109.036 2.38733 106.041 4.2586C102.301 6.58272 99.6511 10.4143 99.6511 18.1634C99.6511 28.2811 105.56 31.1211 111.645 31.1211C117.643 31.1211 122.989 28.1092 122.989 21.4777C122.989 15.1071 119.164 12.0507 114.645 12.0507ZM32.7897 23.8524C31.5268 23.8524 30.4807 23.1171 30.0886 22.3849V17.8119C30.5241 17.0781 31.5268 16.3459 32.7897 16.3459C35.0088 16.3459 35.9682 18.2433 35.9682 20.0992C35.9682 20.3294 35.9526 20.5643 35.9217 20.7915C35.7109 22.3987 34.7315 23.8524 32.7897 23.8524ZM45.4181 20.0992C45.4181 15.0057 43.0843 10.1917 37.8246 9.22923C37.7053 9.20773 37.5844 9.18775 37.4605 9.17089C37.1521 9.12637 36.8328 9.09105 36.5028 9.07419C36.2842 9.06188 36.0627 9.05573 35.8364 9.05573C35.6427 9.05573 35.4521 9.06036 35.2615 9.07107C35.2537 9.07107 35.2475 9.07107 35.2382 9.07419C33.5568 9.17241 32.0815 9.69123 30.9564 10.4711C30.18 10.9838 29.5229 11.5963 29.0007 12.2456L28.2274 9.74501H20.9424V38.7259H30.132V29.2022C30.7767 29.7733 31.5887 30.266 32.5665 30.6099C33.4762 30.9752 34.5222 31.1441 35.8364 31.1441C42.5016 31.1441 45.4181 25.7928 45.4181 20.0992Z" fill="#333E48"/>
</g>
</g>
<defs>
<clipPath id="clip0_265_21740">
<rect width="123" height="76" fill="white" transform="translate(0.5)"/>
</clipPath>
</defs>
</svg>
