<svg width="242" height="108" viewBox="0 0 242 108" fill="none" xmlns="http://www.w3.org/2000/svg">
<path d="M118.665 24.8558C107.482 28.2876 96.2079 31.4137 84.8547 34.2305C84.2195 34.3609 83.5607 34.3136 82.9507 34.0939C81.7379 33.8414 80.5406 33.5192 79.3647 33.1291C83.8472 36.0917 91.3008 38.8922 94.8782 38.175C99.9327 37.1675 143.16 23.558 143.16 23.558C143.16 23.558 140.155 22.2773 134.341 22.2688C130.396 22.2688 125.145 22.8665 118.665 24.8558Z" fill="#0480D6"/>
<path d="M75.8643 6.09791C70.8098 11.8183 68.4875 19.8696 65.3797 24.796C63.5265 27.7562 61.1343 30.3424 58.3273 32.4204C55.8769 34.2048 52.2825 37.1163 48.6709 38.7897C56.338 36.3052 68.0094 30.764 70.289 28.4161C73.3968 25.2315 85.7085 0.121338 85.7085 0.121338C85.7085 0.121338 80.9187 0.377477 75.8643 6.09791Z" fill="#0480D6"/>
<path d="M89.0467 59.1357C88.7905 60.1859 88.099 61.0995 88.2612 62.4485C88.7564 66.504 104.321 76.8264 108.411 79.0975C108.129 78.0729 107.215 76.2031 105.44 73.5478C102.972 69.8338 99.5313 67.7761 95.0659 64.0878C90.6091 60.3994 90.8396 59.9468 90.9762 59.4943L91.0702 59.1357H89.0467Z" fill="#0480D6"/>
<path d="M55.5608 77.5178C50.3185 86.3717 38.5618 107.879 38.5618 107.879C38.5618 107.879 47.6291 103.789 51.3858 96.694C53.9984 91.742 57.4989 86.5339 62.0753 78.4911C63.5694 75.87 64.5428 74.2307 66.3187 72.9158C69.5319 70.5408 73.0834 68.6614 76.8545 67.3406C80.3551 66.4355 83.4031 65.8464 85.0765 65.8208H84.9058C77.5461 65.8208 59.1639 71.4302 55.5608 77.5178Z" fill="#0480D6"/>
<path d="M96.8588 72.8731C96.8588 72.8731 90.1224 66.2732 85.6485 65.8378C84.1629 65.7012 80.7819 66.3244 76.8459 67.3405C73.0751 68.662 69.5237 70.5413 66.31 72.9158L66.293 72.9328C67.7017 71.8827 69.6228 71.0289 72.7306 70.047C85.5717 65.9573 84.2397 75.8528 96.8588 72.8731Z" fill="#0480D6"/>
<path d="M0.337402 72.139C5.61386 75.5713 19.0014 71.3535 30.2202 67.7591C32.2864 67.1016 33.7464 66.7345 35.0186 66.7174L35.0783 66.7089C39.3473 66.4271 46.8095 69.8423 50.0112 73.4453C48.3549 71.4987 43.4455 67.1614 35.4284 64.3439C34.5917 64.0536 33.7293 63.7718 32.8585 63.5242C32.5793 63.4552 32.2922 63.4236 32.0047 63.4303C25.8915 63.4303 0.337402 72.139 0.337402 72.139Z" fill="#0480D6"/>
<path d="M101.256 37.2187C95.5015 38.9006 93.8623 40.446 92.001 46.175H94.1355C99.1472 40.5399 110.127 40.9498 114.319 33.8291C112.296 34.3585 106.669 35.6391 101.256 37.2187Z" fill="#0480D6"/>
<path d="M123.233 55.9681C121.945 56.0976 120.649 56.1319 119.356 56.0706L121.004 49.189C121.746 49.1499 122.49 49.1414 123.233 49.1634C126.264 49.2317 127.621 49.8037 126.93 52.6298C126.375 54.8753 125.222 55.7034 123.233 55.9767V55.9681ZM117.248 56.062C116.491 56.1066 115.734 56.118 114.976 56.0962C111.903 56.0279 110.537 55.4729 111.228 52.6298C111.792 50.3672 112.953 49.5561 114.976 49.2829C116.281 49.154 117.595 49.1254 118.904 49.1975L117.248 56.062ZM122.985 46.9947C122.473 46.9947 121.986 47.0118 121.525 47.0374L121.781 45.9275H119.672L119.408 47.0374C117.926 46.9478 116.439 47.0021 114.968 47.1996C111.638 47.7119 109.726 49.2829 108.906 52.6298C107.873 56.8134 109.913 58.2307 114.968 58.2648H115.173C115.719 58.2648 116.24 58.2478 116.735 58.2136L116.445 59.4345H118.554L118.844 58.2307C120.309 58.3097 121.778 58.2525 123.233 58.0599C126.537 57.5391 128.441 55.9596 129.26 52.6298C130.285 48.4547 128.253 47.046 123.233 46.9947H122.977H122.985Z" fill="#0480D6"/>
<path d="M104.466 47.8997L98.558 53.4921L95.3989 47.8997C95.1684 47.4899 94.9123 47.0544 94.0585 47.0544H91.8386L89.6017 56.173L89.1492 58.0001H91.3861L93.4865 49.4707L97.1236 55.7461H98.8824L105.61 49.4707L103.519 58.0086H105.747L108.445 47.0544H106.225C105.38 47.0544 104.902 47.4813 104.466 47.9082" fill="#0480D6"/>
<path d="M136.928 49.3342H145.577L145.961 47.7632L146.114 47.157H137.457C133.547 47.157 131.736 49.0353 130.849 52.6298C129.961 56.2328 130.849 58.1026 134.767 58.1026H143.416L143.954 55.9084H135.305C133.171 55.9084 132.727 55.1144 132.923 53.6544H144.321L144.834 51.6053H133.427C133.939 50.1538 134.793 49.3342 136.928 49.3342Z" fill="#0480D6"/>
<path d="M56.7988 50.8366C57.4818 48.0532 58.2844 46.5249 61.7593 46.5249H73.2173L73.5161 45.3296L73.943 43.5708H62.4936C57.2855 43.5708 54.8948 46.0553 53.7166 50.8281C52.5383 55.6093 53.7081 58.1024 58.9247 58.1024H70.3827L71.1084 55.1227H59.6419C56.167 55.1227 56.1158 53.62 56.7988 50.8366Z" fill="#0480D6"/>
<path d="M90.0543 47.157H88.4406C85.7426 47.157 84.7266 48.0193 80.8162 51.9382C77.1449 55.6096 77.0339 55.7803 75.9325 55.7803H75.9154L77.956 47.157H75.6678L73.5162 56.2755L73.0808 58.1026H74.6945C77.6315 58.1026 78.6561 57.1635 82.3189 53.3385C85.7682 49.7354 86.0243 49.4793 87.2026 49.4793H87.2197L85.1791 58.1026H87.4673L89.6018 49.0609L90.0543 47.157Z" fill="#0480D6"/>
<path d="M202.823 56.0961H201.97C198.384 56.0961 196.736 55.6863 197.487 52.6297C198.179 49.8292 199.792 49.2401 202.823 49.1633L203.677 49.1547C207.255 49.1547 208.902 49.5731 208.151 52.6297C207.468 55.4301 205.846 56.0107 202.823 56.0961ZM210.192 48.7705C209.295 47.4898 207.289 46.9946 204.215 46.9946C203.728 46.9946 203.259 47.0032 202.823 47.0288C198.503 47.2849 196.104 48.7791 195.156 52.6297C194.115 56.873 196.232 58.2647 201.432 58.2647C201.918 58.2647 202.379 58.2476 202.823 58.222C206.751 58 209.09 56.7364 210.192 53.6115C210.303 53.2956 210.397 52.9712 210.482 52.6297C210.909 50.905 210.806 49.6499 210.192 48.7705Z" fill="#0480D6"/>
<path d="M220.232 46.9946C218.363 46.9946 217.295 47.9509 216.279 49.317L210.192 57.3768L209.645 58.1025H212.087L214.136 55.396L215.673 53.3639L218.414 49.778C218.764 49.3169 219.139 49.0267 219.729 49.0267C220.326 49.0267 220.557 49.3169 220.685 49.778L221.633 53.3639L222.188 55.396L222.913 58.1025H225.372L223.041 49.3084C222.674 47.9509 222.102 46.9946 220.232 46.9946Z" fill="#0480D6"/>
<path d="M236.89 56.0877H229.599L230.41 52.7579H237.693C239.101 52.7579 239.332 53.7227 239.153 54.4228C239.018 54.9161 238.72 55.3493 238.308 55.6516C237.895 55.954 237.392 56.1077 236.881 56.0877H236.89ZM230.896 50.7429L231.776 47.157H229.488L226.824 58.1026H236.292C239.306 58.1026 241.065 56.4121 241.543 54.4399C242.021 52.4591 241.099 50.7429 238.085 50.7429H230.896Z" fill="#0480D6"/>
<path d="M169.961 56.0961H169.107C165.521 56.0961 163.873 55.6863 164.625 52.6297C165.316 49.8292 166.93 49.2401 169.961 49.1633L170.815 49.1547C174.392 49.1547 176.04 49.5731 175.289 52.6297C174.606 55.4301 172.983 56.0107 169.961 56.0961ZM171.344 46.9946C170.866 46.9946 170.405 47.0032 169.961 47.0288C165.641 47.2849 163.242 48.7791 162.294 52.6297C161.252 56.873 163.37 58.2647 168.569 58.2647C169.056 58.2647 169.508 58.2476 169.961 58.222C174.281 57.983 176.672 56.4803 177.619 52.6297C177.739 52.1516 177.816 51.7076 177.85 51.2978C177.884 50.9136 177.884 50.5635 177.85 50.2476C177.594 47.8484 175.417 46.9946 171.344 46.9946Z" fill="#0480D6"/>
<path d="M156.77 52.5017H149.478L150.298 49.1719H157.589C158.981 49.1719 159.22 50.1367 159.041 50.8368C158.907 51.331 158.61 51.765 158.197 52.0676C157.784 52.3702 157.281 52.5233 156.77 52.5017ZM148.505 47.157L145.961 57.4879L145.815 58.1026H148.095L148.983 54.5167H156.155C159.177 54.5167 160.936 52.8091 161.431 50.8198C161.918 48.856 160.987 47.157 157.973 47.157H148.505Z" fill="#0480D6"/>
<path d="M187.976 47.157C183.075 47.157 180.753 48.6426 179.549 52.5957L177.85 58.1795L177.824 58.2649H180.104L181.829 52.5957C182.631 49.9745 183.724 49.3854 187.293 49.3854C190.879 49.3854 191.587 49.9745 190.793 52.5957L189.06 58.2649H191.348L193.073 52.5957C194.268 48.6426 192.877 47.157 187.976 47.157Z" fill="#0480D6"/>
<path d="M154.097 39.4045H153.696C153.568 39.4045 153.525 39.4302 153.5 39.5411L153.039 41.522H150.247L150.708 39.5411C150.742 39.4302 150.691 39.4045 150.571 39.4045H150.17C150.067 39.4045 149.999 39.4302 149.974 39.5411L148.847 44.3651C148.812 44.4846 148.881 44.5017 148.983 44.5017H149.384C149.504 44.5017 149.538 44.4846 149.572 44.3651L150.102 42.1111H152.902L152.373 44.3651C152.339 44.4846 152.381 44.5017 152.509 44.5017H152.902C153.039 44.5017 153.064 44.4846 153.098 44.3651L154.234 39.5411C154.251 39.4302 154.225 39.4045 154.097 39.4045Z" fill="#0480D6"/>
<path d="M161.833 41.8635H160.484L160.919 40.0107H162.251C163.045 40.0107 163.216 40.4205 163.19 40.8048C163.139 41.4451 162.652 41.8635 161.824 41.8635H161.833ZM160.74 39.3875C160.449 39.3875 160.313 39.507 160.253 39.7631L159.177 44.3651C159.143 44.4846 159.211 44.5017 159.314 44.5017H159.698C159.826 44.5017 159.869 44.4846 159.886 44.3651L160.339 42.4526H161.807C163.378 42.4526 163.89 41.4878 163.942 40.7621C164.01 39.9253 163.48 39.3875 162.524 39.3875H160.74Z" fill="#0480D6"/>
<path d="M190.256 39.1652C190.674 39.1652 191.195 38.9347 191.758 38.3883C191.784 38.3456 191.827 38.3199 191.758 38.2431L191.63 38.1236C191.596 38.098 191.579 38.0809 191.485 38.1407C190.939 38.5676 190.631 38.6615 190.392 38.6615C190.102 38.6615 189.812 38.4822 189.547 38.1663C189.496 38.1065 189.487 38.0809 189.393 38.1407L189.206 38.2602C189.12 38.3199 189.137 38.3626 189.154 38.3968C189.359 38.8066 189.735 39.1652 190.256 39.1652Z" fill="#0480D6"/>
<path d="M142.358 43.8955H139.575C139.907 43.554 140.112 43.1868 140.608 41.7866L141.265 39.9936H143.271L142.358 43.8955ZM141.265 39.3875C140.949 39.3875 140.736 39.5411 140.616 39.857L139.66 42.4526C139.361 43.2466 139.173 43.5369 138.772 43.887L138.516 43.904C138.268 43.9296 138.217 44.0236 138.174 44.2199L137.961 45.5945C137.952 45.6629 137.978 45.697 138.038 45.697H138.413C138.482 45.697 138.524 45.6628 138.541 45.586L138.883 44.5017H142.725L142.52 45.586C142.512 45.6628 142.52 45.697 142.58 45.697H143.024C143.075 45.697 143.118 45.6799 143.152 45.586L143.553 44.2199C143.613 44.0492 143.57 43.9382 143.348 43.9211L143.084 43.904C143.408 42.538 143.715 41.2146 144.023 39.8485C144.1 39.5753 143.963 39.3875 143.647 39.3875H141.265Z" fill="#0480D6"/>
<path d="M126.076 39.3875H125.82C125.598 39.3875 125.478 39.4387 125.325 39.6777C124.517 40.8746 123.72 42.0785 122.934 43.2893H122.9L122.686 42.1794C122.635 42.0342 122.2 39.746 122.174 39.6777C122.123 39.4387 122.037 39.3875 121.807 39.3875H121.619C121.303 39.3875 121.201 39.5241 121.149 39.7546L120.074 44.3822C120.04 44.4931 120.099 44.5017 120.193 44.5017H120.586C120.705 44.5017 120.731 44.4931 120.765 44.3822L121.636 40.6511H121.679L121.875 41.5902L122.319 43.6137C122.362 43.8357 122.405 43.904 122.661 43.904H122.917C123.173 43.904 123.258 43.8357 123.395 43.6137C123.549 43.4003 124.633 41.8122 124.778 41.5732L125.444 40.5742H125.487L124.59 44.3822C124.573 44.4931 124.616 44.5017 124.718 44.5017H125.12C125.231 44.5017 125.256 44.4931 125.29 44.3822L126.375 39.7546C126.434 39.5241 126.392 39.3875 126.076 39.3875Z" fill="#0480D6"/>
<path d="M130.387 41.5049H127.877L128.091 40.5486C128.185 40.1644 128.398 39.9936 128.842 39.9936H130.917C131.045 39.9936 131.088 39.9595 131.096 39.8485L131.181 39.5411C131.199 39.4301 131.181 39.3875 131.062 39.3875H128.876C127.835 39.3875 127.502 39.968 127.339 40.6425L126.742 43.2551C126.588 43.9296 126.725 44.5017 127.792 44.5017H130.037C130.157 44.5017 130.183 44.459 130.217 44.348L130.276 44.0406C130.311 43.9382 130.302 43.887 130.174 43.887H127.937C127.476 43.887 127.356 43.6735 127.442 43.3405L127.741 42.0769H130.251C130.37 42.0769 130.413 42.0257 130.422 41.9318L130.498 41.65C130.515 41.5476 130.507 41.5049 130.387 41.5049Z" fill="#0480D6"/>
<path d="M137.098 41.7695L137.115 41.7354C137.508 41.5646 137.781 41.2487 137.986 40.8304L138.644 39.5241C138.669 39.4728 138.695 39.3875 138.575 39.3875H138.131C138.072 39.3875 138.02 39.3875 137.969 39.4814L137.32 40.745C136.979 41.3853 136.526 41.4793 136.185 41.4793H135.297L135.758 39.5155C135.792 39.4131 135.732 39.4045 135.647 39.4045H135.186C135.092 39.4045 135.058 39.4131 135.041 39.5155L134.58 41.4793H133.692C133.333 41.4793 132.923 41.3853 132.889 40.745L132.829 39.4814C132.829 39.396 132.769 39.3875 132.71 39.3875H132.266C132.146 39.3875 132.138 39.4728 132.146 39.5241L132.18 40.8304C132.189 41.2487 132.326 41.5646 132.633 41.7354V41.7695C132.052 41.9318 131.83 42.2477 131.608 42.6831L130.712 44.3736C130.686 44.4248 130.669 44.5017 130.797 44.5017H131.284C131.335 44.5017 131.395 44.5017 131.438 44.4163L132.3 42.7856C132.607 42.2221 132.923 42.0854 133.47 42.0854H134.443L133.897 44.3907C133.862 44.4931 133.905 44.5017 133.999 44.5017H134.451C134.545 44.5017 134.597 44.4931 134.614 44.3907L135.152 42.0854H136.125C136.671 42.0854 136.927 42.2221 136.979 42.7856L137.064 44.4078C137.081 44.4932 137.132 44.5017 137.184 44.5017H137.679C137.798 44.5017 137.807 44.4163 137.798 44.3736L137.713 42.6831C137.679 42.2477 137.611 41.9232 137.098 41.7695Z" fill="#0480D6"/>
<path d="M149.239 39.3875H148.727C148.642 39.3875 148.607 39.3875 148.548 39.4728L147.344 41.3512L146.507 42.666H146.447L146.208 41.3939L145.816 39.4899C145.79 39.4216 145.79 39.3875 145.687 39.3875H145.15C145.081 39.3875 145.039 39.4131 145.047 39.4728L145.79 42.8453C145.841 43.1015 145.944 43.1015 146.106 43.1015H146.234L145.892 43.6137C145.679 43.9553 145.465 44.0492 145.158 44.0577C145.021 44.0577 144.842 44.0577 144.629 44.0236C144.543 44.015 144.509 44.0065 144.458 44.0833L144.33 44.4505C144.304 44.5017 144.33 44.5444 144.407 44.57C144.637 44.6383 144.876 44.6554 145.004 44.6554C145.662 44.6554 146.08 44.4761 146.533 43.7589L149.29 39.4899C149.325 39.4301 149.316 39.3875 149.248 39.3875" fill="#0480D6"/>
<path d="M155.643 42.7343L156.539 41.1804L157.137 40.1559H157.18L157.299 41.2146L157.47 42.7343H155.643ZM157.769 39.6777C157.726 39.4558 157.692 39.3875 157.41 39.3875H157.18C156.923 39.3875 156.847 39.4472 156.71 39.6777L153.807 44.3651C153.782 44.4505 153.79 44.5017 153.893 44.5017H154.473C154.567 44.5017 154.61 44.4761 154.669 44.3907L155.31 43.3234H157.547L157.683 44.3907C157.7 44.5017 157.76 44.5017 157.854 44.5017H158.341C158.435 44.5017 158.477 44.4334 158.452 44.3651L157.769 39.6777Z" fill="#0480D6"/>
<path d="M166.23 43.9894C165.239 43.9894 164.924 43.4429 164.992 42.5977C165.094 41.2572 165.811 39.9253 167.212 39.9253C168.236 39.9253 168.552 40.523 168.492 41.317C168.381 42.6831 167.639 43.9894 166.238 43.9894H166.23ZM164.266 42.6745C164.181 43.8954 164.821 44.587 166.136 44.587C167.929 44.587 169.056 43.0843 169.192 41.2999C169.286 40.0534 168.646 39.3276 167.314 39.3276C165.777 39.3276 164.428 40.5486 164.266 42.6745Z" fill="#0480D6"/>
<path d="M219.66 39.3875H216.365C216.074 39.3875 215.861 39.5326 215.784 39.8485L214.725 44.3907C214.691 44.4931 214.742 44.5017 214.828 44.5017H215.297C215.391 44.5017 215.417 44.4931 215.451 44.3907L216.476 39.9851H219.267L218.243 44.3907C218.209 44.4931 218.243 44.5017 218.345 44.5017H218.815C218.909 44.5017 218.943 44.4931 218.96 44.3907L220.019 39.8485C220.104 39.5326 219.951 39.3875 219.66 39.3875Z" fill="#0480D6"/>
<path d="M211.421 43.9894C210.422 43.9894 210.106 43.4429 210.175 42.5977C210.277 41.2572 210.994 39.9253 212.395 39.9253C213.419 39.9253 213.726 40.523 213.675 41.317C213.564 42.6831 212.821 43.9894 211.421 43.9894ZM209.44 42.6745C209.355 43.8954 209.995 44.587 211.31 44.587C213.103 44.587 214.23 43.0843 214.367 41.2999C214.461 40.0534 213.82 39.3276 212.488 39.3276C210.952 39.3276 209.603 40.5486 209.44 42.6745Z" fill="#0480D6"/>
<path d="M222.427 43.9894C221.428 43.9894 221.112 43.4429 221.18 42.5977C221.283 41.2572 222 39.9253 223.4 39.9253C224.424 39.9253 224.74 40.523 224.681 41.317C224.57 42.6831 223.827 43.9894 222.427 43.9894ZM220.446 42.6745C220.36 43.8954 221.001 44.587 222.316 44.587C224.109 44.587 225.236 43.0843 225.372 41.2999C225.466 40.0534 224.826 39.3276 223.494 39.3276C221.957 39.3276 220.608 40.5486 220.446 42.6745Z" fill="#0480D6"/>
<path d="M235.182 39.4045H231.315C231.212 39.4045 231.204 39.4387 231.169 39.5241L231.084 39.8741C231.067 39.9595 231.076 39.9937 231.178 39.9937H232.715L231.69 44.3651C231.665 44.4846 231.716 44.5017 231.835 44.5017H232.254C232.373 44.5017 232.399 44.4846 232.433 44.3651L233.458 39.9937H235.046C235.148 39.9937 235.174 39.968 235.191 39.8741L235.276 39.5241C235.302 39.4387 235.285 39.4045 235.191 39.4045" fill="#0480D6"/>
<path d="M228.386 41.8635H227.037L227.473 40.0107H228.804C229.599 40.0107 229.769 40.4205 229.744 40.8047C229.692 41.4451 229.206 41.8635 228.378 41.8635H228.386ZM227.293 39.3874C227.003 39.3874 226.866 39.507 226.807 39.7631L225.739 44.3565C225.705 44.4761 225.774 44.4931 225.876 44.4931H226.26C226.388 44.4931 226.431 44.4761 226.448 44.3565L226.909 42.444H228.369C229.94 42.444 230.452 41.4792 230.504 40.7535C230.572 39.9168 230.042 39.3789 229.086 39.3789L227.293 39.3874Z" fill="#0480D6"/>
<path d="M207.016 41.8635H205.667L206.102 40.0107H207.434C208.228 40.0107 208.399 40.4205 208.373 40.8048C208.322 41.4451 207.835 41.8635 207.007 41.8635H207.016ZM205.923 39.3875C205.633 39.3875 205.496 39.507 205.436 39.7631L204.36 44.3651C204.326 44.4846 204.395 44.5017 204.497 44.5017H204.881C205.009 44.5017 205.052 44.4846 205.069 44.3651L205.522 42.4526H206.99C208.561 42.4526 209.073 41.4878 209.125 40.7621C209.193 39.9253 208.664 39.3875 207.707 39.3875H205.923Z" fill="#0480D6"/>
<path d="M182.717 43.8955H181.291L181.752 41.9318H183.186C183.895 41.9318 184.16 42.2733 184.117 42.7941C184.083 43.2381 183.792 43.8955 182.717 43.8955ZM181.889 41.3512L182.315 39.4984C182.324 39.4131 182.341 39.3875 182.213 39.3875H181.735C181.649 39.3875 181.615 39.4045 181.59 39.4984L180.488 44.1431C180.411 44.3736 180.488 44.5017 180.804 44.5017H182.665C183.861 44.5017 184.791 43.8186 184.868 42.7343C184.911 42.1794 184.732 41.3512 183.255 41.3512H181.889Z" fill="#0480D6"/>
<path d="M173.009 43.8955H170.226C170.559 43.554 170.764 43.1868 171.259 41.7866L171.916 39.9936H173.923L173.009 43.8955ZM171.916 39.3875C171.6 39.3875 171.387 39.5411 171.267 39.857L170.311 42.4526C170.012 43.2466 169.824 43.5369 169.423 43.887L169.167 43.904C168.919 43.9296 168.868 44.0236 168.825 44.2199L168.612 45.5945C168.603 45.6629 168.629 45.697 168.689 45.697H169.064C169.133 45.697 169.175 45.6628 169.193 45.586L169.534 44.5017H173.376L173.171 45.586C173.163 45.6628 173.171 45.697 173.231 45.697H173.675C173.726 45.697 173.769 45.6799 173.803 45.586L174.204 44.2199C174.264 44.0492 174.221 43.9382 173.999 43.9211L173.743 43.904L174.674 39.8485C174.751 39.5753 174.614 39.3875 174.298 39.3875H171.916Z" fill="#0480D6"/>
<path d="M180.258 39.4045H179.856C179.728 39.4045 179.686 39.4302 179.652 39.5411L179.199 41.522H176.407L176.868 39.5411C176.902 39.4302 176.851 39.4045 176.732 39.4045H176.33C176.228 39.4045 176.16 39.4302 176.134 39.5411L175.007 44.3651C174.973 44.4846 175.041 44.5017 175.144 44.5017H175.545C175.664 44.5017 175.698 44.4846 175.733 44.3651L176.262 42.1111H179.062L178.533 44.3651C178.499 44.4846 178.542 44.5017 178.661 44.5017H179.062C179.199 44.5017 179.225 44.4846 179.259 44.3651L180.394 39.5411C180.403 39.4302 180.386 39.4045 180.258 39.4045Z" fill="#0480D6"/>
<path d="M186.806 39.4045H186.337C186.251 39.4045 186.209 39.4216 186.183 39.5155L185.039 44.3566C185.005 44.4675 185.022 44.5017 185.124 44.5017H185.62C185.722 44.5017 185.756 44.4932 185.773 44.4078L186.926 39.5155C186.926 39.4302 186.926 39.4045 186.806 39.4045Z" fill="#0480D6"/>
<path d="M202.132 39.3447C201.688 39.3447 201.133 39.3874 200.527 39.6436C200.467 39.6692 200.424 39.7033 200.45 39.8143L200.578 40.1302C200.595 40.1814 200.612 40.2156 200.715 40.1814C201.107 40.0363 201.568 39.9595 201.987 39.9595C203.105 39.9595 203.37 40.6425 203.233 41.5219H200.928C200.826 41.5219 200.817 41.5561 200.783 41.6414L200.698 41.983C200.681 42.0683 200.698 42.111 200.792 42.111H203.139C202.935 43.1356 202.26 43.9894 200.979 43.9894C200.518 43.9894 200.074 43.904 199.75 43.7589C199.63 43.7076 199.613 43.7418 199.571 43.8015L199.4 44.0747C199.314 44.1943 199.332 44.2114 199.4 44.2455C199.827 44.5187 200.484 44.587 200.996 44.587C202.585 44.587 203.814 43.5198 203.985 41.4024C204.07 40.0961 203.575 39.3447 202.132 39.3447Z" fill="#0480D6"/>
<path d="M196.027 42.7343L196.932 41.1804L197.53 40.1559H197.573L197.692 41.2146L197.863 42.7343H196.027ZM198.162 39.6777C198.119 39.4558 198.085 39.3875 197.803 39.3875H197.564C197.308 39.3875 197.231 39.4472 197.095 39.6777L194.2 44.3651C194.166 44.4505 194.175 44.5017 194.286 44.5017H194.858C194.952 44.5017 194.994 44.4761 195.054 44.3907L195.694 43.3234H197.931L198.068 44.3907C198.085 44.5017 198.145 44.5017 198.239 44.5017H198.725C198.819 44.5017 198.862 44.4334 198.836 44.3651L198.162 39.6777Z" fill="#0480D6"/>
<path d="M192.074 39.396H191.852C191.622 39.396 191.528 39.4814 191.34 39.6863L188.932 42.427L187.916 43.5881H187.882L188.838 39.507C188.855 39.4131 188.821 39.396 188.736 39.396H188.266C188.181 39.396 188.147 39.4131 188.113 39.507L187.028 44.1431C186.977 44.3822 187.028 44.5017 187.336 44.5017H187.558C187.78 44.5017 187.874 44.4163 188.061 44.2114L190.452 41.5134C190.546 41.3939 191.383 40.4035 191.494 40.301H191.519C191.451 40.6425 190.631 44.0577 190.563 44.3992C190.546 44.4846 190.58 44.5017 190.665 44.5017H191.144C191.229 44.5017 191.255 44.4932 191.289 44.3992L192.365 39.7631C192.424 39.5241 192.365 39.396 192.074 39.396Z" fill="#0480D6"/>
<path d="M35.2063 47.6522C35.7357 50.0257 35.4625 53.253 34.5575 56.1218C36.8456 51.3576 39.2192 45.0225 38.8606 42.3245C38.2715 37.9872 20.0515 26.7769 20.0515 26.7769C17.7121 32.8303 33.8488 38.8154 35.2063 47.6522Z" fill="#0480D6"/>
<path d="M34.7197 66.5723C35.9835 66.5651 37.2247 66.9079 38.3057 67.5627C40.9268 68.997 43.9066 71.5243 44.7774 73.1892C46.1435 75.7932 45.9301 78.1156 43.5565 85.1508C41.1915 92.1861 42.7027 94.7219 42.7027 94.7219C42.7027 94.7219 48.9866 82.3077 50.9418 77.4325C52.6836 73.0952 41.3196 66.5552 35.2576 66.5552C35.0783 66.5552 34.8905 66.5552 34.7197 66.5723Z" fill="#0480D6"/>
<path d="M35.1211 48.7535C34.6088 56.8646 31.7316 57.9831 20.5554 61.9447C13.2896 64.5146 11.2319 66.8881 11.2319 66.8881C11.2319 66.8881 28.9226 62.8241 30.7838 61.4239C34.2332 58.8454 36.0432 51.5028 35.0443 47.0972C35.1297 47.6351 35.1553 48.19 35.1297 48.7535" fill="#0480D6"/>
<path d="M42.2162 39.8313C38.1009 39.1141 27.6846 29.6712 27.6846 29.6712C27.6846 29.6712 29.2641 27.4257 37.2385 30.8323C45.2045 34.2475 49.0892 36.1259 53.1789 34.7513C54.8625 34.1538 56.4458 33.3046 57.8748 32.2326C54.0242 35.0586 47.3304 40.7107 42.2162 39.8313Z" fill="#0480D6"/>
<path d="M75.2579 29.432C75.6165 30.4736 76.9485 31.7202 78.7841 32.9326C79.6635 33.2229 81.0638 33.6498 82.3701 33.9059C81.4907 33.59 80.8759 32.9838 80.9101 32.5228C80.9698 31.7799 83.6678 18.7937 83.813 16.7958C83.9496 14.8065 84.0606 11.7584 81.7212 10.1448C81.7212 10.1448 74.037 25.8802 75.2579 29.4405" fill="#0480D6"/>
</svg>
