<svg width="99" height="19" viewBox="0 0 99 19" fill="none" xmlns="http://www.w3.org/2000/svg">
<path fill-rule="evenodd" clip-rule="evenodd" d="M65.3451 10.4499C65.4036 10.8278 65.4327 11.1186 65.5203 11.4093C66.1626 14.113 68.2942 15.9152 71.0681 16.148C73.5208 16.3515 75.448 15.4211 76.8786 13.4152C77.5794 12.456 78.7181 12.2814 79.6232 13.0664C80.1489 13.5024 80.2072 14.0839 79.7984 14.6362C79.5649 14.9269 79.3605 15.2176 79.1268 15.5374C78.1925 16.8165 76.9662 17.6887 75.4477 18.2119C72.995 19.0551 70.5423 19.1712 68.1187 18.2701C64.8484 17.0782 62.9213 14.6943 62.3665 11.293C62.0453 9.19985 62.2497 7.10673 63.2133 5.21698C64.6147 2.5133 66.8048 0.856327 69.8414 0.362089C71.8562 0.0423996 73.8416 0.245918 75.7105 1.14705C78.3675 2.39713 79.9734 4.51936 80.5866 7.33936C80.7618 8.12432 80.8202 8.90913 80.8786 9.69409C80.937 10.1883 80.7035 10.3918 80.2071 10.421C79.9734 10.421 79.769 10.421 79.5355 10.421C75.0096 10.421 70.4838 10.421 65.9871 10.421C65.7829 10.4501 65.6368 10.4501 65.3448 10.4501L65.3451 10.4499ZM77.6964 7.48465C77.3168 4.95552 74.2509 2.74593 71.4185 2.92048C68.4695 3.09488 65.5495 5.33329 65.4327 7.48465C69.4914 7.48465 73.6084 7.48465 77.6962 7.48465H77.6964Z" fill="white" fill-opacity="0.32"/>
<path fill-rule="evenodd" clip-rule="evenodd" d="M42.1607 10.3628C42.1899 10.6246 42.219 10.799 42.2483 11.0025C42.803 13.9968 45.2558 16.0609 48.2925 16.119C50.599 16.1481 52.3803 15.2179 53.7234 13.3572C54.4242 12.3688 55.6798 12.2525 56.5558 13.1248C56.9646 13.5608 57.0522 14.0841 56.6434 14.6075C56.4682 14.8691 56.293 15.1016 56.0886 15.3051C55.0958 16.7587 53.7236 17.6889 52.0592 18.2414C49.6065 19.0553 47.1537 19.1134 44.7887 18.1833C41.4015 16.8751 39.5036 14.2876 39.0948 10.6828C38.8904 8.93851 39.0656 7.25243 39.7956 5.65354C41.2264 2.63003 43.5331 0.769537 46.8908 0.333384C48.672 0.100896 50.4531 0.246183 52.0884 0.914824C55.0667 2.13579 56.7894 4.43243 57.461 7.54314C57.5777 8.2409 57.6654 8.9966 57.6945 9.69435C57.7238 10.2758 57.6069 10.3921 56.9937 10.3921C55.9425 10.3921 54.833 10.3921 53.7526 10.3921C50.132 10.3921 46.5114 10.3921 42.9491 10.3921C42.6862 10.363 42.4527 10.363 42.1607 10.363V10.3628ZM54.5701 7.39757C54.1906 4.89741 51.2123 2.77517 48.2925 2.8334C45.4601 2.89148 42.511 5.15916 42.2774 7.39757C46.3653 7.39757 50.424 7.39757 54.5701 7.39757Z" fill="white" fill-opacity="0.32"/>
<path fill-rule="evenodd" clip-rule="evenodd" d="M92.9671 11.6996C93.2006 11.9032 93.3175 12.0195 93.4635 12.1358C95.0402 13.4731 96.617 14.8104 98.1646 16.1476C98.2522 16.2348 98.3981 16.3512 98.4858 16.4384C99.0698 17.0198 99.1282 17.8628 98.5734 18.4443C98.0478 19.0259 97.2303 19.1129 96.617 18.6187C95.5074 17.7174 94.4562 16.7872 93.376 15.886C91.8284 14.5779 90.3101 13.2696 88.7625 11.9614C88.6457 11.8452 88.4705 11.7289 88.2369 11.5544C88.2369 11.8742 88.2076 12.0777 88.2076 12.2812C88.2076 15.9732 88.2076 13.2115 88.2076 16.9036C88.2076 17.078 88.2076 17.2524 88.2076 17.427C88.1493 18.2409 87.536 18.8224 86.7184 18.7643C85.93 18.7351 85.4045 18.1539 85.3752 17.3398C85.3752 17.1654 85.3752 16.991 85.3752 16.8164C85.3752 9.51947 85.3752 8.67642 85.3752 1.37946C85.3752 1.14698 85.3752 0.943456 85.3752 0.710823C85.3752 0.187469 85.4336 0.100268 85.93 0.100268C86.6016 0.0711528 87.2731 0.0711528 87.9447 0.0711528C89.5506 0.0711528 91.215 0.129238 92.8209 0.0420371C95.5365 -0.0742798 98.5731 2.10619 98.8651 5.27484C99.128 8.12381 97.1715 10.8275 94.2517 11.4089C93.8722 11.4961 93.4634 11.6126 92.967 11.6996H92.9671ZM88.0325 9.46124C88.2076 9.49035 88.3244 9.49035 88.412 9.49035C89.7552 9.49035 91.1276 9.49035 92.4707 9.49035C92.8503 9.49035 93.2591 9.46124 93.6387 9.31595C94.8943 8.93803 95.887 8.18219 96.2082 6.84491C96.7629 4.54826 95.0402 2.45514 92.6751 2.45514C91.2737 2.45514 89.9011 2.45514 88.4705 2.45514C88.2953 2.45514 88.1494 2.48426 87.9741 2.48426C88.0324 4.81001 88.0325 7.10666 88.0325 9.46138V9.46124Z" fill="white" fill-opacity="0.32"/>
<path fill-rule="evenodd" clip-rule="evenodd" d="M31.6492 10.3918C28.9629 10.3918 26.3642 10.3918 23.7071 10.3918C23.7071 10.6243 23.6779 10.8278 23.6779 11.0313C23.6779 13.0664 23.6779 15.0723 23.6779 17.1073C23.6779 17.3689 23.6779 17.6306 23.6194 17.8341C23.415 18.4446 22.7726 18.8225 22.1596 18.7934C21.488 18.7353 20.9332 18.212 20.8456 17.5434C20.8164 17.3689 20.8456 17.2235 20.8456 17.0491C20.8456 9.81038 20.8164 8.93822 20.8164 1.72846C20.8164 1.43774 20.8457 1.14702 20.9332 0.885418C21.1667 0.274864 21.8091 -0.0739414 22.4808 0.0132599C23.0939 0.100461 23.6194 0.623669 23.6779 1.26334C23.7071 1.46686 23.6779 1.64126 23.6779 1.84478C23.6779 5.5659 23.7071 2.92031 23.7071 6.64158C23.7071 6.87407 23.7364 7.07759 23.7364 7.28111C24.2328 7.39742 31.1237 7.39742 31.6494 7.28111C31.6494 7.1067 31.6786 6.9323 31.6786 6.72878C31.6786 5.10078 31.6786 3.44366 31.6786 1.81566C31.6786 1.64126 31.6786 1.49597 31.6786 1.32157C31.7371 0.594699 32.2918 0.0423748 33.0217 0.0134047C33.7518 -0.0157109 34.4234 0.536758 34.511 1.26348C34.5402 1.43789 34.511 1.58317 34.511 1.75758C34.511 6.8451 34.511 11.9035 34.511 16.991C34.511 17.1654 34.511 17.3107 34.511 17.4853C34.4234 18.212 33.7811 18.7934 33.0511 18.7643C32.3211 18.7352 31.7372 18.1539 31.6495 17.427C31.6495 17.2526 31.6495 17.1073 31.6495 16.9329C31.6495 14.9851 31.6495 12.9792 31.6495 11.0315C31.6495 10.8571 31.6495 10.6536 31.6495 10.392L31.6492 10.3918Z" fill="white" fill-opacity="0.32"/>
<path fill-rule="evenodd" clip-rule="evenodd" d="M8.40684 18.9098C6.50894 18.8807 4.72772 18.4738 3.09257 17.4853C2.3919 17.0783 1.74942 16.5551 1.22392 15.9445C0.961017 15.6247 0.639923 15.305 0.523096 14.898C0.347927 14.3748 0.318684 13.7933 0.815092 13.3282C1.36984 12.8049 2.129 12.6013 2.88831 13.0957C3.61837 13.6189 3.96856 14.2876 4.58194 14.8981C5.45778 15.7703 6.59667 16.2354 7.82299 16.3808C8.96173 16.4972 10.0712 16.468 11.1809 16.0901C11.6188 15.9157 12.0861 15.7122 12.4657 15.4215C13.1665 14.6365 13.3709 13.5319 12.524 12.776C12.1152 12.4272 11.5897 12.1656 11.0642 11.933C9.77938 11.3807 8.43623 11.0027 7.09308 10.6538C5.98343 10.3922 4.93228 10.0434 3.82278 9.72355C3.41396 9.60738 3.00513 9.37475 2.6257 9.17123C1.60364 8.61891 1.01965 7.74675 0.844481 6.64196C0.523388 4.34546 1.37013 2.28131 3.38471 1.26372C6.53833 -0.277084 9.80862 -0.131651 12.9619 1.64164C13.5459 1.96147 14.1007 2.45571 14.5971 2.89172C14.9768 3.21155 15.2687 3.67667 15.4147 4.17091C15.5608 4.78132 15.2687 5.42099 14.5095 5.59539C13.8672 5.74083 13.2832 5.53731 12.8159 5.04307C12.7283 4.95587 12.6407 4.83955 12.5824 4.75235C11.8523 3.64756 10.7719 3.03715 9.48724 2.80451C8.20243 2.57188 6.91776 2.601 5.69129 3.09523C5.25337 3.26964 4.78621 3.50227 4.43572 3.82211C3.91007 4.51972 3.70566 5.45011 4.40648 6.32227C4.96123 6.84547 5.60371 7.13619 6.30438 7.28163C7.85194 7.65955 9.42861 8.06658 10.9762 8.44451C11.969 8.70611 12.9326 9.02594 13.8376 9.5493C15.0056 10.1597 15.8524 11.061 16.1444 12.3691C16.4947 13.9682 16.1444 15.4799 14.8888 16.6427C13.4581 17.9219 11.8229 18.6195 9.92501 18.8231C9.39951 18.8811 8.874 18.8811 8.40669 18.9103L8.40684 18.9098Z" fill="white" fill-opacity="0.32"/>
</svg>
