<svg width="88" height="82" viewBox="0 0 88 82" fill="none" xmlns="http://www.w3.org/2000/svg">
<path d="M79.1588 9.26875C74.3014 4.53103 67.843 1.92188 60.9736 1.92188C54.5515 1.92188 48.4887 4.20244 43.7574 8.37046C39.0261 4.20226 32.963 1.92188 26.5412 1.92188C19.6718 1.92188 13.2134 4.53103 8.35599 9.26875C-1.6714 19.0491 -1.6714 34.9628 8.35599 44.7431L11.4423 47.7534V80.0229C11.4423 80.761 12.0558 81.3594 12.8125 81.3594H74.7024C75.4591 81.3594 76.0726 80.761 76.0726 80.0229V47.7534L79.159 44.7431C89.186 34.9628 89.186 19.0491 79.1588 9.26875ZM14.1826 78.6864V76.0135H73.332V78.6864H14.1826ZM77.2209 42.853L73.7332 46.2548C73.4761 46.5053 73.3318 46.8453 73.3318 47.1997V73.3403H14.1826V47.1997C14.1826 46.8453 14.0383 46.5053 13.7812 46.2548L10.2935 42.853C1.33472 34.1149 1.33472 19.897 10.2935 11.1587C14.6333 6.92582 20.4035 4.59465 26.541 4.59465C32.2195 4.59465 37.5824 6.59152 41.7901 10.2424L35.037 16.8289C34.5019 17.3509 34.5019 18.1971 35.037 18.7189C35.3045 18.98 35.6553 19.1104 36.0059 19.1104C36.3565 19.1104 36.7072 18.98 36.9747 18.7189L44.6614 11.2216C44.6725 11.2107 44.6818 11.1992 44.6924 11.1881C44.7034 11.178 44.7151 11.169 44.7259 11.1585C49.0657 6.92564 54.8358 4.59447 60.9732 4.59447C67.1108 4.59447 72.8807 6.92564 77.2207 11.1585C86.1797 19.897 86.1797 34.1149 77.2209 42.853Z" fill="#E20707"/>
<path d="M69.2213 45.8633H61.1583L66.166 34.1666C66.4576 33.4855 66.128 32.7027 65.4296 32.4183C64.7311 32.1339 63.9287 32.4556 63.6371 33.1366L58.1883 45.8633H45.1276V33.6516C45.1276 32.9135 44.5141 32.3151 43.7574 32.3151C43.0006 32.3151 42.3871 32.9135 42.3871 33.6516V45.8633H29.3264L23.8776 33.1366C23.5861 32.4554 22.7835 32.1343 22.0852 32.4183C21.3869 32.7027 21.0572 33.4855 21.3487 34.1666L26.3565 45.8633H18.2933C17.5366 45.8633 16.9231 46.4617 16.9231 47.1997C16.9231 47.9378 17.5366 48.5362 18.2933 48.5362H69.2213C69.978 48.5362 70.5915 47.9378 70.5915 47.1997C70.5915 46.4617 69.978 45.8633 69.2213 45.8633Z" fill="#E20707"/>
<path fill-rule="evenodd" clip-rule="evenodd" d="M34.6096 16.3909L40.8795 10.2756C36.8653 6.99528 31.847 5.20659 26.5409 5.20659C20.5608 5.20659 14.9446 7.47691 10.7207 11.5968C2.00809 20.0949 2.00809 33.917 10.7207 42.4149L14.2082 45.8165C14.5818 46.1807 14.7944 46.6781 14.7944 47.1997V72.7284H72.7197V47.1997C72.7197 46.6781 72.9323 46.1807 73.3059 45.8165L76.7935 42.4149C85.5061 33.917 85.5061 20.0949 76.7933 11.5966C72.5692 7.47672 66.9532 5.20641 60.9731 5.20641C54.9931 5.20641 49.377 7.47673 45.153 11.5966C45.141 11.6083 45.1297 11.6186 45.1209 11.6263C45.1127 11.6352 45.1015 11.6471 45.0885 11.6597L37.402 19.1568C37.402 19.1569 37.4021 19.1568 37.402 19.1568C37.014 19.5354 36.5071 19.7223 36.0057 19.7223C35.5043 19.7223 34.9975 19.5355 34.6095 19.1568C33.8282 18.3948 33.8284 17.1528 34.6096 16.3909ZM35.0369 18.7189C35.3044 18.98 35.6552 19.1104 36.0057 19.1104C36.3563 19.1104 36.7071 18.98 36.9746 18.7189L44.6613 11.2216L44.6697 11.2129L44.6795 11.2021C44.6837 11.1974 44.6879 11.1927 44.6923 11.1881L44.7008 11.1806L44.707 11.1752C44.7134 11.1698 44.7197 11.1644 44.7257 11.1585C49.0656 6.92564 54.8357 4.59447 60.9731 4.59447C67.1106 4.59447 72.8806 6.92564 77.2206 11.1585C86.1796 19.897 86.1796 34.1149 77.2208 42.853L73.7331 46.2548C73.476 46.5053 73.3317 46.8453 73.3317 47.1997V73.3403H14.1825V47.1997C14.1825 46.8453 14.0381 46.5053 13.7811 46.2548L10.2934 42.853C1.3346 34.1149 1.3346 19.897 10.2934 11.1587C14.6332 6.92582 20.4033 4.59465 26.5409 4.59465C32.0101 4.59465 37.1867 6.44711 41.3203 9.8457C41.4784 9.97569 41.635 10.1079 41.79 10.2424L35.0369 16.8289C34.5018 17.3509 34.5018 18.1971 35.0369 18.7189ZM22.0851 32.4183C22.7833 32.1343 23.5859 32.4554 23.8775 33.1366L29.3263 45.8633H42.387V33.6516C42.387 32.9135 43.0005 32.3151 43.7573 32.3151C44.514 32.3151 45.1275 32.9135 45.1275 33.6516V45.8633H58.1882L63.637 33.1366C63.9286 32.4556 64.731 32.1339 65.4294 32.4183C66.1279 32.7027 66.4575 33.4855 66.1659 34.1666L61.1581 45.8633H69.2212C69.9779 45.8633 70.5914 46.4617 70.5914 47.1997C70.5914 47.9378 69.9779 48.5362 69.2212 48.5362H18.2932C17.5364 48.5362 16.9229 47.9378 16.9229 47.1997C16.9229 46.4617 17.5364 45.8633 18.2932 45.8633H26.3564L21.3486 34.1666C21.057 33.4855 21.3868 32.7027 22.0851 32.4183ZM25.4287 45.2513L20.7861 34.4074C20.3557 33.4023 20.8487 32.2611 21.8542 31.8516C22.852 31.4457 24.0132 31.8984 24.4401 32.8958L29.73 45.2513H41.7751V33.6516C41.7751 32.5613 42.677 31.7032 43.7573 31.7032C44.8375 31.7032 45.7394 32.5613 45.7394 33.6516V45.2513H57.7845L63.0744 32.8958C63.5012 31.8989 64.6619 31.445 65.6602 31.8516C66.6661 32.2611 67.1588 33.4024 66.7284 34.4075L62.0858 45.2513H69.2212C70.3014 45.2513 71.2033 46.1094 71.2033 47.1997C71.2033 48.2901 70.3014 49.1482 69.2212 49.1482H18.2932C17.213 49.1482 16.311 48.2901 16.311 47.1997C16.311 46.1094 17.213 45.2513 18.2932 45.2513H25.4287ZM60.9734 1.30994C68.0003 1.30994 74.6127 3.97995 79.5859 8.83069C89.8593 18.8512 89.8594 35.1607 79.5861 45.1812L76.6845 48.0114V80.0229C76.6845 81.1133 75.7825 81.9713 74.7023 81.9713H12.8124C11.7322 81.9713 10.8302 81.1133 10.8302 80.0229V48.0114L7.92859 45.1812C-2.34501 35.1607 -2.34501 18.8512 7.92859 8.83069C12.9019 3.97995 19.5142 1.30994 26.5411 1.30994C32.9284 1.30994 38.974 3.51617 43.7573 7.5621C48.5405 3.51635 54.586 1.30994 60.9734 1.30994ZM43.7573 8.37047C48.4886 4.20244 54.5514 1.92188 60.9734 1.92188C67.8429 1.92188 74.3013 4.53104 79.1587 9.26876C89.1859 19.0491 89.1859 34.9628 79.1588 44.7431L76.0725 47.7534V80.0229C76.0725 80.761 75.459 81.3594 74.7023 81.3594H12.8124C12.0557 81.3594 11.4422 80.761 11.4422 80.0229V47.7534L8.35587 44.7431C-1.67152 34.9628 -1.67152 19.0491 8.35587 9.26876C13.2133 4.53104 19.6716 1.92188 26.5411 1.92188C32.9629 1.92188 39.0259 4.20226 43.7573 8.37047ZM14.7944 76.6254V78.0745H72.7199V76.6254H14.7944ZM14.1825 78.6864H73.3319V76.0135H14.1825V78.6864Z" fill="#E20707"/>
</svg>
