<svg width="107" height="84" viewBox="0 0 107 84" fill="none" xmlns="http://www.w3.org/2000/svg">
<path d="M41.2428 46.4861C33.1421 48.6252 26.1969 54.0901 22.1885 61.4789L25.0525 63.0325C28.6346 56.4298 34.8391 51.5472 42.0748 49.6361L41.2428 46.4861Z" fill="url(#paint0_linear_47_7153)"/>
<path d="M63.97 71.3092L66.8912 72.7521C68.3701 69.7584 71.3529 67.8986 74.6755 67.8986V64.6403C70.1041 64.6405 66.0019 67.1956 63.97 71.3092Z" fill="url(#paint1_linear_47_7153)"/>
<path d="M61.0069 74.3115C61.8118 67.7689 67.3936 62.6855 74.1425 62.6855C79.8228 62.6855 84.8632 66.3015 86.6846 71.6838L89.7709 70.6392C89.5017 69.8442 89.1747 69.0811 88.798 68.3518L96.3388 64.8315C96.3507 64.8581 96.3615 64.8853 96.3738 64.9122C96.986 66.2264 98.0728 67.2234 99.4344 67.7194C100.04 67.9402 100.668 68.0498 101.293 68.0498C102.075 68.0498 102.854 67.8785 103.583 67.538C106.293 66.2732 107.47 63.0375 106.206 60.3252C105.594 59.0109 104.507 58.0139 103.146 57.5179C103.081 57.4942 103.015 57.473 102.949 57.4516C103.499 56.1007 103.509 54.5339 102.846 53.1109C102.233 51.7967 101.147 50.7997 99.7849 50.3037C98.4231 49.8079 96.9498 49.8721 95.6362 50.4849C92.9264 51.7497 91.7495 54.9854 93.0129 57.6979C93.0257 57.7256 93.0418 57.7507 93.0551 57.778L83.4125 62.2793C80.7408 60.4638 77.5335 59.4269 74.1419 59.4269C65.5943 59.4269 58.5456 65.9676 57.7254 74.3113H15.3067C16.1611 56.471 30.9659 42.2192 49.0429 42.2192C60.1801 42.2192 70.5975 47.6997 76.9099 56.8797L79.5947 55.0337C72.6745 44.9693 61.2533 38.9608 49.0429 38.9608C29.1687 38.9608 12.9034 54.6738 12.0463 74.3113H0.387037V83H106.824V74.3113L61.0069 74.3115ZM101.289 60.4476C101.539 60.4476 101.789 60.4913 102.031 60.5792C102.574 60.7773 103.008 61.1756 103.253 61.701C103.759 62.7857 103.288 64.0798 102.205 64.5854C101.681 64.83 101.093 64.8558 100.55 64.6577C100.006 64.4596 99.5723 64.0613 99.3274 63.536C98.822 62.4512 99.292 61.1571 100.375 60.6516C100.666 60.5158 100.977 60.4476 101.289 60.4476ZM97.0153 53.4373C97.3063 53.3016 97.6169 53.2334 97.9289 53.2334C98.1786 53.2334 98.4289 53.2771 98.6705 53.365C99.2141 53.5631 99.6481 53.9614 99.8928 54.4867C100.398 55.5715 99.9282 56.8656 98.8449 57.3711C98.3208 57.6152 97.7329 57.6414 97.1899 57.4435C96.6463 57.2454 96.212 56.8473 95.9673 56.3219C95.4618 55.2372 95.932 53.9431 97.0153 53.4373ZM95.4788 60.2429C95.6715 60.3401 95.8686 60.4302 96.0744 60.505C96.1399 60.5289 96.2062 60.5464 96.2723 60.5676C96.1638 60.8339 96.0769 61.1085 96.0114 61.3887L87.0058 65.5928C86.7306 65.2504 86.4431 64.9192 86.1429 64.6012L95.4788 60.2429ZM103.566 79.7418H3.64522V77.5696H103.566L103.566 79.7418Z" fill="url(#paint2_linear_47_7153)"/>
<path d="M35.695 15.822C34.0161 14.4231 33.0663 13.5425 33.0663 11.7152C33.0663 9.88834 34.0161 9.00795 35.695 7.60909C37.3884 6.19797 39.4962 4.44176 39.4962 1.00001H36.238C36.238 2.8267 35.2882 3.70709 33.6095 5.10595C31.916 6.51707 29.8083 8.27328 29.8083 11.7152C29.8083 15.1576 31.916 16.914 33.6095 18.3251C35.2884 19.724 36.238 20.6046 36.238 22.4317C36.238 24.2588 35.2882 25.1396 33.6093 26.5385C31.9158 27.9498 29.8081 29.7062 29.8081 33.1484H33.0663C33.0663 31.3213 34.0161 30.4405 35.695 29.0416C37.3884 27.6303 39.4962 25.8739 39.4962 22.4317C39.4962 18.9898 37.3886 17.2333 35.695 15.822Z" fill="url(#paint3_linear_47_7153)"/>
<path d="M49.4989 15.822C47.82 14.4231 46.8702 13.5425 46.8702 11.7152C46.8702 9.88834 47.82 9.00795 49.4989 7.60909C51.1923 6.19797 53.2999 4.44176 53.2999 1.00001H50.0417C50.0417 2.8267 49.0919 3.70709 47.4132 5.10595C45.7198 6.51707 43.612 8.27328 43.612 11.7152C43.6122 15.1576 45.72 16.914 47.4134 18.3251C49.0923 19.724 50.0419 20.6046 50.0419 22.4317C50.0419 24.2588 49.0921 25.1396 47.4132 26.5385C45.7198 27.9498 43.612 29.7062 43.612 33.1484H46.8702C46.8702 31.3213 47.82 30.4405 49.4989 29.0416C51.1923 27.6303 53.2999 25.8739 53.2999 22.4317C53.2999 18.9898 51.1925 17.2333 49.4989 15.822Z" fill="url(#paint4_linear_47_7153)"/>
<path d="M64.4765 15.822C62.7979 14.4231 61.8478 13.5425 61.8478 11.7152C61.8478 9.88834 62.7976 9.00795 64.4765 7.60909C66.17 6.19797 68.2777 4.44176 68.2777 1.00001H65.0195C65.0195 2.8267 64.0699 3.70709 62.391 5.10595C60.6976 6.51707 58.5898 8.27328 58.5898 11.7152C58.5898 15.1576 60.6974 16.914 62.391 18.3251C64.0699 19.724 65.0195 20.6046 65.0195 22.4317C65.0195 24.2588 64.0699 25.1396 62.3908 26.5385C60.6974 27.9498 58.5896 29.7062 58.5896 33.1484H61.8478C61.8478 31.3213 62.7976 30.4405 64.4765 29.0416C66.17 27.6303 68.2777 25.8739 68.2777 22.4317C68.2777 18.9898 66.1702 17.2333 64.4765 15.822Z" fill="url(#paint5_linear_47_7153)"/>
<path fill-rule="evenodd" clip-rule="evenodd" d="M41.3299 46.3365L42.2243 49.7232L42.106 49.7545C34.9031 51.6569 28.7261 56.5177 25.1601 63.0908L25.1017 63.1984L22.0225 61.5282L22.0809 61.4206C26.1054 54.0022 33.0782 48.5155 41.2116 46.3677L41.3299 46.3365ZM63.8061 71.3647L63.8603 71.255C65.9127 67.0998 70.0573 64.5181 74.6755 64.5179L74.7979 64.5179V68.021H74.6755C71.3997 68.021 68.4594 69.8541 67.001 72.8063L66.9468 72.9161L63.8061 71.3647ZM86.6846 71.6838C84.8632 66.3015 79.8228 62.6855 74.1425 62.6855C67.4357 62.6855 61.8816 67.7056 61.0225 74.1891C61.0172 74.2298 61.0119 74.2706 61.0069 74.3115L106.824 74.3113V83H0.387037V74.3113H12.0463C12.9034 54.6738 29.1687 38.9608 49.0429 38.9608C61.2125 38.9608 72.5981 44.9293 79.5252 54.9329C79.5484 54.9665 79.5716 55.0001 79.5947 55.0337L76.9099 56.8797C70.5975 47.6997 60.1801 42.2192 49.0429 42.2192C31.0072 42.2192 16.2289 56.4059 15.3128 74.1889C15.3107 74.2297 15.3087 74.2704 15.3067 74.3113H57.7254C58.5456 65.9676 65.5943 59.4269 74.1419 59.4269C77.5335 59.4269 80.7408 60.4638 83.4125 62.2793L93.0551 57.778C93.0418 57.7507 93.0257 57.7256 93.0129 57.6979C93.0084 57.6883 93.0039 57.6786 92.9994 57.6689C91.758 54.9624 92.9361 51.7452 95.6362 50.4849C96.9498 49.8721 98.4231 49.8079 99.7849 50.3037C101.147 50.7997 102.233 51.7967 102.846 53.1109C103.49 54.494 103.499 56.013 102.994 57.3375C102.979 57.3757 102.964 57.4137 102.949 57.4516C102.988 57.4642 103.027 57.4768 103.065 57.4899C103.092 57.4989 103.119 57.5082 103.146 57.5179C104.507 58.0139 105.594 59.0109 106.206 60.3252C107.47 63.0375 106.293 66.2732 103.583 67.538C102.854 67.8785 102.075 68.0498 101.293 68.0498C100.668 68.0498 100.04 67.9402 99.4344 67.7194C98.0836 67.2274 97.0033 66.2422 96.3884 64.9434C96.3835 64.933 96.3786 64.9226 96.3738 64.9122C96.3669 64.8973 96.3606 64.8822 96.3542 64.8672C96.3492 64.8553 96.3441 64.8433 96.3388 64.8315L88.798 68.3518C88.8167 68.3881 88.8353 68.4244 88.8538 68.4608C89.189 69.1214 89.4834 69.8094 89.7312 70.5234C89.7446 70.5619 89.7578 70.6005 89.7709 70.6392L86.6846 71.6838C86.6847 71.684 86.6846 71.6836 86.6846 71.6838ZM88.9648 68.409C89.3198 69.1092 89.6295 69.8401 89.8868 70.5999L89.9261 70.7159L86.6079 71.839L86.5687 71.723C84.764 66.3904 79.7703 62.8079 74.1425 62.8079C67.5037 62.8079 62.0042 67.7732 61.146 74.1891L106.947 74.1889V83.1224H0.264648V74.1889H11.9293C12.8486 54.5408 29.1425 38.8385 49.0429 38.8385C61.2936 38.8385 72.7525 44.8668 79.6956 54.9643L79.7649 55.0652L76.8784 57.0499L76.8091 56.949C70.5194 47.8022 60.1398 42.3416 49.0429 42.3416C31.0747 42.3416 16.3513 56.4737 15.4354 74.1889H57.6149C58.4921 65.8361 65.5683 59.3045 74.1419 59.3045C77.5343 59.3045 80.7437 60.3343 83.4236 62.139L92.8885 57.7206C91.6185 54.953 92.823 51.6629 95.5844 50.374C96.9275 49.7475 98.4344 49.6818 99.8268 50.1887C101.219 50.6958 102.331 51.7156 102.957 53.0593C103.615 54.4719 103.624 56.0231 103.11 57.3758C103.136 57.3845 103.162 57.3935 103.187 57.4029C104.58 57.91 105.691 58.9298 106.317 60.2735C107.609 63.047 106.406 66.3555 103.635 67.6489C102.889 67.9969 102.093 68.1722 101.293 68.1722C100.653 68.1722 100.011 68.0601 99.3926 67.8344C98.0112 67.3312 96.9061 66.3234 96.2775 64.9952L88.9648 68.409ZM100.55 64.6577L100.592 64.5427C101.104 64.7297 101.658 64.7054 102.153 64.4745L102.205 64.5854C101.681 64.83 101.093 64.8558 100.55 64.6577ZM103.253 61.701C103.759 62.7857 103.288 64.0798 102.205 64.5854L102.153 64.4745C103.175 63.9975 103.619 62.7763 103.142 61.7527L103.253 61.701ZM103.253 61.701C103.008 61.1756 102.574 60.7773 102.031 60.5792C101.789 60.4913 101.539 60.4476 101.289 60.4476C100.977 60.4476 100.666 60.5158 100.375 60.6516C99.292 61.1571 98.822 62.4512 99.3274 63.536C99.5723 64.0613 100.006 64.4596 100.55 64.6577L100.592 64.5427C100.079 64.3558 99.6695 63.9802 99.4383 63.4843C98.9614 62.4607 99.4051 61.2394 100.427 60.7625C100.702 60.6343 100.995 60.57 101.289 60.57C101.524 60.57 101.76 60.6112 101.989 60.6942C102.502 60.8812 102.911 61.2567 103.142 61.7527L103.253 61.701ZM97.0153 53.4373C95.932 53.9431 95.4618 55.2372 95.9673 56.3219C96.212 56.8473 96.6463 57.2454 97.1899 57.4435C97.7329 57.6414 98.3208 57.6152 98.8449 57.3711C99.9282 56.8656 100.398 55.5715 99.8928 54.4867C99.6481 53.9614 99.2141 53.5631 98.6705 53.365C98.4289 53.2771 98.1786 53.2334 97.9289 53.2334C97.6169 53.2334 97.3063 53.3016 97.0153 53.4373ZM98.7931 57.2602C98.2984 57.4906 97.7442 57.5152 97.2318 57.3285C96.7187 57.1415 96.3092 56.7662 96.0783 56.2703C95.6012 55.2467 96.0451 54.0254 97.067 53.5482C97.3419 53.42 97.6349 53.3558 97.9289 53.3558C98.1643 53.3558 98.4004 53.3969 98.6286 53.48C99.1416 53.667 99.5509 54.0425 99.7819 54.5384C100.259 55.562 99.8151 56.7833 98.7931 57.2602ZM39.6185 0.877625V1.00001C39.6185 4.49894 37.4716 6.28793 35.7804 7.69725L35.7733 7.70311L35.695 7.60909C37.3682 6.21482 39.446 4.48343 39.4953 1.1224C39.4959 1.08184 39.4962 1.04105 39.4962 1.00001H36.238C36.238 2.8267 35.2882 3.70709 33.6095 5.10595C31.916 6.51707 29.8083 8.27328 29.8083 11.7152C29.8083 15.1576 31.916 16.914 33.6095 18.3251L33.5311 18.4192L33.5244 18.4136C31.8331 17.0042 29.6859 15.215 29.6859 11.7152C29.6859 8.2161 31.8328 6.42711 33.5241 5.01779L33.5311 5.01193C34.3725 4.31078 35.0171 3.75057 35.4538 3.14206C35.8859 2.53989 36.1156 1.88816 36.1156 1.00001V0.877625H39.6185ZM33.6093 26.5385C35.2882 25.1396 36.238 24.2588 36.238 22.4317C36.238 20.6046 35.2884 19.724 33.6095 18.3251L33.5311 18.4192C34.3726 19.1203 35.0172 19.6806 35.4539 20.2892C35.886 20.8914 36.1156 21.5433 36.1156 22.4317C36.1156 23.3201 35.8859 23.972 35.4538 24.5743C35.0171 25.183 34.3724 25.7433 33.5309 26.4444L33.6093 26.5385ZM29.809 33.026C29.8583 29.6646 31.9361 27.9329 33.6093 26.5385L33.5309 26.4444L33.5238 26.4504C31.8325 27.8599 29.6857 29.6491 29.6857 33.1484V33.2708H33.1887V33.1484C33.1887 32.26 33.4183 31.6081 33.8505 31.0057C34.2872 30.3971 34.9318 29.8368 35.7733 29.1356L35.7804 29.1297C37.4717 27.7202 39.6185 25.931 39.6185 22.4317C39.6185 18.9322 37.4714 17.143 35.7799 15.7334L35.7733 15.728C34.9318 15.0268 34.2872 14.4666 33.8505 13.8579C33.4183 13.2556 33.1887 12.6037 33.1887 11.7152C33.1887 10.827 33.4183 10.1752 33.8505 9.573C34.2872 8.96447 34.9318 8.40425 35.7733 7.70311L35.695 7.60909C34.0161 9.00795 33.0663 9.88834 33.0663 11.7152C33.0663 13.5425 34.0161 14.4231 35.695 15.822C37.3886 17.2333 39.4962 18.9898 39.4962 22.4317C39.4962 25.8739 37.3884 27.6303 35.695 29.0416C34.0161 30.4405 33.0663 31.3213 33.0663 33.1484H29.8081C29.8081 33.1073 29.8084 33.0665 29.809 33.026ZM53.4223 0.877625V1.00001C53.4223 4.49911 51.2753 6.28811 49.584 7.69747L49.5773 7.70311L49.4989 7.60909C51.1721 6.21479 53.2497 4.48358 53.299 1.1224C53.2996 1.08184 53.2999 1.04105 53.2999 1.00001H50.0417C50.0417 2.8267 49.0919 3.70709 47.4132 5.10595C45.7198 6.51707 43.612 8.27328 43.612 11.7152C43.6122 15.1576 45.72 16.914 47.4134 18.3251C49.0923 19.724 50.0419 20.6046 50.0419 22.4317C50.0419 24.2588 49.0921 25.1396 47.4132 26.5385L47.3348 26.4444C48.1763 25.7433 48.821 25.183 49.2577 24.5743C49.6898 23.972 49.9195 23.3201 49.9195 22.4317C49.9195 21.5433 49.6899 20.8914 49.2578 20.2892C48.8211 19.6806 48.1765 19.1203 47.3351 18.4192L47.3283 18.4136C45.637 17.0042 43.4898 15.215 43.4896 11.7152C43.4896 8.2161 45.6365 6.42711 47.3278 5.01778L47.3348 5.01193C48.1762 4.31078 48.8208 3.75057 49.2575 3.14206C49.6896 2.53989 49.9193 1.88816 49.9193 1.00001V0.877625H53.4223ZM43.6129 33.026C43.6622 29.6646 45.74 27.9329 47.4132 26.5385L47.3348 26.4444L47.3277 26.4504C45.6365 27.8599 43.4896 29.6491 43.4896 33.1484V33.2708H46.9926V33.1484C46.9926 32.26 47.2223 31.6081 47.6544 31.0057C48.0911 30.3971 48.7358 29.8368 49.5772 29.1356L49.5841 29.1299C51.2754 27.7204 53.4223 25.9312 53.4223 22.4317C53.4223 18.9321 51.2752 17.1429 49.5835 15.7332L49.5773 15.728C48.7358 15.0268 48.0911 14.4666 47.6544 13.8579C47.2223 13.2556 46.9926 12.6037 46.9926 11.7152C46.9926 10.827 47.2222 10.1752 47.6544 9.573C48.0911 8.96447 48.7358 8.40425 49.5773 7.70311L49.4989 7.60909C47.82 9.00795 46.8702 9.88834 46.8702 11.7152C46.8702 13.5425 47.82 14.4231 49.4989 15.822C51.1925 17.2333 53.2999 18.9898 53.2999 22.4317C53.2999 25.8739 51.1923 27.6303 49.4989 29.0416C47.82 30.4405 46.8702 31.3213 46.8702 33.1484H43.612C43.612 33.1073 43.6123 33.0665 43.6129 33.026ZM68.4001 0.877625V1.00001C68.4001 4.49894 66.2532 6.28793 64.5619 7.69725L64.5549 7.70312C63.7134 8.40426 63.0687 8.96447 62.632 9.57301C62.1999 10.1752 61.9702 10.827 61.9702 11.7152C61.9702 12.6037 62.1999 13.2556 62.6321 13.8579C63.0688 14.4666 63.7135 15.0268 64.5549 15.728L64.5614 15.7334C66.253 17.143 68.4001 18.9322 68.4001 22.4317C68.4001 25.931 66.2532 27.7202 64.562 29.1297L64.5549 29.1356L64.4765 29.0416C66.17 27.6303 68.2777 25.8739 68.2777 22.4317C68.2777 18.9898 66.1702 17.2333 64.4765 15.822C62.7979 14.4231 61.8478 13.5425 61.8478 11.7152C61.8478 9.88834 62.7976 9.00795 64.4765 7.60909C66.1497 6.21483 68.2275 4.48343 68.2768 1.1224C68.2774 1.08184 68.2777 1.04105 68.2777 1.00001H65.0195C65.0195 2.8267 64.0699 3.70709 62.391 5.10595L62.3127 5.01192C63.1542 4.31078 63.7988 3.75056 64.2354 3.14206C64.6675 2.5399 64.8971 1.88817 64.8971 1.00001V0.877625H68.4001ZM62.3908 26.5385C64.0699 25.1396 65.0195 24.2588 65.0195 22.4317C65.0195 20.6046 64.0699 19.724 62.391 18.3251C60.6974 16.914 58.5898 15.1576 58.5898 11.7152C58.5898 8.27328 60.6976 6.51707 62.391 5.10595L62.3127 5.01192L62.3056 5.01777C60.6144 6.4271 58.4675 8.21609 58.4675 11.7152C58.4675 15.2154 60.6149 17.0046 62.3065 18.4141L62.3127 18.4192C63.1542 19.1203 63.7987 19.6806 64.2354 20.2892C64.6675 20.8914 64.8971 21.5433 64.8971 22.4317C64.8971 23.3201 64.6675 23.972 64.2354 24.5743C63.7987 25.183 63.1541 25.7433 62.3125 26.4444L62.3908 26.5385ZM58.5905 33.026C58.6398 29.6646 60.7176 27.9329 62.3908 26.5385L62.3125 26.4444L62.3054 26.4504C60.6141 27.8599 58.4673 29.6491 58.4673 33.1484V33.2708H61.9702V33.1484C61.9702 32.26 62.1999 31.6081 62.632 31.0057C63.0687 30.3971 63.7134 29.8368 64.5549 29.1356L64.4765 29.0416C62.7976 30.4405 61.8478 31.3213 61.8478 33.1484H58.5896C58.5896 33.1073 58.5899 33.0665 58.5905 33.026ZM22.1885 61.4789C22.2079 61.4431 22.2275 61.4073 22.2471 61.3715C26.2447 54.073 33.1138 48.6679 41.1245 46.5176C41.1631 46.5072 41.2017 46.4969 41.2403 46.4867C41.2411 46.4865 41.242 46.4863 41.2428 46.4861L42.0748 49.6361C34.8391 51.5472 28.6346 56.4298 25.0525 63.0325L22.1885 61.4789ZM66.8912 72.7521L63.97 71.3092C63.9699 71.3095 63.9702 71.3089 63.97 71.3092C63.988 71.2729 64.0065 71.2358 64.0248 71.1997C66.0565 67.1868 70.0716 64.6858 74.5531 64.6409C74.5939 64.6405 74.6347 64.6403 74.6755 64.6403V67.8986C71.3529 67.8986 68.3701 69.7584 66.8912 72.7521ZM95.477 60.3788C95.6557 60.4674 95.8399 60.55 96.0324 60.62C96.0574 60.6291 96.0838 60.6377 96.11 60.6459C96.0286 60.8605 95.9607 61.0799 95.9061 61.3028L87.0408 65.4414C86.8177 65.167 86.5866 64.8998 86.3474 64.6408L95.477 60.3788ZM86.2309 64.6952C86.2017 64.6637 86.1724 64.6324 86.1429 64.6012L95.4788 60.2429C95.6715 60.3401 95.8686 60.4302 96.0744 60.505C96.1011 60.5147 96.1279 60.5234 96.1548 60.5317C96.17 60.5364 96.1852 60.5409 96.2004 60.5455C96.2243 60.5527 96.2484 60.5599 96.2723 60.5676C96.2569 60.6054 96.2419 60.6435 96.2273 60.6817C96.1395 60.9121 96.0676 61.1483 96.0114 61.3887L87.0058 65.5928C86.7576 65.284 86.4994 64.9843 86.2309 64.6952ZM3.7676 79.6194H103.444L103.443 77.692H3.7676V79.6194ZM103.566 77.5696L103.566 79.7418H3.64522V77.5696H103.566Z" fill="url(#paint6_linear_47_7153)"/>
<defs>
<linearGradient id="paint0_linear_47_7153" x1="49.5318" y1="-32.916" x2="39.1896" y2="82.2854" gradientUnits="userSpaceOnUse">
<stop stop-color="#F94942"/>
<stop offset="0.505" stop-color="#FF6E68"/>
<stop offset="1" stop-color="#F94942"/>
</linearGradient>
<linearGradient id="paint1_linear_47_7153" x1="49.5318" y1="-32.916" x2="39.1896" y2="82.2854" gradientUnits="userSpaceOnUse">
<stop stop-color="#F94942"/>
<stop offset="0.505" stop-color="#FF6E68"/>
<stop offset="1" stop-color="#F94942"/>
</linearGradient>
<linearGradient id="paint2_linear_47_7153" x1="49.5318" y1="-32.916" x2="39.1896" y2="82.2854" gradientUnits="userSpaceOnUse">
<stop stop-color="#F94942"/>
<stop offset="0.505" stop-color="#FF6E68"/>
<stop offset="1" stop-color="#F94942"/>
</linearGradient>
<linearGradient id="paint3_linear_47_7153" x1="49.5318" y1="-32.916" x2="39.1896" y2="82.2854" gradientUnits="userSpaceOnUse">
<stop stop-color="#F94942"/>
<stop offset="0.505" stop-color="#FF6E68"/>
<stop offset="1" stop-color="#F94942"/>
</linearGradient>
<linearGradient id="paint4_linear_47_7153" x1="49.5318" y1="-32.916" x2="39.1896" y2="82.2854" gradientUnits="userSpaceOnUse">
<stop stop-color="#F94942"/>
<stop offset="0.505" stop-color="#FF6E68"/>
<stop offset="1" stop-color="#F94942"/>
</linearGradient>
<linearGradient id="paint5_linear_47_7153" x1="49.5318" y1="-32.916" x2="39.1896" y2="82.2854" gradientUnits="userSpaceOnUse">
<stop stop-color="#F94942"/>
<stop offset="0.505" stop-color="#FF6E68"/>
<stop offset="1" stop-color="#F94942"/>
</linearGradient>
<linearGradient id="paint6_linear_47_7153" x1="49.5318" y1="-32.916" x2="39.1896" y2="82.2854" gradientUnits="userSpaceOnUse">
<stop stop-color="#F94942"/>
<stop offset="0.505" stop-color="#FF6E68"/>
<stop offset="1" stop-color="#F94942"/>
</linearGradient>
</defs>
</svg>
