<svg width="93" height="92" viewBox="0 0 93 92" fill="none" xmlns="http://www.w3.org/2000/svg">
<path d="M54.7092 1.36334C54.3814 1.33685 54.0426 1.44279 53.7701 1.68113C51.1407 3.98894 50.7946 8.24135 51.7447 11.7296C47.8485 12.456 44.7476 15.5281 43.8785 19.4627L1.82303 49.2565L1.81567 49.2641C1.70519 49.3473 1.60944 49.4381 1.52842 49.5516C1.52105 49.5592 1.51369 49.5743 1.50632 49.5819C1.43267 49.6878 1.37375 49.8089 1.33692 49.93C1.32955 49.9451 1.32955 49.9602 1.32219 49.9754C1.29273 50.0889 1.27063 50.2099 1.27063 50.3386V89.7227C1.27063 90.1011 1.43267 90.4643 1.70519 90.7139C1.94088 90.9258 2.24285 91.0469 2.55956 91.0469C2.61112 91.0469 2.67004 91.0469 2.7216 91.0393L91.1051 79.5458C91.7459 79.4626 92.232 78.9026 92.232 78.2292L92.2394 38.8605C92.2394 38.7621 92.2246 38.6638 92.2026 38.5654C92.1952 38.5276 92.1805 38.4973 92.1657 38.4595C92.1436 38.3989 92.1289 38.3384 92.0994 38.2854C92.0921 38.2703 92.0921 38.2627 92.0847 38.2476C87.7465 29.6821 76.2275 21.7071 62.6311 17.8097C61.2463 14.4123 58.1236 11.9531 54.4114 11.6052C53.4981 8.88117 53.6085 5.31728 55.4499 3.69045C55.9876 3.21375 56.0539 2.38139 55.5898 1.82148C55.3578 1.54152 55.0411 1.3864 54.7097 1.35992L54.7092 1.36334ZM53.5197 14.2079C57.5485 14.2079 60.8261 17.5751 60.8261 21.714C60.8261 25.8529 57.5485 29.2201 53.5197 29.2201C49.4909 29.2201 46.2133 25.8529 46.2133 21.714C46.2133 21.2979 46.2575 20.8893 46.3165 20.4958V20.4882C46.891 16.9244 49.896 14.2079 53.5197 14.2079ZM63.3527 20.7757C74.7685 24.3321 84.4176 30.7787 88.8514 37.7927L7.65549 48.3482L43.6943 22.8111C44.232 27.8883 48.4301 31.8608 53.5122 31.8608C58.9624 31.8608 63.396 27.3057 63.396 21.7068C63.396 21.3965 63.3748 21.086 63.3527 20.7757ZM89.6613 40.3661V53.8267C87.0245 54.2656 85.7355 53.7283 83.6585 52.8431C81.3826 51.8745 78.5618 50.6563 74.2825 50.8909C73.3913 50.9439 72.4412 51.0574 71.469 51.2314C65.5914 52.321 62.6969 55.0828 60.5613 57.1258C58.8746 58.7375 57.8582 59.706 55.0373 60.2356C52.2163 60.7577 50.9274 60.2053 48.7768 59.2822C46.1179 58.1472 42.4795 56.5885 36.5945 57.6781C30.7022 58.7602 27.815 61.522 25.7085 63.5423C24.0144 65.1615 22.9907 66.1452 20.1624 66.6673C17.3194 67.1894 16.0378 66.637 13.8946 65.7139C11.5892 64.7303 8.50312 63.4137 3.841 63.8298V51.5189H3.85573L89.6613 40.3661ZM75.748 53.5129C78.7126 53.5886 80.797 54.489 82.6788 55.291C84.7338 56.1687 86.5308 56.9405 89.6611 56.5092V62.1085C85.5292 62.5322 82.9292 61.4199 80.5723 60.4211C78.3627 59.4753 76.4551 58.6656 72.883 59.3164C69.3108 59.9747 67.7936 61.4275 66.0407 63.1073C63.9637 65.0973 61.6068 67.3597 56.466 68.3131C51.3103 69.259 48.3421 67.9878 45.7129 66.8604C43.5033 65.9145 41.5884 65.0973 38.0236 65.7557C34.4514 66.4139 32.9342 67.8668 31.1813 69.5466C29.1043 71.5366 26.7474 73.799 21.5991 74.7448C16.4581 75.6982 13.4825 74.427 10.8535 73.2996C9.20369 72.5959 7.71592 71.9603 5.57256 71.9603C5.04962 71.9603 4.48255 71.9982 3.86381 72.0814V66.4707C8.00676 66.0508 10.6141 67.1593 12.9232 68.1505C15.1328 69.1039 17.0404 69.9211 20.6346 69.2628C24.2068 68.6045 25.724 67.1517 27.477 65.4719C29.554 63.4818 31.9109 61.2195 37.0592 60.2736C42.2001 59.3202 45.1757 60.5914 47.8123 61.7264C50.0219 62.6722 51.9368 63.4894 55.5016 62.8311C59.0663 62.1652 60.5762 60.7275 62.3513 59.0326C64.4356 57.0426 66.7925 54.7878 71.9335 53.8343C72.7952 53.6754 73.6349 53.5695 74.4229 53.5317C74.8832 53.5052 75.3246 53.5015 75.748 53.5129ZM75.2214 61.7151C76.8749 61.6925 78.0092 62.1805 79.6443 62.8766C82.0748 63.9132 85.0504 65.1769 89.6762 64.7531V77.0563L3.856 88.2167V74.7561C6.5075 74.3172 7.78909 74.8544 9.85873 75.7397C11.8841 76.6023 14.4767 77.7146 18.1963 77.7146C19.36 77.7146 20.6416 77.6087 22.0483 77.3439C27.9405 76.2618 30.8277 73.5 32.9343 71.4797C34.6284 69.8605 35.6521 68.8768 38.4804 68.3547C41.3013 67.8326 42.5902 68.385 44.7409 69.3005C47.3924 70.4355 51.016 71.9942 56.9307 70.9122C62.8229 69.8226 65.7101 67.0532 67.8092 65.0405C69.5032 63.4213 70.527 62.4376 73.3552 61.9155C74.0623 61.7869 74.669 61.7227 75.2214 61.7151Z" fill="#E62F2F"/>
<path d="M54.7092 1.36334C54.3814 1.33685 54.0426 1.44279 53.7701 1.68113C51.1407 3.98894 50.7946 8.24135 51.7447 11.7296C47.8485 12.456 44.7476 15.5281 43.8785 19.4627L1.82303 49.2565L1.81567 49.2641C1.70519 49.3473 1.60944 49.4381 1.52842 49.5516C1.52105 49.5592 1.51369 49.5743 1.50632 49.5819C1.43267 49.6878 1.37375 49.8089 1.33692 49.93C1.32955 49.9451 1.32955 49.9602 1.32219 49.9754C1.29273 50.0889 1.27063 50.2099 1.27063 50.3386V89.7227C1.27063 90.1011 1.43267 90.4643 1.70519 90.7139C1.94088 90.9258 2.24285 91.0469 2.55956 91.0469C2.61112 91.0469 2.67004 91.0469 2.7216 91.0393L91.1051 79.5458C91.7459 79.4626 92.232 78.9026 92.232 78.2292L92.2394 38.8605C92.2394 38.7621 92.2246 38.6638 92.2026 38.5654C92.1952 38.5276 92.1805 38.4973 92.1657 38.4595C92.1436 38.3989 92.1289 38.3384 92.0994 38.2854C92.0921 38.2703 92.0921 38.2627 92.0847 38.2476C87.7465 29.6821 76.2275 21.7071 62.6311 17.8097C61.2463 14.4123 58.1236 11.9531 54.4114 11.6052C53.4981 8.88117 53.6085 5.31728 55.4499 3.69045C55.9876 3.21375 56.0539 2.38139 55.5898 1.82148C55.3578 1.54152 55.0411 1.3864 54.7097 1.35992L54.7092 1.36334ZM53.5197 14.2079C57.5485 14.2079 60.8261 17.5751 60.8261 21.714C60.8261 25.8529 57.5485 29.2201 53.5197 29.2201C49.4909 29.2201 46.2133 25.8529 46.2133 21.714C46.2133 21.2979 46.2575 20.8893 46.3165 20.4958V20.4882C46.891 16.9244 49.896 14.2079 53.5197 14.2079ZM63.3527 20.7757C74.7685 24.3321 84.4176 30.7787 88.8514 37.7927L7.65549 48.3482L43.6943 22.8111C44.232 27.8883 48.4301 31.8608 53.5122 31.8608C58.9624 31.8608 63.396 27.3057 63.396 21.7068C63.396 21.3965 63.3748 21.086 63.3527 20.7757ZM89.6613 40.3661V53.8267C87.0245 54.2656 85.7355 53.7283 83.6585 52.8431C81.3826 51.8745 78.5618 50.6563 74.2825 50.8909C73.3913 50.9439 72.4412 51.0574 71.469 51.2314C65.5914 52.321 62.6969 55.0828 60.5613 57.1258C58.8746 58.7375 57.8582 59.706 55.0373 60.2356C52.2163 60.7577 50.9274 60.2053 48.7768 59.2822C46.1179 58.1472 42.4795 56.5885 36.5945 57.6781C30.7022 58.7602 27.815 61.522 25.7085 63.5423C24.0144 65.1615 22.9907 66.1452 20.1624 66.6673C17.3194 67.1894 16.0378 66.637 13.8946 65.7139C11.5892 64.7303 8.50312 63.4137 3.841 63.8298V51.5189H3.85573L89.6613 40.3661ZM75.748 53.5129C78.7126 53.5886 80.797 54.489 82.6788 55.291C84.7338 56.1687 86.5308 56.9405 89.6611 56.5092V62.1085C85.5292 62.5322 82.9292 61.4199 80.5723 60.4211C78.3627 59.4753 76.4551 58.6656 72.883 59.3164C69.3108 59.9747 67.7936 61.4275 66.0407 63.1073C63.9637 65.0973 61.6068 67.3597 56.466 68.3131C51.3103 69.259 48.3421 67.9878 45.7129 66.8604C43.5033 65.9145 41.5884 65.0973 38.0236 65.7557C34.4514 66.4139 32.9342 67.8668 31.1813 69.5466C29.1043 71.5366 26.7474 73.799 21.5991 74.7448C16.4581 75.6982 13.4825 74.427 10.8535 73.2996C9.20369 72.5959 7.71592 71.9603 5.57256 71.9603C5.04962 71.9603 4.48255 71.9982 3.86381 72.0814V66.4707C8.00676 66.0508 10.6141 67.1593 12.9232 68.1505C15.1328 69.1039 17.0404 69.9211 20.6346 69.2628C24.2068 68.6045 25.724 67.1517 27.477 65.4719C29.554 63.4818 31.9109 61.2195 37.0592 60.2736C42.2001 59.3202 45.1757 60.5914 47.8123 61.7264C50.0219 62.6722 51.9368 63.4894 55.5016 62.8311C59.0663 62.1652 60.5762 60.7275 62.3513 59.0326C64.4356 57.0426 66.7925 54.7878 71.9335 53.8343C72.7952 53.6754 73.6349 53.5695 74.4229 53.5317C74.8832 53.5052 75.3246 53.5015 75.748 53.5129ZM75.2214 61.7151C76.8749 61.6925 78.0092 62.1805 79.6443 62.8766C82.0748 63.9132 85.0504 65.1769 89.6762 64.7531V77.0563L3.856 88.2167V74.7561C6.5075 74.3172 7.78909 74.8544 9.85873 75.7397C11.8841 76.6023 14.4767 77.7146 18.1963 77.7146C19.36 77.7146 20.6416 77.6087 22.0483 77.3439C27.9405 76.2618 30.8277 73.5 32.9343 71.4797C34.6284 69.8605 35.6521 68.8768 38.4804 68.3547C41.3013 67.8326 42.5902 68.385 44.7409 69.3005C47.3924 70.4355 51.016 71.9942 56.9307 70.9122C62.8229 69.8226 65.7101 67.0532 67.8092 65.0405C69.5032 63.4213 70.527 62.4376 73.3552 61.9155C74.0623 61.7869 74.669 61.7227 75.2214 61.7151Z" fill="url(#paint0_linear_47_7169)"/>
<path fill-rule="evenodd" clip-rule="evenodd" d="M53.7701 1.68113C54.0426 1.44279 54.3814 1.33685 54.7092 1.36334L54.7097 1.35992C54.7671 1.3645 54.824 1.37294 54.8801 1.38521C54.8935 1.38813 54.9068 1.39127 54.9201 1.39463C55.0529 1.42825 55.1807 1.48364 55.2986 1.56054C55.405 1.63003 55.5033 1.71707 55.5898 1.82148C56.0539 2.38139 55.9876 3.21375 55.4499 3.69045C53.6085 5.31728 53.4981 8.88117 54.4114 11.6052C58.1236 11.9531 61.2463 14.4123 62.6311 17.8097C76.2275 21.7071 87.7465 29.6821 92.0847 38.2476C92.0884 38.2551 92.0902 38.2608 92.0921 38.2665C92.0939 38.2722 92.0958 38.2779 92.0994 38.2854C92.1201 38.3225 92.1335 38.3633 92.1473 38.4053C92.1531 38.4232 92.1591 38.4413 92.1657 38.4595C92.1691 38.4681 92.1724 38.4763 92.1757 38.4843C92.1868 38.5115 92.1969 38.5362 92.2026 38.5654C92.2246 38.6638 92.2394 38.7621 92.2394 38.8605L92.232 78.2292C92.232 78.9026 91.7459 79.4626 91.1051 79.5458L2.7216 91.0393C2.67004 91.0469 2.61112 91.0469 2.55956 91.0469C2.24285 91.0469 1.94088 90.9258 1.70519 90.7139C1.43267 90.4643 1.27063 90.1011 1.27063 89.7227V50.3386C1.27063 50.2099 1.29273 50.0889 1.32219 49.9754C1.32587 49.9678 1.32771 49.9602 1.32955 49.9527C1.3314 49.9451 1.33324 49.9375 1.33692 49.93C1.37375 49.8089 1.43267 49.6878 1.50632 49.5819C1.51001 49.5781 1.51369 49.5724 1.51738 49.5668C1.52106 49.5611 1.52474 49.5554 1.52842 49.5516C1.60944 49.4381 1.70519 49.3473 1.81567 49.2641L1.82303 49.2565L43.8785 19.4627C44.7027 15.7317 47.5335 12.7763 51.1463 11.861C51.3435 11.8111 51.543 11.7672 51.7447 11.7296C51.6913 11.5336 51.642 11.3351 51.597 11.1347C50.8407 7.76952 51.2884 3.85924 53.7701 1.68113ZM50.9996 11.2669C50.2211 7.79332 50.6436 3.61099 53.3665 1.22121C53.6054 1.01226 53.8834 0.870227 54.1742 0.799705L54.1883 0.704376L54.7584 0.749923C55.2514 0.789311 55.7216 1.02148 56.061 1.43102C56.7352 2.24458 56.6409 3.45231 55.8559 4.14833C55.0952 4.82039 54.6419 5.94459 54.5065 7.29732C54.3848 8.51317 54.5278 9.84614 54.8763 11.0423C58.5468 11.535 61.6148 13.9717 63.0808 17.3027C76.641 21.2535 88.2154 29.2536 92.6306 37.9711L92.635 37.9797C92.6452 38.0006 92.6535 38.0203 92.6604 38.0386C92.6859 38.0915 92.7029 38.1384 92.7138 38.1698C92.7261 38.2056 92.7295 38.2167 92.7319 38.2242C92.7335 38.2294 92.7346 38.233 92.7378 38.242L92.7433 38.2556C92.7468 38.2641 92.7529 38.2792 92.7592 38.2958C92.7718 38.3291 92.7885 38.3775 92.801 38.4374C92.8285 38.5611 92.8513 38.7048 92.8513 38.8605L92.8439 78.2292C92.8439 79.1983 92.1412 80.0283 91.184 80.1526L2.81045 91.6447C2.80819 91.6451 2.80594 91.6454 2.80368 91.6457C2.70844 91.659 2.61304 91.6589 2.56805 91.6588L2.55956 91.6588C2.08487 91.6588 1.63885 91.4771 1.29609 91.169L1.29181 91.1651C0.893009 90.7998 0.658691 90.273 0.658691 89.7227V50.3386C0.658691 50.1402 0.692798 49.9645 0.729877 49.8216L0.745222 49.7625L0.751156 49.7503C0.7536 49.7428 0.756388 49.7346 0.759569 49.726C0.815518 49.5518 0.899673 49.3825 1.00388 49.2326L1.03267 49.1912L1.03591 49.1878C1.03815 49.1849 1.04055 49.1817 1.04309 49.1785C1.15435 49.0266 1.27938 48.9068 1.40761 48.806L1.4236 48.7896L43.3351 19.0977C44.2726 15.2563 47.2304 12.2201 50.9996 11.2669ZM0.734966 49.808C0.734335 49.8106 0.734898 49.8082 0.735686 49.8052L0.734966 49.808ZM46.9284 20.5414L46.9216 20.5864C46.8651 20.9642 46.8253 21.3399 46.8253 21.714C46.8253 25.5306 49.8443 28.6082 53.5197 28.6082C57.1951 28.6082 60.2141 25.5306 60.2141 21.714C60.2141 17.8974 57.1951 14.8199 53.5197 14.8199C50.2302 14.8199 47.4768 17.2764 46.9284 20.5383V20.5414ZM46.3165 20.4958C46.2575 20.8893 46.2133 21.2979 46.2133 21.714C46.2133 25.8529 49.4909 29.2201 53.5197 29.2201C57.5485 29.2201 60.8261 25.8529 60.8261 21.714C60.8261 17.5751 57.5485 14.2079 53.5197 14.2079C49.896 14.2079 46.891 16.9244 46.3165 20.4882V20.4958ZM83.6585 52.8431C85.7355 53.7283 87.0245 54.2656 89.6613 53.8267V40.3661L3.85573 51.5189H3.841V63.8298C4.04806 63.8114 4.25202 63.7963 4.45294 63.7845C8.77572 63.53 11.6916 64.774 13.8946 65.7139L13.8959 65.7145C16.0384 66.6373 17.32 67.1893 20.1624 66.6673C22.9841 66.1464 24.0097 65.1661 25.6967 63.5535L25.7085 63.5423C27.815 61.522 30.7022 58.7602 36.5945 57.6781C42.4706 56.5902 46.107 58.1425 48.7648 59.2771L48.7768 59.2822C50.9274 60.2053 52.2163 60.7577 55.0373 60.2356C57.8582 59.706 58.8746 58.7375 60.5613 57.1258C62.6969 55.0828 65.5914 52.321 71.469 51.2314C72.4412 51.0574 73.3913 50.9439 74.2825 50.8909C78.5255 50.6583 81.3346 51.854 83.6004 52.8183L83.6585 52.8431ZM60.1385 56.6833C62.299 54.6166 65.3009 51.7525 71.3574 50.6297L71.3611 50.629C72.3556 50.451 73.3296 50.3345 74.2462 50.28L74.249 50.2799C78.6344 50.0395 81.5516 51.2812 83.8312 52.2515L83.8982 52.28C84.9469 52.727 85.7329 53.0568 86.5749 53.2324C87.2837 53.3802 88.0505 53.4216 89.0493 53.2977V41.0627L4.45294 52.0583V63.1715C8.90035 62.9176 11.9132 64.2032 14.1284 65.1484L14.1366 65.1519C15.2206 65.6188 16.0166 65.9591 16.8858 66.1324C17.7375 66.3023 18.6885 66.3158 20.0513 66.0655C21.4059 65.8155 22.293 65.4622 23.0363 64.9974C23.7947 64.5231 24.4287 63.919 25.2854 63.1001C27.4176 61.0552 30.4125 58.1912 36.4839 57.0762C42.5412 55.955 46.3155 57.5661 49.0063 58.7148L49.017 58.7194C50.1046 59.1862 50.9057 59.5273 51.7754 59.7007C52.6273 59.8707 53.5745 59.884 54.9256 59.6339C56.2773 59.3801 57.1611 59.0285 57.9008 58.5672C58.6554 58.0966 59.2859 57.498 60.1385 56.6833ZM75.7317 54.1246C75.3232 54.1137 74.8991 54.1172 74.4581 54.1426L74.4523 54.1429C73.697 54.1792 72.8851 54.2811 72.0444 54.4361C67.089 55.3553 64.8385 57.504 62.7827 59.4668L62.7625 59.4861C61.8845 60.3245 61.0233 61.1468 59.9224 61.8364C58.8064 62.5354 57.4643 63.087 55.6139 63.4326L55.6127 63.4329C53.7615 63.7747 52.3127 63.7373 51.0287 63.4803C49.763 63.2271 48.6804 62.7636 47.5881 62.2961L47.5714 62.289L47.5703 62.2885C44.97 61.1691 42.1317 59.9553 37.1707 60.8753C32.2082 61.787 29.9571 63.9431 27.9085 65.9059L27.8837 65.9297C27.0184 66.7588 26.1621 67.5795 25.0632 68.2688C23.9469 68.969 22.6006 69.5227 20.7455 69.8646C18.8804 70.2062 17.4256 70.169 16.1393 69.911C14.8675 69.6559 13.7837 69.1883 12.6879 68.7155L12.6818 68.7128C10.5016 67.7769 8.13988 66.7747 4.47575 67.0322V71.3977C4.8592 71.3643 5.22421 71.3484 5.57256 71.3484C7.83878 71.3484 9.42352 72.0244 11.0625 72.7235L11.0936 72.7367C13.6869 73.8489 16.5263 75.0632 21.4875 74.1432C26.4501 73.2314 28.7011 71.0754 30.7497 69.1126L30.7746 69.0887C31.6398 68.2596 32.4962 67.4389 33.595 66.7496C34.7113 66.0494 36.0577 65.4957 37.9127 65.1538C39.7638 64.812 41.2125 64.8495 42.4965 65.1064C43.7622 65.3597 44.8448 65.8231 45.937 66.2906L45.9537 66.2978C48.5471 67.4099 51.379 68.6242 56.3556 67.7113C61.3104 66.792 63.5606 64.6361 65.6092 62.6732L65.634 62.6495C66.4992 61.8204 67.3556 60.9997 68.4544 60.3104C69.5708 59.6102 70.9171 59.0564 72.7721 58.7146L72.7733 58.7144C74.6273 58.3766 76.0755 58.414 77.3583 58.6699C78.628 58.9232 79.7121 59.3873 80.8092 59.8568L80.8111 59.8577L80.8131 59.8585L80.8356 59.868C83.0579 60.8099 85.41 61.8067 89.0491 61.5475V57.1945C86.1736 57.4492 84.3787 56.6825 82.4613 55.8635L82.4 55.8374C80.5325 55.0414 78.5496 54.1965 75.7317 54.1246ZM82.6933 55.2972C84.6046 56.1136 86.2957 56.8359 89.0491 56.5801C89.2474 56.5616 89.4513 56.5381 89.6611 56.5092V62.1085C85.5489 62.5302 82.9541 61.4305 80.6061 60.4354L80.5723 60.4211C78.3627 59.4753 76.4551 58.6656 72.883 59.3164C69.3108 59.9747 67.7936 61.4275 66.0407 63.1073L66.0341 63.1136C63.9587 65.1021 61.6014 67.3607 56.466 68.3131C51.3103 69.259 48.3421 67.9878 45.7129 66.8604C43.5033 65.9145 41.5884 65.0973 38.0236 65.7557C34.4514 66.4139 32.9342 67.8668 31.1813 69.5466L31.1747 69.5528C29.0993 71.5413 26.742 73.8 21.5991 74.7448C16.4581 75.6982 13.4825 74.427 10.8535 73.2996L10.8481 73.2973C9.2004 72.5945 7.71356 71.9603 5.57256 71.9603C5.22696 71.9603 4.86208 71.9769 4.47575 72.0121C4.27752 72.0302 4.07364 72.0532 3.86381 72.0814V66.4707C8.00676 66.0508 10.6141 67.1593 12.9232 68.1505C15.1328 69.1039 17.0404 69.9211 20.6346 69.2628C24.2068 68.6045 25.724 67.1517 27.477 65.4719L27.4834 65.4657C29.5589 63.4771 31.9162 61.2185 37.0592 60.2736C42.2001 59.3202 45.1757 60.5914 47.8123 61.7264C50.0219 62.6722 51.9368 63.4894 55.5016 62.8311C59.0663 62.1652 60.5762 60.7275 62.3513 59.0326L62.3585 59.0257C64.4411 57.0374 66.7985 54.7867 71.9335 53.8343C72.7952 53.6754 73.6349 53.5695 74.4229 53.5317C74.8832 53.5052 75.3246 53.5015 75.748 53.5129C78.6831 53.5878 80.7556 54.4712 82.6228 55.2671L82.6933 55.2972ZM75.2214 61.7151C75.2047 61.7154 75.1878 61.7155 75.1709 61.7158C74.6322 61.7266 74.0404 61.7908 73.3552 61.9155C70.5335 62.4364 69.508 63.4167 67.821 65.0293L67.8092 65.0405L67.8078 65.0418C65.7089 67.0544 62.8217 69.8229 56.9307 70.9122C51.0282 71.992 47.4073 70.4419 44.7572 69.3075L44.7409 69.3005L44.7273 69.2947C42.5848 68.3826 41.2954 67.8337 38.4804 68.3547C35.6587 68.8756 34.6331 69.8559 32.9461 71.4685L32.9343 71.4797C30.8277 73.5 27.9405 76.2618 22.0483 77.3439C20.6416 77.6087 19.36 77.7146 18.1963 77.7146C14.4958 77.7146 11.9107 76.6137 9.88988 75.753L9.85873 75.7397C7.78909 74.8544 6.5075 74.3172 3.856 74.7561V88.2167L89.6762 77.0563V64.7531C89.4689 64.7721 89.265 64.7877 89.0642 64.8001C84.7849 65.0641 81.9659 63.8668 79.6443 62.8766L79.6098 62.8619C78.0101 62.1809 76.887 61.7027 75.2729 61.7146C75.2561 61.7147 75.2383 61.7149 75.2214 61.7151ZM75.2298 62.3269C74.7191 62.3339 74.1464 62.3936 73.4649 62.5175C72.111 62.7676 71.2244 63.1207 70.4814 63.5854C69.7229 64.0598 69.0889 64.6638 68.232 65.4829C66.1079 67.5196 63.113 70.3913 57.042 71.514C50.9581 72.6269 47.1986 71.0182 44.5144 69.8692L44.5012 69.8636M89.0642 65.4132V76.5188L4.46794 87.52V75.2854C5.47342 75.1611 6.2422 75.2025 6.95049 75.3504C7.7912 75.5259 8.57288 75.8553 9.61806 76.3023L9.66138 76.3208C11.6907 77.1851 14.3707 78.3266 18.1963 78.3266C19.3973 78.3266 20.7163 78.2172 22.1602 77.9455C28.2307 76.8304 31.2253 73.9666 33.3573 71.9219C34.2141 71.103 34.8481 70.4989 35.6065 70.0246C36.3498 69.5598 37.2368 69.2065 38.5915 68.9565C39.9427 68.7064 40.8905 68.7196 41.7429 68.8887C42.6127 69.0613 43.4137 69.4006 44.5012 69.8636M89.0642 65.4132C84.6574 65.6768 81.7397 64.4356 79.4046 63.4397C77.7596 62.7393 76.7372 62.3062 75.2298 62.3269M63.3527 20.7757C63.3682 20.9934 63.3833 21.2112 63.3909 21.429C63.3941 21.5216 63.396 21.6142 63.396 21.7068C63.396 27.3057 58.9624 31.8608 53.5122 31.8608C48.6602 31.8608 44.6139 28.2398 43.7896 23.4936C43.7505 23.2685 43.7186 23.0409 43.6943 22.8111L7.65549 48.3482L88.8514 37.7927C88.7313 37.6027 88.6074 37.4131 88.4797 37.224C83.9801 30.5597 74.8137 24.4698 63.9798 20.9746C63.7714 20.9073 63.5623 20.841 63.3527 20.7757ZM64.0075 21.6269C74.5305 25.0626 83.3714 30.9423 87.7986 37.3126L10.0179 47.4242L43.24 23.883C44.2223 28.7655 48.443 32.4727 53.5122 32.4727C59.3159 32.4727 64.008 27.628 64.008 21.7068C64.008 21.6801 64.0078 21.6535 64.0075 21.6269Z" fill="#E62F2F"/>
<path fill-rule="evenodd" clip-rule="evenodd" d="M53.7701 1.68113C54.0426 1.44279 54.3814 1.33685 54.7092 1.36334L54.7097 1.35992C54.7671 1.3645 54.824 1.37294 54.8801 1.38521C54.8935 1.38813 54.9068 1.39127 54.9201 1.39463C55.0529 1.42825 55.1807 1.48364 55.2986 1.56054C55.405 1.63003 55.5033 1.71707 55.5898 1.82148C56.0539 2.38139 55.9876 3.21375 55.4499 3.69045C53.6085 5.31728 53.4981 8.88117 54.4114 11.6052C58.1236 11.9531 61.2463 14.4123 62.6311 17.8097C76.2275 21.7071 87.7465 29.6821 92.0847 38.2476C92.0884 38.2551 92.0902 38.2608 92.0921 38.2665C92.0939 38.2722 92.0958 38.2779 92.0994 38.2854C92.1201 38.3225 92.1335 38.3633 92.1473 38.4053C92.1531 38.4232 92.1591 38.4413 92.1657 38.4595C92.1691 38.4681 92.1724 38.4763 92.1757 38.4843C92.1868 38.5115 92.1969 38.5362 92.2026 38.5654C92.2246 38.6638 92.2394 38.7621 92.2394 38.8605L92.232 78.2292C92.232 78.9026 91.7459 79.4626 91.1051 79.5458L2.7216 91.0393C2.67004 91.0469 2.61112 91.0469 2.55956 91.0469C2.24285 91.0469 1.94088 90.9258 1.70519 90.7139C1.43267 90.4643 1.27063 90.1011 1.27063 89.7227V50.3386C1.27063 50.2099 1.29273 50.0889 1.32219 49.9754C1.32587 49.9678 1.32771 49.9602 1.32955 49.9527C1.3314 49.9451 1.33324 49.9375 1.33692 49.93C1.37375 49.8089 1.43267 49.6878 1.50632 49.5819C1.51001 49.5781 1.51369 49.5724 1.51738 49.5668C1.52106 49.5611 1.52474 49.5554 1.52842 49.5516C1.60944 49.4381 1.70519 49.3473 1.81567 49.2641L1.82303 49.2565L43.8785 19.4627C44.7027 15.7317 47.5335 12.7763 51.1463 11.861C51.3435 11.8111 51.543 11.7672 51.7447 11.7296C51.6913 11.5336 51.642 11.3351 51.597 11.1347C50.8407 7.76952 51.2884 3.85924 53.7701 1.68113ZM50.9996 11.2669C50.2211 7.79332 50.6436 3.61099 53.3665 1.22121C53.6054 1.01226 53.8834 0.870227 54.1742 0.799705L54.1883 0.704376L54.7584 0.749923C55.2514 0.789311 55.7216 1.02148 56.061 1.43102C56.7352 2.24458 56.6409 3.45231 55.8559 4.14833C55.0952 4.82039 54.6419 5.94459 54.5065 7.29732C54.3848 8.51317 54.5278 9.84614 54.8763 11.0423C58.5468 11.535 61.6148 13.9717 63.0808 17.3027C76.641 21.2535 88.2154 29.2536 92.6306 37.9711L92.635 37.9797C92.6452 38.0006 92.6535 38.0203 92.6604 38.0386C92.6859 38.0915 92.7029 38.1384 92.7138 38.1698C92.7261 38.2056 92.7295 38.2167 92.7319 38.2242C92.7335 38.2294 92.7346 38.233 92.7378 38.242L92.7433 38.2556C92.7468 38.2641 92.7529 38.2792 92.7592 38.2958C92.7718 38.3291 92.7885 38.3775 92.801 38.4374C92.8285 38.5611 92.8513 38.7048 92.8513 38.8605L92.8439 78.2292C92.8439 79.1983 92.1412 80.0283 91.184 80.1526L2.81045 91.6447C2.80819 91.6451 2.80594 91.6454 2.80368 91.6457C2.70844 91.659 2.61304 91.6589 2.56805 91.6588L2.55956 91.6588C2.08487 91.6588 1.63885 91.4771 1.29609 91.169L1.29181 91.1651C0.893009 90.7998 0.658691 90.273 0.658691 89.7227V50.3386C0.658691 50.1402 0.692798 49.9645 0.729877 49.8216L0.745222 49.7625L0.751156 49.7503C0.7536 49.7428 0.756388 49.7346 0.759569 49.726C0.815518 49.5518 0.899673 49.3825 1.00388 49.2326L1.03267 49.1912L1.03591 49.1878C1.03815 49.1849 1.04055 49.1817 1.04309 49.1785C1.15435 49.0266 1.27938 48.9068 1.40761 48.806L1.4236 48.7896L43.3351 19.0977C44.2726 15.2563 47.2304 12.2201 50.9996 11.2669ZM0.734966 49.808C0.734335 49.8106 0.734898 49.8082 0.735686 49.8052L0.734966 49.808ZM46.9284 20.5414L46.9216 20.5864C46.8651 20.9642 46.8253 21.3399 46.8253 21.714C46.8253 25.5306 49.8443 28.6082 53.5197 28.6082C57.1951 28.6082 60.2141 25.5306 60.2141 21.714C60.2141 17.8974 57.1951 14.8199 53.5197 14.8199C50.2302 14.8199 47.4768 17.2764 46.9284 20.5383V20.5414ZM46.3165 20.4958C46.2575 20.8893 46.2133 21.2979 46.2133 21.714C46.2133 25.8529 49.4909 29.2201 53.5197 29.2201C57.5485 29.2201 60.8261 25.8529 60.8261 21.714C60.8261 17.5751 57.5485 14.2079 53.5197 14.2079C49.896 14.2079 46.891 16.9244 46.3165 20.4882V20.4958ZM83.6585 52.8431C85.7355 53.7283 87.0245 54.2656 89.6613 53.8267V40.3661L3.85573 51.5189H3.841V63.8298C4.04806 63.8114 4.25202 63.7963 4.45294 63.7845C8.77572 63.53 11.6916 64.774 13.8946 65.7139L13.8959 65.7145C16.0384 66.6373 17.32 67.1893 20.1624 66.6673C22.9841 66.1464 24.0097 65.1661 25.6967 63.5535L25.7085 63.5423C27.815 61.522 30.7022 58.7602 36.5945 57.6781C42.4706 56.5902 46.107 58.1425 48.7648 59.2771L48.7768 59.2822C50.9274 60.2053 52.2163 60.7577 55.0373 60.2356C57.8582 59.706 58.8746 58.7375 60.5613 57.1258C62.6969 55.0828 65.5914 52.321 71.469 51.2314C72.4412 51.0574 73.3913 50.9439 74.2825 50.8909C78.5255 50.6583 81.3346 51.854 83.6004 52.8183L83.6585 52.8431ZM60.1385 56.6833C62.299 54.6166 65.3009 51.7525 71.3574 50.6297L71.3611 50.629C72.3556 50.451 73.3296 50.3345 74.2462 50.28L74.249 50.2799C78.6344 50.0395 81.5516 51.2812 83.8312 52.2515L83.8982 52.28C84.9469 52.727 85.7329 53.0568 86.5749 53.2324C87.2837 53.3802 88.0505 53.4216 89.0493 53.2977V41.0627L4.45294 52.0583V63.1715C8.90035 62.9176 11.9132 64.2032 14.1284 65.1484L14.1366 65.1519C15.2206 65.6188 16.0166 65.9591 16.8858 66.1324C17.7375 66.3023 18.6885 66.3158 20.0513 66.0655C21.4059 65.8155 22.293 65.4622 23.0363 64.9974C23.7947 64.5231 24.4287 63.919 25.2854 63.1001C27.4176 61.0552 30.4125 58.1912 36.4839 57.0762C42.5412 55.955 46.3155 57.5661 49.0063 58.7148L49.017 58.7194C50.1046 59.1862 50.9057 59.5273 51.7754 59.7007C52.6273 59.8707 53.5745 59.884 54.9256 59.6339C56.2773 59.3801 57.1611 59.0285 57.9008 58.5672C58.6554 58.0966 59.2859 57.498 60.1385 56.6833ZM75.7317 54.1246C75.3232 54.1137 74.8991 54.1172 74.4581 54.1426L74.4523 54.1429C73.697 54.1792 72.8851 54.2811 72.0444 54.4361C67.089 55.3553 64.8385 57.504 62.7827 59.4668L62.7625 59.4861C61.8845 60.3245 61.0233 61.1468 59.9224 61.8364C58.8064 62.5354 57.4643 63.087 55.6139 63.4326L55.6127 63.4329C53.7615 63.7747 52.3127 63.7373 51.0287 63.4803C49.763 63.2271 48.6804 62.7636 47.5881 62.2961L47.5714 62.289L47.5703 62.2885C44.97 61.1691 42.1317 59.9553 37.1707 60.8753C32.2082 61.787 29.9571 63.9431 27.9085 65.9059L27.8837 65.9297C27.0184 66.7588 26.1621 67.5795 25.0632 68.2688C23.9469 68.969 22.6006 69.5227 20.7455 69.8646C18.8804 70.2062 17.4256 70.169 16.1393 69.911C14.8675 69.6559 13.7837 69.1883 12.6879 68.7155L12.6818 68.7128C10.5016 67.7769 8.13988 66.7747 4.47575 67.0322V71.3977C4.8592 71.3643 5.22421 71.3484 5.57256 71.3484C7.83878 71.3484 9.42352 72.0244 11.0625 72.7235L11.0936 72.7367C13.6869 73.8489 16.5263 75.0632 21.4875 74.1432C26.4501 73.2314 28.7011 71.0754 30.7497 69.1126L30.7746 69.0887C31.6398 68.2596 32.4962 67.4389 33.595 66.7496C34.7113 66.0494 36.0577 65.4957 37.9127 65.1538C39.7638 64.812 41.2125 64.8495 42.4965 65.1064C43.7622 65.3597 44.8448 65.8231 45.937 66.2906L45.9537 66.2978C48.5471 67.4099 51.379 68.6242 56.3556 67.7113C61.3104 66.792 63.5606 64.6361 65.6092 62.6732L65.634 62.6495C66.4992 61.8204 67.3556 60.9997 68.4544 60.3104C69.5708 59.6102 70.9171 59.0564 72.7721 58.7146L72.7733 58.7144C74.6273 58.3766 76.0755 58.414 77.3583 58.6699C78.628 58.9232 79.7121 59.3873 80.8092 59.8568L80.8111 59.8577L80.8131 59.8585L80.8356 59.868C83.0579 60.8099 85.41 61.8067 89.0491 61.5475V57.1945C86.1736 57.4492 84.3787 56.6825 82.4613 55.8635L82.4 55.8374C80.5325 55.0414 78.5496 54.1965 75.7317 54.1246ZM82.6933 55.2972C84.6046 56.1136 86.2957 56.8359 89.0491 56.5801C89.2474 56.5616 89.4513 56.5381 89.6611 56.5092V62.1085C85.5489 62.5302 82.9541 61.4305 80.6061 60.4354L80.5723 60.4211C78.3627 59.4753 76.4551 58.6656 72.883 59.3164C69.3108 59.9747 67.7936 61.4275 66.0407 63.1073L66.0341 63.1136C63.9587 65.1021 61.6014 67.3607 56.466 68.3131C51.3103 69.259 48.3421 67.9878 45.7129 66.8604C43.5033 65.9145 41.5884 65.0973 38.0236 65.7557C34.4514 66.4139 32.9342 67.8668 31.1813 69.5466L31.1747 69.5528C29.0993 71.5413 26.742 73.8 21.5991 74.7448C16.4581 75.6982 13.4825 74.427 10.8535 73.2996L10.8481 73.2973C9.2004 72.5945 7.71356 71.9603 5.57256 71.9603C5.22696 71.9603 4.86208 71.9769 4.47575 72.0121C4.27752 72.0302 4.07364 72.0532 3.86381 72.0814V66.4707C8.00676 66.0508 10.6141 67.1593 12.9232 68.1505C15.1328 69.1039 17.0404 69.9211 20.6346 69.2628C24.2068 68.6045 25.724 67.1517 27.477 65.4719L27.4834 65.4657C29.5589 63.4771 31.9162 61.2185 37.0592 60.2736C42.2001 59.3202 45.1757 60.5914 47.8123 61.7264C50.0219 62.6722 51.9368 63.4894 55.5016 62.8311C59.0663 62.1652 60.5762 60.7275 62.3513 59.0326L62.3585 59.0257C64.4411 57.0374 66.7985 54.7867 71.9335 53.8343C72.7952 53.6754 73.6349 53.5695 74.4229 53.5317C74.8832 53.5052 75.3246 53.5015 75.748 53.5129C78.6831 53.5878 80.7556 54.4712 82.6228 55.2671L82.6933 55.2972ZM75.2214 61.7151C75.2047 61.7154 75.1878 61.7155 75.1709 61.7158C74.6322 61.7266 74.0404 61.7908 73.3552 61.9155C70.5335 62.4364 69.508 63.4167 67.821 65.0293L67.8092 65.0405L67.8078 65.0418C65.7089 67.0544 62.8217 69.8229 56.9307 70.9122C51.0282 71.992 47.4073 70.4419 44.7572 69.3075L44.7409 69.3005L44.7273 69.2947C42.5848 68.3826 41.2954 67.8337 38.4804 68.3547C35.6587 68.8756 34.6331 69.8559 32.9461 71.4685L32.9343 71.4797C30.8277 73.5 27.9405 76.2618 22.0483 77.3439C20.6416 77.6087 19.36 77.7146 18.1963 77.7146C14.4958 77.7146 11.9107 76.6137 9.88988 75.753L9.85873 75.7397C7.78909 74.8544 6.5075 74.3172 3.856 74.7561V88.2167L89.6762 77.0563V64.7531C89.4689 64.7721 89.265 64.7877 89.0642 64.8001C84.7849 65.0641 81.9659 63.8668 79.6443 62.8766L79.6098 62.8619C78.0101 62.1809 76.887 61.7027 75.2729 61.7146C75.2561 61.7147 75.2383 61.7149 75.2214 61.7151ZM75.2298 62.3269C74.7191 62.3339 74.1464 62.3936 73.4649 62.5175C72.111 62.7676 71.2244 63.1207 70.4814 63.5854C69.7229 64.0598 69.0889 64.6638 68.232 65.4829C66.1079 67.5196 63.113 70.3913 57.042 71.514C50.9581 72.6269 47.1986 71.0182 44.5144 69.8692L44.5012 69.8636M89.0642 65.4132V76.5188L4.46794 87.52V75.2854C5.47342 75.1611 6.2422 75.2025 6.95049 75.3504C7.7912 75.5259 8.57288 75.8553 9.61806 76.3023L9.66138 76.3208C11.6907 77.1851 14.3707 78.3266 18.1963 78.3266C19.3973 78.3266 20.7163 78.2172 22.1602 77.9455C28.2307 76.8304 31.2253 73.9666 33.3573 71.9219C34.2141 71.103 34.8481 70.4989 35.6065 70.0246C36.3498 69.5598 37.2368 69.2065 38.5915 68.9565C39.9427 68.7064 40.8905 68.7196 41.7429 68.8887C42.6127 69.0613 43.4137 69.4006 44.5012 69.8636M89.0642 65.4132C84.6574 65.6768 81.7397 64.4356 79.4046 63.4397C77.7596 62.7393 76.7372 62.3062 75.2298 62.3269M63.3527 20.7757C63.3682 20.9934 63.3833 21.2112 63.3909 21.429C63.3941 21.5216 63.396 21.6142 63.396 21.7068C63.396 27.3057 58.9624 31.8608 53.5122 31.8608C48.6602 31.8608 44.6139 28.2398 43.7896 23.4936C43.7505 23.2685 43.7186 23.0409 43.6943 22.8111L7.65549 48.3482L88.8514 37.7927C88.7313 37.6027 88.6074 37.4131 88.4797 37.224C83.9801 30.5597 74.8137 24.4698 63.9798 20.9746C63.7714 20.9073 63.5623 20.841 63.3527 20.7757ZM64.0075 21.6269C74.5305 25.0626 83.3714 30.9423 87.7986 37.3126L10.0179 47.4242L43.24 23.883C44.2223 28.7655 48.443 32.4727 53.5122 32.4727C59.3159 32.4727 64.008 27.628 64.008 21.7068C64.008 21.6801 64.0078 21.6535 64.0075 21.6269Z" fill="url(#paint1_linear_47_7169)"/>
<defs>
<linearGradient id="paint0_linear_47_7169" x1="43.2345" y1="-36.668" x2="28.6723" y2="90.087" gradientUnits="userSpaceOnUse">
<stop stop-color="#F94942"/>
<stop offset="0.505" stop-color="#FF6E68"/>
<stop offset="1" stop-color="#F94942"/>
</linearGradient>
<linearGradient id="paint1_linear_47_7169" x1="43.2345" y1="-36.668" x2="28.6723" y2="90.087" gradientUnits="userSpaceOnUse">
<stop stop-color="#F94942"/>
<stop offset="0.505" stop-color="#FF6E68"/>
<stop offset="1" stop-color="#F94942"/>
</linearGradient>
</defs>
</svg>
