<svg width="84" height="84" viewBox="0 0 84 84" fill="none" xmlns="http://www.w3.org/2000/svg">
<path d="M10.4712 21.0082L10.4696 21.007C5.85724 17.4269 4.96301 11.5611 8.28447 6.75285C11.5952 1.96008 18.0829 -0.297593 24.0591 1.23419L10.4712 21.0082ZM10.4712 21.0082C10.7442 21.2167 11.035 21.414 11.3398 21.6029H7.95436C3.80518 21.6029 0.350098 24.4275 0.350098 27.9904V32.7075C0.350098 34.3546 1.8588 35.6394 3.69103 35.7625V76.8625C3.69103 80.4254 7.14612 83.25 11.2953 83.25H71.9049C76.0541 83.25 79.5092 80.4254 79.5092 76.8625V35.7625C81.3414 35.6394 82.8501 34.3546 82.8501 32.7075V27.9904C82.8501 24.4279 79.3955 21.5941 75.2458 21.5941H71.8746M10.4712 21.0082L71.8746 21.5941M71.8746 21.5941C72.1776 21.4072 72.4663 21.2092 72.7318 20.9973C77.343 17.4172 78.237 11.5431 74.9156 6.7439C71.6048 1.95125 65.1172 -0.306342 59.1411 1.22542C56.3558 1.93755 53.8468 3.68394 51.6184 5.87496C49.4503 8.00666 47.5346 10.5725 45.8763 13.052C44.6895 12.2757 43.2078 11.818 41.6053 11.818C39.9939 11.818 38.5117 12.2752 37.3331 13.0517C35.6653 10.5767 33.7472 8.01312 31.5792 5.88258C29.3509 3.6928 26.8445 1.94639 24.0592 1.23423L71.8746 21.5941ZM60.0738 3.9369L60.0739 3.93689C64.6126 2.77737 69.5564 4.53349 72.088 8.19449C74.6094 11.8407 73.966 16.2327 70.5223 18.9111C68.7643 20.2765 65.7389 21.1914 61.4709 21.6029H48.5687V21.2045C48.63 21.1518 48.6918 21.0989 48.7542 21.0455C48.937 20.889 49.124 20.729 49.3137 20.559C49.3143 20.5584 49.3149 20.5579 49.3156 20.5573L49.3339 20.5416C51.6343 18.5604 54.4786 16.1109 57.0584 14.444C58.1507 13.7421 59.2408 13.343 60.1696 13.1846C61.1085 13.0245 61.848 13.1154 62.2648 13.3474C62.6829 13.58 62.8542 13.9902 62.8841 14.4801C62.9142 14.9742 62.7954 15.5083 62.6728 15.9046L62.6725 15.9058C62.4297 16.7049 63.0087 17.455 63.858 17.6347C64.6947 17.8117 65.603 17.4089 65.8401 16.631C66.3648 14.9334 66.2132 13.6718 65.7643 12.7488C65.3181 11.8313 64.594 11.2812 64.0299 10.972C61.7115 9.7005 58.121 10.227 55.0754 12.191C52.8699 13.6087 50.5665 15.4981 48.5364 17.2335C48.4782 16.6197 48.306 16.0317 48.0394 15.4856C49.6209 13.0566 51.4385 10.4871 53.4485 8.36677C55.4947 6.20822 57.7192 4.53794 60.0738 3.9369ZM12.6673 18.9111L12.6672 18.911C9.22398 16.2415 8.58008 11.841 11.1017 8.19449C13.6333 4.53349 18.5771 2.77737 23.1158 3.93689L23.1158 3.9369C25.4705 4.53794 27.6949 6.20823 29.7398 8.36566C31.7485 10.4849 33.5635 13.0521 35.1398 15.4767C34.873 16.0233 34.7007 16.6118 34.6427 17.2262C32.6037 15.4905 30.3001 13.6004 28.1041 12.1824L28.1038 12.1822C25.0693 10.2273 21.4679 9.6914 19.1489 10.9722C18.5849 11.2814 17.861 11.8315 17.4148 12.7488C16.966 13.6717 16.8144 14.9331 17.3389 16.6304C17.575 17.4064 18.4921 17.8216 19.3229 17.6343C20.1716 17.4539 20.7498 16.6949 20.5064 15.9048L20.5063 15.9046C20.3838 15.5083 20.2649 14.9742 20.2951 14.4801C20.325 13.9905 20.496 13.5805 20.9136 13.3478C21.3314 13.1194 22.0716 13.029 23.0098 13.188C23.9386 13.3453 25.0284 13.7421 26.1204 14.4437C28.7085 16.1159 31.5633 18.5675 33.8669 20.5602C33.9624 20.6429 34.0567 20.7235 34.1496 20.803C34.3077 20.9382 34.4617 21.0699 34.6104 21.2019V21.6029H21.7188C17.4508 21.1914 14.4254 20.2765 12.6673 18.9111ZM20.2675 15.9784C20.0153 15.163 19.7527 13.7076 20.7928 13.1289L20.2675 15.9784ZM6.96464 76.8537V35.772H32.194V80.4177H11.2848H11.2839C8.85784 80.4262 6.96464 78.7802 6.96464 76.8537ZM47.7115 35.772V80.4177H35.4782V35.772H47.7115ZM33.566 32.9485V24.4176H49.6131V32.9485H33.566ZM41.5948 14.6502C43.6758 14.6502 45.2846 16.0517 45.2846 17.6882V21.5941H37.8946L37.8946 17.6896C37.8946 17.6894 37.8946 17.6892 37.8946 17.689C37.9045 16.0513 39.5147 14.6502 41.5948 14.6502ZM3.6237 32.6988V27.9816C3.6237 26.0559 5.51621 24.4176 7.94385 24.4176H30.2819V32.9485H3.97255C3.73018 32.9485 3.6237 32.8008 3.6237 32.6988ZM71.9049 80.4265H50.9956V35.772H76.225V76.8537C76.225 78.7802 74.3317 80.4265 71.9049 80.4265ZM79.566 32.6988C79.566 32.7946 79.4565 32.9485 79.2171 32.9485H52.9077V24.4176H75.2458C77.6735 24.4176 79.566 26.0559 79.566 27.9816V32.6988Z" fill="#E20707" stroke="#E20707" stroke-width="0.5"/>
</svg>
