<svg width="90" height="96" viewBox="0 0 90 96" fill="none" xmlns="http://www.w3.org/2000/svg">
<path d="M5.21914 71.1647L11.5596 89.2376C12.7392 92.5899 15.9832 94.9219 19.6695 94.9219H70.5408C74.2271 94.9219 77.4711 92.5899 78.6507 89.2376L84.9912 71.1647C87.3504 70.5817 89.1199 68.3955 89.1199 65.772C89.1199 62.857 86.9081 60.525 84.1065 60.2335L78.5033 44.0553C77.3236 40.7031 74.0797 38.3711 70.3933 38.3711H54.1735C56.0904 36.6221 57.7124 34.2901 59.0395 31.3751C62.4309 23.6504 57.5649 11.1159 46.506 14.6139C46.9483 11.6989 47.9805 7.32642 50.9295 6.45192C51.6668 6.16042 52.1092 5.43167 51.9617 4.55718C51.6668 3.82843 50.9296 3.39118 50.0448 3.53693C48.4229 3.97418 47.2432 4.99442 46.3585 6.30617C45.3263 4.70293 43.7044 3.39118 41.9349 2.51668C39.5757 1.35069 36.7741 1.05919 34.1199 1.78794C33.5301 1.93369 33.0877 2.37093 32.7928 2.95393C32.4979 3.53693 32.4979 4.11993 32.7928 4.70293C34.5623 8.78391 38.8384 11.4074 43.1145 11.4074C43.4095 11.4074 43.8518 11.4074 44.1467 11.4074C43.8518 12.5734 43.7044 13.7394 43.5569 14.6139C42.6722 14.3224 41.7875 14.0309 40.7553 13.8851C37.5113 13.4479 34.5623 14.6139 32.3505 17.3831C29.5489 21.0269 28.8116 26.8568 30.7285 31.2293C32.0556 34.1443 33.6776 36.4763 35.5944 38.2253H19.3746C15.6883 38.2253 12.4443 40.5573 11.2647 43.9095L5.6615 60.3792C3.00734 60.8165 1.09046 63.1485 1.09046 65.9177C1.09046 68.3955 2.85989 70.5817 5.21914 71.1647ZM35.7419 4.70293C37.3639 4.41143 38.9859 4.70293 40.4604 5.43167C41.9349 6.16042 43.262 7.32642 43.9993 8.63816C40.9027 9.07541 37.5113 7.47217 35.7419 4.70293ZM33.3826 30.2091C31.1709 24.9621 33.6776 16.8001 39.2808 16.8001C41.1977 16.8001 43.262 17.9661 44.7365 17.9661C46.8009 18.1119 51.2245 14.4681 54.9108 19.2779C57.1226 22.1929 57.7124 26.8569 56.2379 30.2091C54.321 34.4358 51.8143 37.2051 49.1601 38.0796C47.9805 38.5168 46.9483 38.3711 45.9161 37.9338C45.1789 37.4966 44.2942 37.4966 43.7043 37.9338C42.8196 38.5168 41.64 38.5168 40.4604 38.0796C37.8062 37.3508 35.2995 34.4358 33.3826 30.2091ZM36.6266 71.4562H53.2888V74.0797C53.2888 75.2457 52.4041 76.1202 51.2245 76.1202H38.691C37.5113 76.1202 36.6266 75.2457 36.6266 74.0797V71.4562ZM75.7016 88.2174C74.9644 90.4036 72.7526 92.0069 70.3933 92.0069H19.6695C17.3103 92.0069 15.0985 90.5494 14.3612 88.2174L8.4631 71.3104H33.6776V73.9339C33.6776 76.7032 35.8894 78.8894 38.691 78.8894H51.2245C54.0261 78.8894 56.2379 76.7032 56.2379 73.9339V71.3104H81.4523L75.7016 88.2174ZM14.0663 45.0755C14.8036 42.8893 17.0154 41.2861 19.3746 41.2861C38.8384 41.2861 51.2245 41.2861 70.2459 41.2861C72.6051 41.2861 74.8169 42.7435 75.5542 45.0755L80.8625 60.2335H8.90546L14.0663 45.0755ZM6.69367 63.1485H83.2217C84.6963 63.1485 85.8759 64.3145 85.8759 65.772C85.8759 67.2295 84.6963 68.3955 83.3692 68.3955H6.54621C5.07168 68.2497 4.03951 67.2295 4.03951 65.772C4.03951 64.3145 5.21914 63.1485 6.69367 63.1485Z" fill="#E20707"/>
<path fill-rule="evenodd" clip-rule="evenodd" d="M11.5596 89.2376L5.21914 71.1647C2.85989 70.5817 1.09046 68.3955 1.09046 65.9177C1.09046 63.1485 3.00734 60.8165 5.6615 60.3792L11.2647 43.9095C12.4443 40.5573 15.6883 38.2253 19.3746 38.2253H35.5944C35.379 38.0287 35.1672 37.8247 34.9592 37.6134C33.3166 35.9447 31.9064 33.8166 30.7285 31.2293C28.8116 26.8568 29.5489 21.0269 32.3505 17.3831C34.5623 14.6139 37.5113 13.4479 40.7553 13.8851C41.5593 13.9987 42.2738 14.2006 42.9685 14.4221C43.1657 14.485 43.3613 14.5494 43.5569 14.6139C43.5891 14.4228 43.6213 14.2178 43.6551 14.0019C43.6578 13.9846 43.6605 13.9672 43.6633 13.9497C43.7549 13.3636 43.8586 12.7003 44.0044 12.0193C44.0478 11.8164 44.095 11.6119 44.1467 11.4074H43.1145C38.8384 11.4074 34.5623 8.78391 32.7928 4.70293C32.4979 4.11993 32.4979 3.53693 32.7928 2.95393C33.0877 2.37093 33.5301 1.93369 34.1199 1.78794C36.7741 1.05919 39.5757 1.35069 41.9349 2.51668C43.5034 3.29184 44.9559 4.41055 45.9846 5.7713C46.1164 5.94569 46.2413 6.12405 46.3585 6.30617C46.481 6.12459 46.6091 5.9486 46.7433 5.77897C47.5783 4.72315 48.6474 3.91365 50.0448 3.53693C50.9296 3.39118 51.6668 3.82843 51.9617 4.55718C52.1092 5.43167 51.6668 6.16042 50.9295 6.45192C48.2 7.26132 47.1126 11.0673 46.6151 13.9407C46.5751 14.1718 46.5389 14.3969 46.506 14.6139C46.7247 14.5447 46.9409 14.4818 47.1548 14.425C57.7542 11.6098 62.3638 23.8031 59.0395 31.3751C57.8616 33.9624 56.4513 36.0904 54.8088 37.7591C54.6008 37.9705 54.389 38.1745 54.1735 38.3711H70.3933C74.0797 38.3711 77.3236 40.7031 78.5033 44.0553L84.1065 60.2335C86.9081 60.525 89.1199 62.857 89.1199 65.772C89.1199 68.3955 87.3504 70.5817 84.9912 71.1647L78.6507 89.2376C77.4711 92.5899 74.2271 94.9219 70.5408 94.9219H19.6695C15.9832 94.9219 12.7392 92.5899 11.5596 89.2376ZM85.463 71.6684L79.2281 89.4402C77.9618 93.0388 74.4853 95.5338 70.5408 95.5338H19.6695C15.725 95.5338 12.2487 93.0393 10.9824 89.4408L4.74735 71.6684C2.28573 70.9069 0.478516 68.5682 0.478516 65.9177C0.478516 62.9916 2.42444 60.4813 5.19607 59.8473L10.6874 43.7064C11.9538 40.1079 15.4301 37.6134 19.3746 37.6134H34.1144C32.5879 35.9554 31.2756 33.9081 30.1716 31.4829L30.168 31.4751C28.1621 26.8996 28.9266 20.8323 31.8654 17.0101L31.8722 17.0012C34.2133 14.07 37.3723 12.8117 40.837 13.2787L40.8409 13.2792C41.6567 13.3944 42.3834 13.5956 43.0655 13.8108C43.1496 13.2725 43.2472 12.6554 43.3791 12.0193H43.1145C38.6122 12.0193 34.1136 9.26872 32.2383 4.96229C31.864 4.21078 31.8669 3.42877 32.2468 2.67771C32.5934 1.99257 33.1549 1.39908 33.965 1.19588C36.7619 0.429844 39.7147 0.73681 42.206 1.96809C43.7914 2.75162 45.2809 3.87904 46.3694 5.268C47.2551 4.19252 48.3969 3.34738 49.8856 2.94608L49.9151 2.93811L49.9454 2.93313C51.1028 2.74244 52.1231 3.32458 52.529 4.32762L52.554 4.38955L52.5651 4.45543C52.7604 5.6132 52.162 6.62266 51.1545 7.02099L51.1294 7.03093L51.1035 7.03861C49.8896 7.39858 48.9954 8.50361 48.3388 10.0119C47.825 11.1926 47.4928 12.5396 47.2681 13.7646C49.7598 13.1546 51.9649 13.3354 53.8391 14.1047C55.9418 14.9679 57.5754 16.55 58.7177 18.4735C60.9899 22.2991 61.3777 27.5715 59.5998 31.6211L59.5965 31.6287C58.4924 34.0539 57.18 36.1012 55.6535 37.7591H70.3933C74.3379 37.7591 77.8142 40.2536 79.0805 43.8522L79.0815 43.855L84.5617 59.6781C87.4776 60.1686 89.7318 62.6712 89.7318 65.772C89.7318 68.5532 87.9328 70.9044 85.463 71.6684ZM49.1601 38.0796C51.8143 37.2051 54.321 34.4358 56.2379 30.2091C57.7124 26.8569 57.1226 22.1929 54.9108 19.2779C52.2167 15.7627 49.1288 16.7628 46.8558 17.4989C46.0187 17.7701 45.2922 18.0054 44.7365 17.9661C44.0476 17.9661 43.2298 17.7116 42.3585 17.4403C41.3651 17.1311 40.302 16.8001 39.2808 16.8001C33.6776 16.8001 31.1709 24.9621 33.3826 30.2091C35.2995 34.4358 37.8062 37.3508 40.4604 38.0796C41.64 38.5168 42.8196 38.5168 43.7043 37.9338C44.2942 37.4966 45.1789 37.4966 45.9161 37.9338C46.9483 38.3711 47.9805 38.5168 49.1601 38.0796ZM46.1898 37.385C47.1038 37.7659 47.9617 37.8712 48.9474 37.5058L48.958 37.5019L48.9686 37.4984C51.3811 36.7035 53.7895 34.1247 55.6791 29.9594C57.0604 26.8154 56.503 22.3894 54.4239 19.6486C53.5642 18.5274 52.6908 17.934 51.8545 17.642C51.013 17.3483 50.1586 17.342 49.3119 17.4773C48.5186 17.604 47.7627 17.8487 47.0377 18.0833C46.9805 18.1018 46.9234 18.1203 46.8666 18.1386C46.4866 18.2612 46.108 18.3802 45.7547 18.4629C45.412 18.5432 45.0561 18.5987 44.7156 18.578C43.9331 18.5731 43.0351 18.2927 42.2029 18.0329C42.1325 18.0109 42.0626 17.9891 41.9933 17.9676C41.0431 17.673 40.133 17.4121 39.2808 17.4121C36.8303 17.4121 34.9724 19.1897 33.9713 21.7592C32.9725 24.3226 32.9097 27.5049 33.9434 29.9639C34.883 32.0342 35.957 33.7606 37.1025 35.0496C38.2521 36.3433 39.4466 37.1666 40.6224 37.4895L40.6481 37.4965L40.6731 37.5058C41.7384 37.9007 42.6909 37.8617 43.3556 37.4307C44.1693 36.8385 45.297 36.8734 46.1898 37.385ZM75.1218 88.0219L80.5978 71.9224H56.8498V73.9339C56.8498 77.0478 54.3573 79.5014 51.2245 79.5014H38.691C35.5581 79.5014 33.0656 77.0478 33.0656 73.9339V71.9224H9.32469L14.942 88.0243L14.9447 88.0329C15.5946 90.0885 17.5535 91.3949 19.6695 91.3949H70.3933C72.4906 91.3949 74.4686 89.9586 75.1218 88.0219ZM14.3612 88.2174C15.0985 90.5494 17.3103 92.0069 19.6695 92.0069H70.3933C72.7526 92.0069 74.9644 90.4036 75.7016 88.2174L81.4523 71.3104H56.2379V73.9339C56.2379 76.7032 54.0261 78.8894 51.2245 78.8894H38.691C35.8894 78.8894 33.6776 76.7032 33.6776 73.9339V71.3104H8.4631L14.3612 88.2174ZM14.6462 45.2711L14.6456 45.2728L9.76025 59.6215H79.9998L74.9735 45.2689L74.9707 45.26C74.3208 43.2044 72.3619 41.898 70.2459 41.898H19.3746C17.2773 41.898 15.2993 43.3343 14.6462 45.2711ZM75.5542 45.0755C74.8169 42.7435 72.6051 41.2861 70.2459 41.2861H19.3746C17.0154 41.2861 14.8036 42.8893 14.0663 45.0755L8.90546 60.2335H80.8625L75.5542 45.0755ZM36.4183 4.61474C36.1931 4.63312 35.9675 4.66238 35.7419 4.70293C35.8644 4.89462 35.9946 5.08072 36.132 5.26095C37.8361 7.49634 40.638 8.82761 43.3246 8.70129C43.5505 8.69067 43.7757 8.66974 43.9993 8.63816C43.89 8.44379 43.7678 8.25262 43.6341 8.06559C42.8655 6.99047 41.7164 6.05243 40.4604 5.43167C39.191 4.80429 37.8123 4.50099 36.4183 4.61474ZM36.8715 5.2044C38.3817 6.98665 40.6636 8.07016 42.8881 8.09702C42.1959 7.24876 41.2386 6.4989 40.1893 5.98027C39.1332 5.45835 38.0076 5.18265 36.8715 5.2044ZM52.6769 72.0681H37.2386V74.0797C37.2386 74.901 37.8426 75.5082 38.691 75.5082H51.2245C52.0728 75.5082 52.6769 74.901 52.6769 74.0797V72.0681ZM83.2217 63.7604H6.69367C5.55038 63.7604 4.65145 64.6591 4.65145 65.772C4.65145 66.8686 5.3943 67.6552 6.57775 67.7835H83.3692C84.3425 67.7835 85.264 66.9075 85.264 65.772C85.264 64.6591 84.365 63.7604 83.2217 63.7604ZM6.54621 68.3955H83.3692C84.6963 68.3955 85.8759 67.2295 85.8759 65.772C85.8759 64.3145 84.6963 63.1485 83.2217 63.1485H6.69367C5.21914 63.1485 4.03951 64.3145 4.03951 65.772C4.03951 67.2295 5.07168 68.2497 6.54621 68.3955ZM36.6266 71.4562V74.0797C36.6266 75.2457 37.5113 76.1202 38.691 76.1202H51.2245C52.4041 76.1202 53.2888 75.2457 53.2888 74.0797V71.4562H36.6266Z" fill="#E20707"/>
</svg>
