<svg width="55" height="56" viewBox="0 0 55 56" fill="none" xmlns="http://www.w3.org/2000/svg">
<path d="M47.8823 47.8177C50.015 45.5431 50.015 42.5102 47.8823 40.2939L42.0456 34.2283C41.0354 33.1201 39.8006 32.5369 38.4537 32.5369C37.1629 32.5369 35.9282 33.1201 34.8618 34.2283L31.4945 37.7277C31.2139 37.5527 30.9333 37.4361 30.6526 37.2611C30.2598 37.0861 29.923 36.8529 29.5863 36.6779C26.4434 34.6366 23.5812 31.8953 20.8873 28.4543C19.5403 26.7045 18.6424 25.2465 18.025 23.73C18.8669 22.9135 19.7087 22.0387 20.4944 21.2221C20.775 20.9305 21.1118 20.5806 21.3924 20.2889C22.4587 19.1808 23.0761 17.8394 23.0761 16.4979C23.0761 15.1565 22.5148 13.8733 21.3924 12.7069L18.5301 9.67405C18.1934 9.3241 17.8567 8.97416 17.576 8.62422C16.9587 7.92434 16.2852 7.22445 15.6118 6.58289C14.6015 5.53307 13.3668 4.94983 12.076 4.94983C10.7852 4.94983 9.5505 5.53307 8.48417 6.58289L4.83619 10.3739C3.48925 11.7737 2.70353 13.4651 2.53516 15.4481C2.31067 18.6559 3.20863 21.6304 3.8821 23.6134C5.56579 28.3959 8.14743 32.8868 11.9638 37.6694C16.622 43.4434 22.1781 47.9343 28.52 51.1421C30.9333 52.3669 34.1884 53.7667 37.8364 54C38.0608 54 38.2853 54 38.5098 54C40.9231 54 42.9996 53.0668 44.5711 51.2588L44.6272 51.2005C45.1884 50.5006 45.8058 49.859 46.4793 49.2175C46.9844 48.8092 47.4333 48.3426 47.8823 47.8177ZM44.5711 47.1761C43.8976 47.876 43.168 48.5759 42.5507 49.3924C41.4843 50.6172 40.1935 51.1421 38.5659 51.1421C38.3976 51.1421 38.2292 51.1421 38.0608 51.1421C34.918 50.8505 31.9996 49.6257 29.7547 48.5176C23.7495 45.4847 18.5301 41.2271 14.1526 35.803C10.5607 31.3121 8.14743 27.1128 6.51987 22.6219C5.50966 19.8807 5.17293 17.7227 5.3413 15.7397C5.45354 14.4566 5.95865 13.4068 6.80049 12.4736L10.3923 8.74087C10.8974 8.21596 11.4587 7.92434 12.0199 7.92434C12.6934 7.92434 13.2546 8.3326 13.6475 8.74087C14.3209 9.38243 14.8822 10.024 15.5556 10.7239C15.8924 11.0738 16.2291 11.4238 16.5658 11.7737L19.4281 14.7482C19.9893 15.3314 20.2699 15.9147 20.2699 16.4979C20.2699 17.0811 19.9893 17.6644 19.4281 18.2476C19.1475 18.5392 18.8107 18.8892 18.5301 19.1808C17.6322 20.114 16.7903 20.9888 15.8924 21.8637L15.8362 21.922C14.9383 22.8552 15.1067 23.7884 15.275 24.3716C15.275 24.4299 15.275 24.4299 15.3311 24.4882C16.0607 26.3546 17.1271 28.1626 18.7546 30.2623C21.673 33.995 24.7598 36.9112 28.1271 39.1275C28.5761 39.4191 29.0251 39.6524 29.4179 39.8857C29.8108 40.0607 30.1475 40.2939 30.4843 40.4689C30.5404 40.4689 30.5404 40.5272 30.5965 40.5272C30.9333 40.7022 31.27 40.8189 31.6067 40.8189C32.4486 40.8189 33.0098 40.2356 33.1782 40.0607L36.8261 36.2696C37.1629 35.9197 37.7802 35.4531 38.4537 35.4531C39.1272 35.4531 39.6323 35.9197 40.0251 36.2696L45.8619 42.3353C47.2088 43.735 46.5915 45.0182 45.8058 45.8347C45.469 46.3013 45.0201 46.7095 44.5711 47.1761ZM28.4077 12.5902C28.52 11.7737 29.2496 11.2488 30.0353 11.4238C33.4027 12.007 36.4333 13.6401 38.8466 16.2063C41.2598 18.7725 42.8313 21.922 43.4486 25.3631C43.5609 26.1796 43.0558 26.9378 42.3262 27.0545C42.2701 27.0545 42.1578 27.0545 42.1017 27.0545C41.4282 27.0545 40.8109 26.5296 40.6986 25.8297C40.2496 22.9718 38.9027 20.2889 36.8823 18.2476C34.8618 16.148 32.3363 14.8065 29.5863 14.2816C28.7445 14.165 28.2394 13.4068 28.4077 12.5902ZM49.7344 25.4214C48.8925 20.2889 46.5354 15.6231 42.9996 11.8903C39.4078 8.15763 34.918 5.76636 29.9792 4.89151C29.1935 4.77486 28.6883 4.01665 28.8567 3.20012C29.0251 2.38359 29.6986 1.85868 30.4843 2.03365C35.9282 2.96683 40.9792 5.64972 44.9639 9.79069C48.9487 13.9317 51.5864 19.1808 52.4844 24.8965C52.5966 25.713 52.0915 26.4712 51.3619 26.5879C51.3058 26.5879 51.1936 26.5879 51.1374 26.5879C50.464 26.6462 49.8466 26.1213 49.7344 25.4214Z" fill="url(#paint0_linear_142_145)"/>
<defs>
<linearGradient id="paint0_linear_142_145" x1="25.5907" y1="-19.3663" x2="16.8271" y2="52.9965" gradientUnits="userSpaceOnUse">
<stop stop-color="#F94942"/>
<stop offset="0.505" stop-color="#FF6E68"/>
<stop offset="1" stop-color="#F94942"/>
</linearGradient>
</defs>
</svg>
