<svg width="56" height="57" viewBox="0 0 56 57" fill="none" xmlns="http://www.w3.org/2000/svg">
<mask id="path-1-outside-1_142_100" maskUnits="userSpaceOnUse" x="5.73633" y="-0.218079" width="45" height="58" fill="black">
<rect fill="white" x="5.73633" y="-0.218079" width="45" height="58"/>
<path fill-rule="evenodd" clip-rule="evenodd" d="M28.0002 53.2181C28.0002 53.2181 47.264 32.6849 47.264 22.0458C47.264 11.4066 38.6393 2.78192 28.0002 2.78192C17.361 2.78192 8.73633 11.4066 8.73633 22.0458C8.73633 32.6849 28.0002 53.2181 28.0002 53.2181ZM28.0006 31.5029C33.6103 31.5029 38.1579 26.9554 38.1579 21.3457C38.1579 15.7359 33.6103 11.1884 28.0006 11.1884C22.3909 11.1884 17.8433 15.7359 17.8433 21.3457C17.8433 26.9554 22.3909 31.5029 28.0006 31.5029Z"/>
</mask>
<path d="M28.0002 53.2181L26.1769 54.9286L28.0002 56.872L29.8234 54.9286L28.0002 53.2181ZM44.764 22.0458C44.764 24.071 43.806 26.8984 42.0432 30.2377C40.321 33.5 37.996 36.9491 35.6274 40.1279C33.2656 43.2975 30.8981 46.1484 29.118 48.2096C28.2292 49.2388 27.4896 50.068 26.974 50.6379C26.7163 50.9227 26.5147 51.1426 26.3787 51.2901C26.3107 51.3638 26.2591 51.4194 26.2251 51.456C26.2081 51.4743 26.1955 51.4878 26.1874 51.4964C26.1834 51.5008 26.1805 51.5039 26.1787 51.5057C26.1778 51.5067 26.1772 51.5073 26.1769 51.5076C26.1768 51.5078 26.1768 51.5078 26.1767 51.5079C26.1768 51.5078 26.1769 51.5076 28.0002 53.2181C29.8234 54.9286 29.8237 54.9283 29.824 54.9279C29.8243 54.9277 29.8247 54.9272 29.8251 54.9268C29.826 54.9258 29.8272 54.9246 29.8286 54.923C29.8316 54.9199 29.8356 54.9156 29.8408 54.91C29.8513 54.8988 29.8663 54.8827 29.8857 54.8618C29.9246 54.8201 29.9812 54.7591 30.0543 54.6798C30.2004 54.5213 30.4128 54.2897 30.6818 53.9923C31.2197 53.3977 31.9851 52.5396 32.9022 51.4776C34.7342 49.3563 37.1826 46.4089 39.6367 43.1154C42.0841 39.831 44.5751 36.1518 46.4649 32.5719C48.314 29.069 49.764 25.3401 49.764 22.0458H44.764ZM28.0002 5.28192C37.2586 5.28192 44.764 12.7873 44.764 22.0458H49.764C49.764 10.0259 40.02 0.281921 28.0002 0.281921V5.28192ZM11.2363 22.0458C11.2363 12.7873 18.7418 5.28192 28.0002 5.28192V0.281921C15.9803 0.281921 6.23633 10.0259 6.23633 22.0458H11.2363ZM28.0002 53.2181C29.8234 51.5076 29.8235 51.5078 29.8236 51.5079C29.8235 51.5078 29.8235 51.5078 29.8234 51.5076C29.8231 51.5073 29.8225 51.5067 29.8216 51.5057C29.8199 51.5039 29.817 51.5008 29.8129 51.4964C29.8048 51.4878 29.7922 51.4743 29.7752 51.456C29.7412 51.4194 29.6896 51.3638 29.6216 51.2901C29.4856 51.1426 29.284 50.9227 29.0263 50.6379C28.5108 50.068 27.7712 49.2388 26.8823 48.2096C25.1022 46.1484 22.7347 43.2975 20.3729 40.1279C18.0043 36.9491 15.6793 33.5 13.9572 30.2377C12.1944 26.8984 11.2363 24.071 11.2363 22.0458H6.23633C6.23633 25.3401 7.68628 29.069 9.53544 32.5719C11.4253 36.1518 13.9163 39.831 16.3636 43.1154C18.8177 46.4089 21.2662 49.3563 23.0981 51.4776C24.0152 52.5396 24.7806 53.3977 25.3185 53.9923C25.5875 54.2897 25.7999 54.5213 25.9461 54.6798C26.0191 54.7591 26.0757 54.8201 26.1146 54.8618C26.134 54.8827 26.149 54.8988 26.1595 54.91C26.1647 54.9156 26.1688 54.9199 26.1717 54.923C26.1731 54.9246 26.1743 54.9258 26.1752 54.9268C26.1756 54.9272 26.1761 54.9277 26.1763 54.9279C26.1766 54.9283 26.1769 54.9286 28.0002 53.2181ZM35.6579 21.3457C35.6579 25.5747 32.2296 29.0029 28.0006 29.0029V34.0029C34.991 34.0029 40.6579 28.3361 40.6579 21.3457H35.6579ZM28.0006 13.6884C32.2296 13.6884 35.6579 17.1167 35.6579 21.3457H40.6579C40.6579 14.3552 34.991 8.68836 28.0006 8.68836V13.6884ZM20.3433 21.3457C20.3433 17.1167 23.7716 13.6884 28.0006 13.6884V8.68836C21.0102 8.68836 15.3433 14.3552 15.3433 21.3457H20.3433ZM28.0006 29.0029C23.7716 29.0029 20.3433 25.5747 20.3433 21.3457H15.3433C15.3433 28.3361 21.0102 34.0029 28.0006 34.0029V29.0029Z" fill="url(#paint0_linear_142_100)" mask="url(#path-1-outside-1_142_100)"/>
<defs>
<linearGradient id="paint0_linear_142_100" x1="26.5289" y1="-17.9419" x2="15.9191" y2="51.6568" gradientUnits="userSpaceOnUse">
<stop stop-color="#F94942"/>
<stop offset="0.505" stop-color="#FF6E68"/>
<stop offset="1" stop-color="#F94942"/>
</linearGradient>
</defs>
</svg>
