<svg width="56" height="56" viewBox="0 0 56 56" fill="none" xmlns="http://www.w3.org/2000/svg">
<path d="M26.634 28.0001C26.6341 28.3623 26.778 28.7097 27.0342 28.9658L33.8431 35.7747L33.8446 35.7761C34.1013 36.0294 34.4478 36.1708 34.8084 36.1696C35.169 36.1684 35.5145 36.0246 35.7695 35.7696C36.0245 35.5146 36.1683 35.1691 36.1696 34.8085C36.1708 34.4479 36.0294 34.1014 35.7761 33.8446L29.3659 27.4344V18.5511C29.3659 18.1888 29.2219 17.8414 28.9658 17.5852C28.7096 17.329 28.3622 17.1851 27.9999 17.1851C27.6377 17.1851 27.2902 17.329 27.0341 17.5852C26.7779 17.8414 26.634 18.1888 26.634 18.5511V28.0001Z" fill="url(#paint0_linear_142_105)"/>
<path d="M28.9658 11.4202C29.2219 11.164 29.3658 10.8166 29.3659 10.4543V8.83488C29.3659 8.47262 29.2219 8.12519 28.9658 7.86902C28.7096 7.61286 28.3622 7.46895 27.9999 7.46895C27.6377 7.46895 27.2902 7.61286 27.0341 7.86902C26.7779 8.12519 26.634 8.47262 26.634 8.83488V10.4543C26.634 10.8166 26.7779 11.164 27.0341 11.4202C27.2902 11.6763 27.6377 11.8202 27.9999 11.8203C28.3622 11.8202 28.7096 11.6763 28.9658 11.4202Z" fill="url(#paint1_linear_142_105)"/>
<path d="M27.0341 45.2848C26.7779 45.5409 26.634 45.8883 26.634 46.2506V47.8706C26.634 48.2329 26.7779 48.5803 27.0341 48.8364C27.2902 49.0926 27.6377 49.2365 27.9999 49.2365C28.3622 49.2365 28.7096 49.0926 28.9658 48.8364C29.2219 48.5803 29.3659 48.2329 29.3659 47.8706V46.2506C29.3658 45.8883 29.2219 45.5409 28.9658 45.2848C28.7096 45.0286 28.3622 44.8847 27.9999 44.8847C27.6377 44.8847 27.2902 45.0286 27.0341 45.2848Z" fill="url(#paint2_linear_142_105)"/>
<path d="M10.1019 26.9865H8.4825C8.12023 26.9865 7.7728 27.1304 7.51664 27.3866C7.26047 27.6428 7.11656 27.9902 7.11656 28.3525C7.11656 28.7147 7.26047 29.0622 7.51664 29.3183C7.7728 29.5745 8.12023 29.7184 8.4825 29.7184H10.1019C10.4642 29.7184 10.8116 29.5745 11.0678 29.3183C11.324 29.0622 11.4679 28.7147 11.4679 28.3525C11.4679 27.9902 11.324 27.6428 11.0678 27.3866C10.8116 27.1304 10.4641 26.9865 10.1019 26.9865Z" fill="url(#paint3_linear_142_105)"/>
<path d="M45.8981 29.7184H47.5175C47.8798 29.7184 48.2272 29.5745 48.4834 29.3183C48.7396 29.0622 48.8835 28.7147 48.8835 28.3525C48.8835 27.9902 48.7396 27.6428 48.4834 27.3866C48.2272 27.1304 47.8798 26.9865 47.5175 26.9865H45.8981C45.5358 26.9865 45.1884 27.1305 44.9322 27.3866C44.6761 27.6428 44.5321 27.9902 44.5321 28.3525C44.5321 28.7147 44.6761 29.0622 44.9322 29.3183C45.1884 29.5745 45.5358 29.7184 45.8981 29.7184Z" fill="url(#paint4_linear_142_105)"/>
<path fill-rule="evenodd" clip-rule="evenodd" d="M28 3C23.0555 3 18.222 4.46622 14.1108 7.21326C9.99953 9.96029 6.79521 13.8648 4.90302 18.4329C3.01083 23.0011 2.51575 28.0277 3.48038 32.8773C4.44501 37.7268 6.82603 42.1814 10.3223 45.6777C13.8187 49.174 18.2732 51.555 23.1228 52.5196C27.9723 53.4843 32.9989 52.9892 37.5671 51.097C42.1352 49.2048 46.0397 46.0005 48.7867 41.8893C51.5338 37.778 53 32.9445 53 28C52.9925 21.372 50.3562 15.0172 45.6695 10.3305C40.9828 5.64378 34.628 3.00749 28 3ZM27.9997 50.2681C23.5956 50.2681 19.2904 48.9621 15.6285 46.5153C11.9665 44.0684 9.11236 40.5906 7.42694 36.5216C5.74152 32.4527 5.30053 27.9753 6.15975 23.6557C7.01897 19.3361 9.13981 15.3683 12.2541 12.2541C15.3683 9.1398 19.3361 7.01896 23.6557 6.15974C27.9753 5.30052 32.4527 5.7415 36.5217 7.42693C40.5906 9.11235 44.0684 11.9665 46.5153 15.6285C48.9621 19.2904 50.2681 23.5956 50.2681 27.9997C50.2614 33.9035 47.9131 39.5637 43.7384 43.7384C39.5637 47.9131 33.9036 50.2614 27.9997 50.2681Z" fill="url(#paint5_linear_142_105)"/>
<defs>
<linearGradient id="paint0_linear_142_105" x1="26.0907" y1="-17.5446" x2="17.9794" y2="52.111" gradientUnits="userSpaceOnUse">
<stop stop-color="#F94942"/>
<stop offset="0.505" stop-color="#FF6E68"/>
<stop offset="1" stop-color="#F94942"/>
</linearGradient>
<linearGradient id="paint1_linear_142_105" x1="26.0907" y1="-17.5446" x2="17.9794" y2="52.111" gradientUnits="userSpaceOnUse">
<stop stop-color="#F94942"/>
<stop offset="0.505" stop-color="#FF6E68"/>
<stop offset="1" stop-color="#F94942"/>
</linearGradient>
<linearGradient id="paint2_linear_142_105" x1="26.0907" y1="-17.5446" x2="17.9794" y2="52.111" gradientUnits="userSpaceOnUse">
<stop stop-color="#F94942"/>
<stop offset="0.505" stop-color="#FF6E68"/>
<stop offset="1" stop-color="#F94942"/>
</linearGradient>
<linearGradient id="paint3_linear_142_105" x1="26.0907" y1="-17.5446" x2="17.9794" y2="52.111" gradientUnits="userSpaceOnUse">
<stop stop-color="#F94942"/>
<stop offset="0.505" stop-color="#FF6E68"/>
<stop offset="1" stop-color="#F94942"/>
</linearGradient>
<linearGradient id="paint4_linear_142_105" x1="26.0907" y1="-17.5446" x2="17.9794" y2="52.111" gradientUnits="userSpaceOnUse">
<stop stop-color="#F94942"/>
<stop offset="0.505" stop-color="#FF6E68"/>
<stop offset="1" stop-color="#F94942"/>
</linearGradient>
<linearGradient id="paint5_linear_142_105" x1="26.0907" y1="-17.5446" x2="17.9794" y2="52.111" gradientUnits="userSpaceOnUse">
<stop stop-color="#F94942"/>
<stop offset="0.505" stop-color="#FF6E68"/>
<stop offset="1" stop-color="#F94942"/>
</linearGradient>
</defs>
</svg>
