<svg width="40" height="53" viewBox="0 0 40 53" fill="none" xmlns="http://www.w3.org/2000/svg">
<path d="M0 1.65652C0 1.21719 0.175595 0.795843 0.488156 0.485185C0.800716 0.174526 1.22464 0 1.66667 0C2.10869 0 2.53262 0.174526 2.84518 0.485185C3.15774 0.795843 3.33333 1.21719 3.33333 1.65652V13.2522H6.66667V1.65652C6.66667 1.21719 6.84226 0.795843 7.15482 0.485185C7.46738 0.174526 7.89131 0 8.33333 0C8.77536 0 9.19929 0.174526 9.51185 0.485185C9.82441 0.795843 10 1.21719 10 1.65652V13.2522H13.3333V1.65652C13.3333 1.21719 13.5089 0.795843 13.8215 0.485185C14.134 0.174526 14.558 0 15 0C15.442 0 15.866 0.174526 16.1785 0.485185C16.4911 0.795843 16.6667 1.21719 16.6667 1.65652V21.5348C16.6667 22.8528 16.1399 24.1168 15.2022 25.0488C14.2645 25.9808 12.9927 26.5044 11.6667 26.5044H11.1083L12.9167 48.0392C12.9708 48.67 12.8926 49.3052 12.6869 49.9045C12.4811 50.5037 12.1524 51.054 11.7215 51.5204C11.2906 51.9867 10.767 52.3591 10.1837 52.6138C9.6005 52.8685 8.97039 53 8.33333 53C7.69628 53 7.06617 52.8685 6.48293 52.6138C5.89968 52.3591 5.37603 51.9867 4.94515 51.5204C4.51426 51.054 4.18554 50.5037 3.97981 49.9045C3.77407 49.3052 3.69582 48.67 3.75 48.0392L5.55833 26.5044H5C3.67392 26.5044 2.40215 25.9808 1.46447 25.0488C0.526784 24.1168 0 22.8528 0 21.5348V1.65652ZM40 13.2522C40 5.93035 36.2667 0 31.6667 0C27.0667 0 23.3333 5.93035 23.3333 13.2522C23.3333 19.05 25.6917 23.9285 28.95 25.7258L27.0833 48.0392C27.0292 48.67 27.1074 49.3052 27.3131 49.9045C27.5189 50.5037 27.8476 51.054 28.2785 51.5204C28.7094 51.9867 29.233 52.3591 29.8163 52.6138C30.3995 52.8685 31.0296 53 31.6667 53C32.3037 53 32.9338 52.8685 33.5171 52.6138C34.1003 52.3591 34.624 51.9867 35.0549 51.5204C35.4857 51.054 35.8145 50.5037 36.0202 49.9045C36.2259 49.3052 36.3042 48.67 36.25 48.0392L34.375 25.6761C37.6417 23.9285 40 19.05 40 13.2522Z" fill="black"/>
</svg>
