<svg width="373" height="105" viewBox="0 0 373 105" fill="none" xmlns="http://www.w3.org/2000/svg">
<path d="M38.6048 28.742C39.3034 32.7445 43.8691 36.5484 45.9748 37.9678C42.1143 32.6452 41.4124 27.086 42.8162 23.7742C44.3911 20.0587 51.59 17.0323 51.239 9.93549C50.9583 4.25807 44.5709 0.946237 41.4124 0C43.2841 0.946237 47.0978 3.83226 47.3786 7.80646C47.7295 12.7742 45.6238 15.2581 42.4653 17.7419C39.3067 20.2258 37.5519 22.7097 38.6048 28.742Z" fill="#E20707"/>
<path d="M46.3259 28.3871C46.3259 32.3613 48.8995 35.957 50.1864 37.2581C47.7297 28.0323 51.5902 26.6129 55.4506 22.3549C58.539 18.9484 55.0997 14.5484 52.994 12.7742C53.4619 13.2473 54.2574 14.8323 53.6959 17.3871C52.994 20.5807 46.3259 23.4194 46.3259 28.3871Z" fill="#E20707"/>
<path d="M33.0819 20.9355C32.38 23.0646 28.8705 25.1936 29.5724 28.742C30.1217 31.519 34.1347 35.8388 36.7941 37.4937C34.1347 33.7097 32.38 29.0968 33.0819 27.3226C33.7838 25.5484 36.9424 24.1291 36.9424 19.871C36.9424 16.4646 34.1347 13.957 32.7309 13.1291C34.1347 15.9678 33.7838 18.8065 33.0819 20.9355Z" fill="#E20707"/>
<path d="M57.2054 88C57.6733 85.2796 58.6092 79.0581 58.6092 75.9355C58.6092 72.0322 61.4168 68.129 64.5754 64.9355C65.8872 63.6091 67.5623 61.793 69.1732 60.0465C71.4409 57.5881 73.5813 55.2675 74.402 54.6451C75.1444 54.0822 75.7232 53.9017 76.0978 53.8782L76.062 54.0596C76.1974 54.087 76.3401 54.1118 76.4873 54.1373C77.0574 54.2361 77.695 54.3466 78.2378 54.6676C78.559 54.8576 78.8234 55.1124 78.9952 55.4727C79.1682 55.8355 79.2663 56.3451 79.186 57.0751C79.1401 57.4927 78.8696 58.1232 78.3918 58.9221C77.9249 59.703 77.2978 60.5844 76.6078 61.4877C75.7127 62.6595 74.7372 63.8362 73.885 64.8641C73.4155 65.4305 72.9832 65.952 72.6226 66.4023L73.3737 67.017C73.7144 66.5915 74.1361 66.0827 74.5999 65.523C75.4617 64.4831 76.469 63.2677 77.3726 62.0849C78.0718 61.1696 78.7242 60.2546 79.2188 59.4276C79.7025 58.6187 80.0753 57.8298 80.1464 57.183C80.2417 56.3161 80.135 55.6134 79.8656 55.0484C79.5951 54.481 79.1795 54.0927 78.7257 53.8243C78.0133 53.403 77.1455 53.2558 76.5757 53.1594C76.9501 48.8975 77.6478 41.1661 77.9116 39.0323C78.2625 36.1935 80.0173 35.129 81.772 35.4839C83.5268 35.8387 84.5797 37.6129 84.2287 40.8064C84.0944 42.0283 83.806 45.0162 83.4814 48.3791C82.9577 53.8056 82.3397 60.2084 82.123 61.7419C81.772 64.2258 81.0701 66.7097 79.3154 68.4839C79.0215 68.781 78.6194 69.1777 78.1518 69.6388C75.8275 71.9314 71.8866 75.8184 71.5944 77C71.5503 77.1786 71.4894 77.4022 71.4175 77.6664C70.918 79.5022 69.8838 83.3025 70.1906 87.6452L57.2054 88Z" fill="#E20707"/>
<path d="M27.0906 88C26.6226 85.2796 25.6867 79.0581 25.6867 75.9355C25.6867 72.0322 22.8791 68.129 19.7206 64.9355C18.4087 63.6091 16.7336 61.793 15.1227 60.0465C12.8551 57.5881 10.7147 55.2675 9.8939 54.6451C9.15151 54.0822 8.57271 53.9017 8.19804 53.8782L8.23393 54.0596C8.09852 54.087 7.95579 54.1118 7.80855 54.1373C7.23852 54.2361 6.60085 54.3466 6.05805 54.6676C5.73684 54.8576 5.47246 55.1124 5.30067 55.4727C5.1277 55.8355 5.02964 56.3451 5.10985 57.0751C5.15575 57.4927 5.42629 58.1232 5.90404 58.9221C6.37098 59.703 6.99806 60.5844 7.68804 61.4877C8.58319 62.6595 9.55869 63.8362 10.4108 64.8641C10.8804 65.4305 11.3127 65.952 11.6733 66.4023L10.9222 67.017C10.5815 66.5915 10.1598 66.0827 9.69598 65.523C8.83418 64.4831 7.82685 63.2677 6.92329 62.0849C6.2241 61.1696 5.57166 60.2546 5.07713 59.4276C4.59342 58.6187 4.22056 57.8298 4.14947 57.183C4.0542 56.3161 4.16087 55.6134 4.43024 55.0484C4.7008 54.481 5.11638 54.0927 5.57019 53.8243C6.28264 53.403 7.1504 53.2557 7.72023 53.1594C7.34581 48.8975 6.64819 41.1661 6.38438 39.0323C6.03343 36.1935 4.27867 35.129 2.52391 35.4839C0.769147 35.8387 -0.28371 37.6129 0.0672433 40.8064C0.201519 42.0283 0.489917 45.0162 0.814503 48.3791C1.33828 53.8056 1.95628 60.2084 2.17296 61.7419C2.52391 64.2258 3.22581 66.7097 4.98057 68.4839C5.27444 68.781 5.67659 69.1777 6.14415 69.6388C8.46847 71.9314 12.4093 75.8184 12.7015 77C12.7457 77.1786 12.8065 77.4022 12.8784 77.6664C13.378 79.5022 14.4121 83.3025 14.1053 87.6452L27.0906 88Z" fill="#E20707"/>
<path fill-rule="evenodd" clip-rule="evenodd" d="M65.6283 39.7419C66.6812 38.914 69.4186 35.9806 71.9455 30.871C75.104 24.4839 78.9645 18.0968 84.5798 17.3871C90.195 16.6774 77.5608 30.8708 74.4022 34.4193C71.8753 37.258 70.7756 39.1505 70.5417 39.7419H72.2964C72.1794 46.4839 68.436 61.671 54.3979 68.4839H29.8312C23.865 64.9355 12.0029 54.1484 12.2836 39.3871L65.6283 39.7419ZM18.2843 42.2258H23.8996C23.4316 46.8387 23.4784 57.0581 27.4091 61.0323C24.1335 58.9032 17.7228 52.1613 18.2843 42.2258Z" fill="#E20707"/>
<path d="M104.291 54.1771V33.8229C104.291 32.9237 103.903 32.2834 103.125 31.9019C102.375 31.4932 102 31.0164 102 30.4714C102 29.6812 102.616 29.2861 103.849 29.2861H114.943C116.122 29.2861 116.711 29.6812 116.711 30.4714C116.711 31.0436 116.323 31.5341 115.546 31.9428C114.795 32.3243 114.42 32.951 114.42 33.8229V42.406H115.747C118.507 42.406 119.887 41.1117 119.887 38.5232V35.5395C119.887 31.1798 121.803 29 125.635 29C127.269 29 128.569 29.3815 129.533 30.1444C130.605 30.9619 131.141 32.188 131.141 33.8229C131.141 34.7766 130.793 35.6076 130.096 36.3161C129.399 36.9973 128.582 37.3379 127.644 37.3379C126.76 37.3379 126.01 37.1063 125.393 36.6431C124.67 36.0981 124.308 35.4033 124.308 34.5586C124.308 33.9591 124.442 33.5368 124.71 33.2916C125.005 33.0463 125.152 32.7875 125.152 32.515C125.152 31.8883 124.871 31.5749 124.308 31.5749C123.745 31.5749 123.33 31.7929 123.062 32.2289C122.741 32.7466 122.58 34.7084 122.58 38.1144C122.58 38.9591 122.446 39.8447 122.178 40.7711C121.883 41.7793 121.427 42.4741 120.811 42.8556C122.848 43.1281 124.549 43.7956 125.916 44.8583C127.551 46.1117 128.368 47.7057 128.368 49.6403V53.0736C128.368 53.8093 128.582 54.1771 129.011 54.1771C129.279 54.1771 129.587 53.9864 129.935 53.6049C130.284 53.2234 130.619 53.0327 130.94 53.0327C131.798 53.0327 132.226 53.4142 132.226 54.1771C132.226 54.6403 132.079 55.158 131.784 55.7302C131.222 56.7929 130.27 57.624 128.931 58.2234C127.778 58.7411 126.532 59 125.192 59C120.798 59 118.6 56.6022 118.6 51.8065C118.6 49.7084 118.6 48.7139 118.6 48.8229C118.547 47.4605 118.332 46.4932 117.957 45.921C117.609 45.3488 117.073 45.0082 116.35 44.8992C116.189 44.8719 115.546 44.8583 114.42 44.8583V54.5041C114.42 55.2125 114.795 55.7575 115.546 56.139C116.323 56.4932 116.711 56.9428 116.711 57.4877C116.711 58.3052 116.122 58.7139 114.943 58.7139H103.849C102.616 58.7139 102 58.3052 102 57.4877C102 56.9428 102.375 56.4932 103.125 56.139C103.903 55.7575 104.291 55.1035 104.291 54.1771Z" fill="#E20707"/>
<path d="M136.565 54.1771V33.8229C136.565 32.9237 136.177 32.2834 135.4 31.9019C134.649 31.4932 134.274 31.0164 134.274 30.4714C134.274 29.6812 134.891 29.2861 136.123 29.2861H148.905C156.649 29.2861 160.521 32.3106 160.521 38.3597C160.521 44.4087 156.649 47.4332 148.905 47.4332H146.694V54.1771C146.694 54.9673 147.15 55.6076 148.061 56.0981C148.972 56.5886 149.428 57.0654 149.428 57.5286C149.428 58.3188 148.718 58.7139 147.297 58.7139H136.123C134.891 58.7139 134.274 58.3052 134.274 57.4877C134.274 56.9973 134.649 56.5477 135.4 56.139C136.177 55.703 136.565 55.049 136.565 54.1771ZM146.694 31.7793V44.8992H148.021C149.816 44.8992 150.714 43.6866 150.714 41.2616V35.4986C150.714 33.0191 149.816 31.7793 148.021 31.7793H146.694Z" fill="#E20707"/>
<path d="M176.027 43.1008V56.2207H177.353C179.148 56.2207 180.046 54.9809 180.046 52.5014V46.7384C180.046 44.3134 179.148 43.1008 177.353 43.1008H176.027ZM176.027 33.8229V40.6485H178.237C185.982 40.6485 189.854 43.6458 189.854 49.6403C189.854 55.6894 185.982 58.7139 178.237 58.7139H165.455C164.223 58.7139 163.606 58.3188 163.606 57.5286C163.606 56.9837 163.982 56.5204 164.732 56.139C165.509 55.7302 165.898 55.0763 165.898 54.1771V33.8229C165.898 32.951 165.509 32.3106 164.732 31.9019C163.982 31.4659 163.606 31.0027 163.606 30.5123C163.606 29.6948 164.223 29.2861 165.455 29.2861H176.63C178.05 29.2861 178.76 29.6812 178.76 30.4714C178.76 30.9346 178.304 31.4114 177.393 31.9019C176.482 32.3924 176.027 33.0327 176.027 33.8229ZM202.636 29.2861C203.841 29.2861 204.444 29.6812 204.444 30.4714C204.444 31.0436 204.056 31.5204 203.279 31.9019C202.502 32.2834 202.113 32.9237 202.113 33.8229V54.2589C202.113 55.1035 202.502 55.7166 203.279 56.0981C204.056 56.4796 204.444 56.9428 204.444 57.4877C204.444 58.3052 203.841 58.7139 202.636 58.7139H191.502C190.296 58.7139 189.693 58.3052 189.693 57.4877C189.693 56.9155 190.001 56.5068 190.617 56.2616C191.341 55.9619 191.756 55.6485 191.863 55.3215C191.944 55.0763 191.984 54.7357 191.984 54.2997V33.7003C191.984 32.8828 191.595 32.2834 190.818 31.9019C190.068 31.4932 189.693 31.0164 189.693 30.4714C189.693 29.6812 190.296 29.2861 191.502 29.2861H202.636Z" fill="#E20707"/>
<path d="M226.398 37.4196L219.926 58.7139H218.64L212.571 40.8937H212.49V51.4796C212.49 52.7875 212.705 53.7684 213.133 54.4223C213.562 55.0763 214.353 55.7166 215.505 56.3433C215.88 56.5341 216.068 56.8747 216.068 57.3651C216.068 58.2643 215.451 58.7139 214.219 58.7139H208.35C207.144 58.7139 206.541 58.2643 206.541 57.3651C206.541 56.8747 206.729 56.5341 207.104 56.3433C208.256 55.7711 209.033 55.1444 209.435 54.4632C209.864 53.782 210.079 52.7875 210.079 51.4796V34.9264C210.079 33.9455 209.77 33.1689 209.154 32.5967C209.02 32.4605 208.457 32.1199 207.466 31.5749C206.85 31.2207 206.541 30.812 206.541 30.3488C206.541 29.6403 207.091 29.2861 208.189 29.2861H218.841L222.901 40.8937L226.478 29.2861H237.049C238.282 29.2861 238.898 29.6812 238.898 30.4714C238.898 31.0436 238.51 31.5068 237.733 31.861C236.982 32.2153 236.607 32.7875 236.607 33.5777V54.5041C236.607 55.267 236.982 55.8256 237.733 56.1798C238.51 56.5068 238.898 56.9428 238.898 57.4877C238.898 58.3052 238.282 58.7139 237.049 58.7139H225.996C224.763 58.7139 224.147 58.3052 224.147 57.4877C224.147 56.97 224.535 56.5204 225.312 56.139C226.089 55.7302 226.478 55.0763 226.478 54.1771V37.4196H226.398Z" fill="#E20707"/>
<path d="M279.274 58.7139H268.221C266.988 58.7139 266.372 58.3052 266.372 57.4877C266.372 56.97 266.76 56.5204 267.538 56.139C268.315 55.7302 268.703 55.0763 268.703 54.1771V31.861H264.483C262.848 31.861 261.817 32.1335 261.388 32.6785C261.066 33.1144 260.905 34.218 260.905 35.9891V52.4605C260.905 54.6131 260.53 56.1935 259.78 57.2016C258.923 58.4005 257.476 59 255.439 59C253.804 59 252.505 58.6185 251.54 57.8556C250.468 57.0381 249.932 55.812 249.932 54.1771C249.932 53.2234 250.281 52.406 250.977 51.7248C251.674 51.0163 252.491 50.6621 253.429 50.6621C254.314 50.6621 255.064 50.8937 255.68 51.3569C256.404 51.9019 256.765 52.5967 256.765 53.4414C256.765 53.9319 256.631 54.3542 256.363 54.7084C256.122 55.0354 256.002 55.267 256.002 55.4033C256.002 56.0845 256.229 56.4251 256.685 56.4251C257.409 56.4251 257.891 56.1526 258.132 55.6076C258.373 55.0354 258.494 53.8774 258.494 52.1335V36.8065C258.494 33.9728 258.011 32.3787 257.047 32.0245C256.457 31.9428 255.854 31.861 255.238 31.7793C254.541 31.6703 254.193 31.2888 254.193 30.6349C254.193 29.7357 254.796 29.2861 256.002 29.2861H279.274C280.48 29.2861 281.083 29.6812 281.083 30.4714C281.083 31.0436 280.708 31.5068 279.958 31.861C279.207 32.2153 278.832 32.7875 278.832 33.5777V54.5041C278.832 55.267 279.234 55.8256 280.038 56.1798C280.842 56.5068 281.244 56.9428 281.244 57.4877C281.244 58.3052 280.588 58.7139 279.274 58.7139Z" fill="#E20707"/>
<path d="M289.742 58.7139H284.315C283.056 58.7139 282.426 58.2916 282.426 57.4469C282.426 56.9837 282.574 56.6839 282.868 56.5477C283.887 56.0845 284.717 55.485 285.361 54.7493C285.87 54.1771 286.339 53.2098 286.767 51.8474L291.872 35.8256C292.274 34.5722 292.475 33.5368 292.475 32.7193C292.475 32.3106 292.127 31.97 291.43 31.6975C290.733 31.3978 290.385 30.9891 290.385 30.4714C290.385 29.6812 291.001 29.2861 292.234 29.2861H301.8L308.473 54.1362C308.633 54.7902 309.116 55.4033 309.92 55.9755C310.643 56.4932 311.005 56.97 311.005 57.406C311.005 58.2779 310.228 58.7139 308.674 58.7139H298.585C297.057 58.7139 296.294 58.2507 296.294 57.3243C296.294 56.861 296.602 56.4659 297.218 56.139C297.834 55.7847 298.142 55.4578 298.142 55.158C298.142 54.8311 297.781 53.1962 297.057 50.2534H289.943C289.3 52.297 288.978 53.6185 288.978 54.218C288.978 54.9809 289.447 55.5804 290.385 56.0163C291.35 56.4523 291.832 56.9155 291.832 57.406C291.832 58.2779 291.135 58.7139 289.742 58.7139ZM294.083 37.4605L290.787 47.6785H296.494L294.083 37.4605Z" fill="#E20707"/>
<path d="M325.412 42.1608H330.114V33.3733C330.114 32.7466 329.846 32.2016 329.31 31.7384C328.801 31.248 328.547 30.7711 328.547 30.3079C328.547 29.6267 328.989 29.2861 329.873 29.2861H340.766C341.918 29.2861 342.494 29.6812 342.494 30.4714C342.494 31.0164 342.119 31.4932 341.369 31.9019C340.619 32.3106 340.243 32.951 340.243 33.8229V54.5041C340.243 55.2125 340.619 55.7575 341.369 56.139C342.119 56.4932 342.494 56.9428 342.494 57.4877C342.494 58.3052 341.918 58.7139 340.766 58.7139H329.873C328.989 58.7139 328.547 58.3597 328.547 57.6512C328.547 57.2153 328.801 56.7657 329.31 56.3025C329.846 55.812 330.114 55.2534 330.114 54.6267V44.7357H325.412V54.5858C325.412 55.3215 325.679 55.9346 326.215 56.4251C326.751 56.8883 327.019 57.297 327.019 57.6512C327.019 58.3597 326.55 58.7139 325.612 58.7139H314.76C313.581 58.7139 312.991 58.3052 312.991 57.4877C312.991 56.9428 313.366 56.4796 314.117 56.0981C314.894 55.7166 315.282 55.0763 315.282 54.1771V33.8229C315.282 32.9237 314.894 32.2834 314.117 31.9019C313.366 31.4932 312.991 31.0164 312.991 30.4714C312.991 29.6812 313.581 29.2861 314.76 29.2861H325.612C326.55 29.2861 327.019 29.6267 327.019 30.3079C327.019 30.7711 326.751 31.248 326.215 31.7384C325.679 32.2289 325.412 32.7738 325.412 33.3733V42.1608Z" fill="#E20707"/>
<path d="M371.191 58.7139H360.017C358.57 58.7139 357.847 58.3188 357.847 57.5286C357.847 57.0654 358.302 56.5886 359.213 56.0981C360.151 55.5804 360.62 54.9401 360.62 54.1771V47.2289C358.878 47.3651 357.914 47.4332 357.726 47.4332C350.411 47.4332 346.753 44.9128 346.753 39.8719V33.8229C346.753 32.9237 346.364 32.2834 345.587 31.9019C344.837 31.4932 344.462 31.0164 344.462 30.4714C344.462 29.6812 345.078 29.2861 346.311 29.2861H354.35C355.314 29.2861 355.957 29.6267 356.279 30.3079C356.493 30.7439 356.601 31.5204 356.601 32.6376V41.2616C356.601 43.7139 357.498 44.9401 359.294 44.9401H360.62V33.3733C360.62 32.7466 360.352 32.2016 359.816 31.7384C359.307 31.248 359.052 30.7711 359.052 30.3079C359.052 29.6267 359.575 29.2861 360.62 29.2861H371.191C372.397 29.2861 373 29.6812 373 30.4714C373 31.0164 372.625 31.4796 371.875 31.861C371.124 32.2425 370.749 32.8965 370.749 33.8229V54.1771C370.749 55.0763 371.124 55.7302 371.875 56.139C372.625 56.5204 373 56.97 373 57.4877C373 58.3052 372.397 58.7139 371.191 58.7139Z" fill="#E20707"/>
<path d="M102.308 91.542V85.536H103.628C105.212 83.732 106.004 80.696 106.004 76.428V72.424H116.894V85.536H118.632V91.542H116.146V88H104.794V91.542H102.308ZM106.752 85.536H114.122V74.844H108.688V76.714C108.688 80.7327 108.043 83.6733 106.752 85.536ZM119.431 82.676C119.431 81.048 119.981 79.7207 121.081 78.694C122.181 77.6527 123.545 77.132 125.173 77.132C126.801 77.132 128.165 77.6527 129.265 78.694C130.365 79.7207 130.915 81.048 130.915 82.676C130.915 84.3187 130.358 85.668 129.243 86.724C128.143 87.78 126.786 88.308 125.173 88.308C123.56 88.308 122.196 87.78 121.081 86.724C119.981 85.668 119.431 84.3187 119.431 82.676ZM122.907 80.3C122.379 80.9747 122.115 81.7667 122.115 82.676C122.115 83.5853 122.379 84.3847 122.907 85.074C123.435 85.7633 124.19 86.108 125.173 86.108C126.156 86.108 126.911 85.7633 127.439 85.074C127.967 84.3847 128.231 83.5853 128.231 82.676C128.231 81.7667 127.967 80.9747 127.439 80.3C126.911 79.6253 126.156 79.288 125.173 79.288C124.19 79.288 123.435 79.6253 122.907 80.3ZM141.835 78.782L140.031 80.366C139.825 80.0727 139.517 79.8307 139.107 79.64C138.696 79.4347 138.278 79.332 137.853 79.332C136.943 79.332 136.232 79.6767 135.719 80.366C135.205 81.0407 134.949 81.8253 134.949 82.72C134.949 83.6293 135.213 84.4213 135.741 85.096C136.269 85.7707 137.002 86.108 137.941 86.108C138.909 86.108 139.649 85.7927 140.163 85.162L141.813 86.834C140.903 87.8167 139.605 88.308 137.919 88.308C136.305 88.308 134.949 87.802 133.849 86.79C132.749 85.778 132.199 84.4213 132.199 82.72C132.199 81.048 132.741 79.6987 133.827 78.672C134.912 77.6453 136.254 77.132 137.853 77.132C138.63 77.132 139.385 77.2787 140.119 77.572C140.852 77.8653 141.424 78.2687 141.835 78.782ZM145.528 88V79.552H142.14V77.44H151.534V79.552H148.168V88H145.528ZM159.449 88V86.658H159.383C159.119 87.1273 158.687 87.516 158.085 87.824C157.499 88.1173 156.839 88.264 156.105 88.264C155.093 88.264 154.177 88 153.355 87.472C152.549 86.9293 152.145 86.1007 152.145 84.986C152.145 84.3847 152.292 83.864 152.585 83.424C152.893 82.9693 153.275 82.6173 153.729 82.368C154.184 82.1187 154.749 81.9207 155.423 81.774C156.113 81.6127 156.758 81.51 157.359 81.466C157.975 81.422 158.657 81.4 159.405 81.4V81.136C159.405 80.52 159.178 80.0433 158.723 79.706C158.269 79.3687 157.689 79.2 156.985 79.2C155.871 79.2 154.91 79.6033 154.103 80.41L152.739 78.804C153.942 77.6893 155.431 77.132 157.205 77.132C158.115 77.132 158.885 77.264 159.515 77.528C160.161 77.7773 160.652 78.1293 160.989 78.584C161.327 79.024 161.561 79.4933 161.693 79.992C161.84 80.476 161.913 81.004 161.913 81.576V88H159.449ZM159.405 83.556V83.182H158.811C156.127 83.182 154.785 83.7687 154.785 84.942C154.785 85.4113 154.961 85.7487 155.313 85.954C155.68 86.1593 156.12 86.262 156.633 86.262C157.528 86.262 158.21 86.0273 158.679 85.558C159.163 85.074 159.405 84.4067 159.405 83.556ZM164.329 88V77.44H169.785C170.416 77.44 170.98 77.506 171.479 77.638C171.992 77.77 172.454 78.056 172.865 78.496C173.276 78.9213 173.481 79.486 173.481 80.19C173.481 80.7327 173.312 81.2093 172.975 81.62C172.652 82.016 172.227 82.28 171.699 82.412V82.456C172.359 82.5587 172.894 82.8373 173.305 83.292C173.73 83.732 173.943 84.304 173.943 85.008C173.943 85.9467 173.576 86.68 172.843 87.208C172.11 87.736 171.142 88 169.939 88H164.329ZM166.969 86.108H169.455C170.672 86.108 171.281 85.6827 171.281 84.832C171.281 83.9813 170.694 83.556 169.521 83.556H166.969V86.108ZM166.969 81.664H169.477C170.445 81.664 170.929 81.2753 170.929 80.498C170.929 79.706 170.379 79.31 169.279 79.31H166.969V81.664ZM175.829 88V77.44H178.469V82.126H178.535L182.605 77.44H185.949L181.307 82.412L186.301 88H182.913L178.535 82.984H178.469V88H175.829ZM193.67 88V86.658H193.604C193.34 87.1273 192.908 87.516 192.306 87.824C191.72 88.1173 191.06 88.264 190.326 88.264C189.314 88.264 188.398 88 187.576 87.472C186.77 86.9293 186.366 86.1007 186.366 84.986C186.366 84.3847 186.513 83.864 186.806 83.424C187.114 82.9693 187.496 82.6173 187.95 82.368C188.405 82.1187 188.97 81.9207 189.644 81.774C190.334 81.6127 190.979 81.51 191.58 81.466C192.196 81.422 192.878 81.4 193.626 81.4V81.136C193.626 80.52 193.399 80.0433 192.944 79.706C192.49 79.3687 191.91 79.2 191.206 79.2C190.092 79.2 189.131 79.6033 188.324 80.41L186.96 78.804C188.163 77.6893 189.652 77.132 191.426 77.132C192.336 77.132 193.106 77.264 193.736 77.528C194.382 77.7773 194.873 78.1293 195.21 78.584C195.548 79.024 195.782 79.4933 195.914 79.992C196.061 80.476 196.134 81.004 196.134 81.576V88H193.67ZM193.626 83.556V83.182H193.032C190.348 83.182 189.006 83.7687 189.006 84.942C189.006 85.4113 189.182 85.7487 189.534 85.954C189.901 86.1593 190.341 86.262 190.854 86.262C191.749 86.262 192.431 86.0273 192.9 85.558C193.384 85.074 193.626 84.4067 193.626 83.556ZM203.522 88V72.424H213.73V74.756H206.294V78.76H209.044C210.775 78.76 212.168 79.1413 213.224 79.904C214.28 80.6667 214.808 81.8253 214.808 83.38C214.808 84.9053 214.28 86.0567 213.224 86.834C212.168 87.6113 210.782 88 209.066 88H203.522ZM206.294 85.668H208.758C210.929 85.668 212.014 84.9053 212.014 83.38C212.014 82.632 211.728 82.0673 211.156 81.686C210.599 81.29 209.799 81.092 208.758 81.092H206.294V85.668ZM216.738 88V77.44H219.378V84.26H219.422L224.042 77.44H226.902V88H224.262V81.224H224.218L219.642 88H216.738ZM232.786 88.352C230.806 88.352 229.266 87.714 228.166 86.438L229.75 84.898C230.058 85.3087 230.461 85.646 230.96 85.91C231.473 86.174 232.016 86.306 232.588 86.306C233.981 86.306 234.678 85.8587 234.678 84.964C234.678 84.4213 234.458 84.0473 234.018 83.842C233.592 83.6367 232.998 83.534 232.236 83.534H231.4V81.642H232.236C233.688 81.642 234.414 81.1947 234.414 80.3C234.414 79.5227 233.82 79.134 232.632 79.134C231.561 79.134 230.718 79.5373 230.102 80.344L228.628 78.914C229.566 77.726 231.004 77.132 232.94 77.132C234.186 77.132 235.184 77.3887 235.932 77.902C236.694 78.4153 237.076 79.1193 237.076 80.014C237.076 80.6153 236.878 81.1433 236.482 81.598C236.086 82.038 235.58 82.324 234.964 82.456V82.5C235.682 82.632 236.262 82.9253 236.702 83.38C237.142 83.8347 237.362 84.3993 237.362 85.074C237.362 86.1007 236.922 86.9073 236.042 87.494C235.176 88.066 234.091 88.352 232.786 88.352ZM239.33 88V77.44H241.97V81.422H246.414V77.44H249.054V88H246.414V83.534H241.97V88H239.33ZM253.585 81.664H258.997C258.997 80.9307 258.784 80.322 258.359 79.838C257.933 79.354 257.317 79.112 256.511 79.112C255.733 79.112 255.066 79.354 254.509 79.838C253.951 80.322 253.643 80.9307 253.585 81.664ZM261.637 82.852C261.637 83.16 261.629 83.3947 261.615 83.556H253.585C253.643 84.2893 253.966 84.9053 254.553 85.404C255.139 85.9027 255.821 86.152 256.599 86.152C257.816 86.152 258.747 85.6973 259.393 84.788L261.153 86.196C260.111 87.604 258.601 88.308 256.621 88.308C254.963 88.308 253.599 87.8093 252.529 86.812C251.473 85.8147 250.945 84.4727 250.945 82.786C250.945 81.0993 251.473 79.7353 252.529 78.694C253.585 77.6527 254.919 77.132 256.533 77.132C258.058 77.132 259.29 77.6233 260.229 78.606C261.167 79.5887 261.637 81.004 261.637 82.852ZM272.553 78.782L270.749 80.366C270.544 80.0727 270.236 79.8307 269.825 79.64C269.415 79.4347 268.997 79.332 268.571 79.332C267.662 79.332 266.951 79.6767 266.437 80.366C265.924 81.0407 265.667 81.8253 265.667 82.72C265.667 83.6293 265.931 84.4213 266.459 85.096C266.987 85.7707 267.721 86.108 268.659 86.108C269.627 86.108 270.368 85.7927 270.881 85.162L272.531 86.834C271.622 87.8167 270.324 88.308 268.637 88.308C267.024 88.308 265.667 87.802 264.567 86.79C263.467 85.778 262.917 84.4213 262.917 82.72C262.917 81.048 263.46 79.6987 264.545 78.672C265.631 77.6453 266.973 77.132 268.571 77.132C269.349 77.132 270.104 77.2787 270.837 77.572C271.571 77.8653 272.143 78.2687 272.553 78.782ZM278.874 88.154C278.126 88.154 277.51 88.0807 277.026 87.934L277.312 85.492C277.62 85.5947 277.935 85.646 278.258 85.646C279.358 85.646 280.15 85.0007 280.634 83.71C281.132 82.4193 281.382 80.1387 281.382 76.868V72.424H292.096V88H289.324V74.844H284.044V77.242C284.044 81.07 283.64 83.8493 282.834 85.58C282.042 87.296 280.722 88.154 278.874 88.154ZM301.281 88V86.658H301.215C300.951 87.1273 300.519 87.516 299.917 87.824C299.331 88.1173 298.671 88.264 297.937 88.264C296.925 88.264 296.009 88 295.187 87.472C294.381 86.9293 293.977 86.1007 293.977 84.986C293.977 84.3847 294.124 83.864 294.417 83.424C294.725 82.9693 295.107 82.6173 295.561 82.368C296.016 82.1187 296.581 81.9207 297.255 81.774C297.945 81.6127 298.59 81.51 299.191 81.466C299.807 81.422 300.489 81.4 301.237 81.4V81.136C301.237 80.52 301.01 80.0433 300.555 79.706C300.101 79.3687 299.521 79.2 298.817 79.2C297.703 79.2 296.742 79.6033 295.935 80.41L294.571 78.804C295.774 77.6893 297.263 77.132 299.037 77.132C299.947 77.132 300.717 77.264 301.347 77.528C301.993 77.7773 302.484 78.1293 302.821 78.584C303.159 79.024 303.393 79.4933 303.525 79.992C303.672 80.476 303.745 81.004 303.745 81.576V88H301.281ZM301.237 83.556V83.182H300.643C297.959 83.182 296.617 83.7687 296.617 84.942C296.617 85.4113 296.793 85.7487 297.145 85.954C297.512 86.1593 297.952 86.262 298.465 86.262C299.36 86.262 300.042 86.0273 300.511 85.558C300.995 85.074 301.237 84.4067 301.237 83.556ZM306.161 88V77.44H308.801V81.422H313.245V77.44H315.885V88H313.245V83.534H308.801V88H306.161ZM324.464 88V84.062C323.613 84.282 322.682 84.392 321.67 84.392C319.235 84.392 318.018 83.2847 318.018 81.07V77.44H320.548V80.322C320.548 81.0847 320.702 81.6053 321.01 81.884C321.332 82.148 321.838 82.28 322.528 82.28C323.07 82.28 323.716 82.192 324.464 82.016V77.44H327.104V88H324.464ZM331.637 81.664H337.049C337.049 80.9307 336.836 80.322 336.411 79.838C335.985 79.354 335.369 79.112 334.563 79.112C333.785 79.112 333.118 79.354 332.561 79.838C332.003 80.322 331.695 80.9307 331.637 81.664ZM339.689 82.852C339.689 83.16 339.681 83.3947 339.667 83.556H331.637C331.695 84.2893 332.018 84.9053 332.605 85.404C333.191 85.9027 333.873 86.152 334.651 86.152C335.868 86.152 336.799 85.6973 337.445 84.788L339.205 86.196C338.163 87.604 336.653 88.308 334.673 88.308C333.015 88.308 331.651 87.8093 330.581 86.812C329.525 85.8147 328.997 84.4727 328.997 82.786C328.997 81.0993 329.525 79.7353 330.581 78.694C331.637 77.6527 332.971 77.132 334.585 77.132C336.11 77.132 337.342 77.6233 338.281 78.606C339.219 79.5887 339.689 81.004 339.689 82.852ZM346.623 75.592C345.641 75.592 344.856 75.3207 344.269 74.778C343.683 74.2207 343.323 73.458 343.191 72.49L344.621 72.336C344.695 72.8347 344.907 73.216 345.259 73.48C345.626 73.744 346.081 73.876 346.623 73.876C347.166 73.876 347.621 73.744 347.987 73.48C348.354 73.216 348.574 72.8347 348.647 72.336L350.055 72.622C349.938 73.5607 349.586 74.294 348.999 74.822C348.413 75.3353 347.621 75.592 346.623 75.592ZM341.585 88V77.44H344.225V84.26H344.269L348.889 77.44H351.749V88H349.109V81.224H349.065L344.489 88H341.585Z" fill="#0C0E0D" fill-opacity="0.64"/>
</svg>
