<svg width="400" height="105" viewBox="0 0 400 105" fill="none" xmlns="http://www.w3.org/2000/svg">
<path d="M38.6048 28.742C39.3034 32.7445 43.8691 36.5484 45.9748 37.9678C42.1143 32.6452 41.4124 27.086 42.8162 23.7742C44.3911 20.0587 51.59 17.0323 51.239 9.93549C50.9583 4.25807 44.5709 0.946237 41.4124 0C43.2841 0.946237 47.0978 3.83226 47.3786 7.80646C47.7295 12.7742 45.6238 15.2581 42.4653 17.7419C39.3067 20.2258 37.5519 22.7097 38.6048 28.742Z" fill="white"/>
<path d="M38.6048 28.742C39.3034 32.7445 43.8691 36.5484 45.9748 37.9678C42.1143 32.6452 41.4124 27.086 42.8162 23.7742C44.3911 20.0587 51.59 17.0323 51.239 9.93549C50.9583 4.25807 44.5709 0.946237 41.4124 0C43.2841 0.946237 47.0978 3.83226 47.3786 7.80646C47.7295 12.7742 45.6238 15.2581 42.4653 17.7419C39.3067 20.2258 37.5519 22.7097 38.6048 28.742Z" fill="url(#paint0_linear_56_15150)"/>
<path d="M46.3259 28.3871C46.3259 32.3613 48.8995 35.957 50.1864 37.2581C47.7297 28.0323 51.5902 26.6129 55.4506 22.3549C58.539 18.9484 55.0997 14.5484 52.994 12.7742C53.4619 13.2473 54.2574 14.8323 53.6959 17.3871C52.994 20.5807 46.3259 23.4194 46.3259 28.3871Z" fill="white"/>
<path d="M46.3259 28.3871C46.3259 32.3613 48.8995 35.957 50.1864 37.2581C47.7297 28.0323 51.5902 26.6129 55.4506 22.3549C58.539 18.9484 55.0997 14.5484 52.994 12.7742C53.4619 13.2473 54.2574 14.8323 53.6959 17.3871C52.994 20.5807 46.3259 23.4194 46.3259 28.3871Z" fill="url(#paint1_linear_56_15150)"/>
<path d="M33.0819 20.9355C32.38 23.0646 28.8705 25.1936 29.5724 28.742C30.1217 31.519 34.1347 35.8388 36.7941 37.4937C34.1347 33.7097 32.38 29.0968 33.0819 27.3226C33.7838 25.5484 36.9424 24.1291 36.9424 19.871C36.9424 16.4646 34.1347 13.957 32.7309 13.1291C34.1347 15.9678 33.7838 18.8065 33.0819 20.9355Z" fill="white"/>
<path d="M33.0819 20.9355C32.38 23.0646 28.8705 25.1936 29.5724 28.742C30.1217 31.519 34.1347 35.8388 36.7941 37.4937C34.1347 33.7097 32.38 29.0968 33.0819 27.3226C33.7838 25.5484 36.9424 24.1291 36.9424 19.871C36.9424 16.4646 34.1347 13.957 32.7309 13.1291C34.1347 15.9678 33.7838 18.8065 33.0819 20.9355Z" fill="url(#paint2_linear_56_15150)"/>
<path d="M57.2054 88C57.6733 85.2796 58.6092 79.0581 58.6092 75.9355C58.6092 72.0322 61.4168 68.129 64.5754 64.9355C65.8872 63.6091 67.5623 61.793 69.1732 60.0465C71.4409 57.5881 73.5813 55.2675 74.402 54.6451C75.1444 54.0822 75.7232 53.9017 76.0978 53.8782L76.062 54.0596C76.1974 54.087 76.3401 54.1118 76.4873 54.1373C77.0574 54.2361 77.695 54.3466 78.2378 54.6676C78.559 54.8576 78.8234 55.1124 78.9952 55.4727C79.1682 55.8355 79.2663 56.3451 79.186 57.0751C79.1401 57.4927 78.8696 58.1232 78.3918 58.9221C77.9249 59.703 77.2978 60.5844 76.6078 61.4877C75.7127 62.6595 74.7372 63.8362 73.885 64.8641C73.4155 65.4305 72.9832 65.952 72.6226 66.4023L73.3737 67.017C73.7144 66.5915 74.1361 66.0827 74.5999 65.523C75.4617 64.4831 76.469 63.2677 77.3726 62.0849C78.0718 61.1696 78.7242 60.2546 79.2188 59.4276C79.7025 58.6187 80.0753 57.8298 80.1464 57.183C80.2417 56.3161 80.135 55.6134 79.8656 55.0484C79.5951 54.481 79.1795 54.0927 78.7257 53.8243C78.0133 53.403 77.1455 53.2558 76.5757 53.1594C76.9501 48.8975 77.6478 41.1661 77.9116 39.0323C78.2625 36.1935 80.0173 35.129 81.772 35.4839C83.5268 35.8387 84.5797 37.6129 84.2287 40.8064C84.0944 42.0283 83.806 45.0162 83.4814 48.3791C82.9577 53.8056 82.3397 60.2084 82.123 61.7419C81.772 64.2258 81.0701 66.7097 79.3154 68.4839C79.0215 68.781 78.6194 69.1777 78.1518 69.6388C75.8275 71.9314 71.8866 75.8184 71.5944 77C71.5503 77.1786 71.4894 77.4022 71.4175 77.6664C70.918 79.5022 69.8838 83.3025 70.1906 87.6452L57.2054 88Z" fill="white"/>
<path d="M57.2054 88C57.6733 85.2796 58.6092 79.0581 58.6092 75.9355C58.6092 72.0322 61.4168 68.129 64.5754 64.9355C65.8872 63.6091 67.5623 61.793 69.1732 60.0465C71.4409 57.5881 73.5813 55.2675 74.402 54.6451C75.1444 54.0822 75.7232 53.9017 76.0978 53.8782L76.062 54.0596C76.1974 54.087 76.3401 54.1118 76.4873 54.1373C77.0574 54.2361 77.695 54.3466 78.2378 54.6676C78.559 54.8576 78.8234 55.1124 78.9952 55.4727C79.1682 55.8355 79.2663 56.3451 79.186 57.0751C79.1401 57.4927 78.8696 58.1232 78.3918 58.9221C77.9249 59.703 77.2978 60.5844 76.6078 61.4877C75.7127 62.6595 74.7372 63.8362 73.885 64.8641C73.4155 65.4305 72.9832 65.952 72.6226 66.4023L73.3737 67.017C73.7144 66.5915 74.1361 66.0827 74.5999 65.523C75.4617 64.4831 76.469 63.2677 77.3726 62.0849C78.0718 61.1696 78.7242 60.2546 79.2188 59.4276C79.7025 58.6187 80.0753 57.8298 80.1464 57.183C80.2417 56.3161 80.135 55.6134 79.8656 55.0484C79.5951 54.481 79.1795 54.0927 78.7257 53.8243C78.0133 53.403 77.1455 53.2558 76.5757 53.1594C76.9501 48.8975 77.6478 41.1661 77.9116 39.0323C78.2625 36.1935 80.0173 35.129 81.772 35.4839C83.5268 35.8387 84.5797 37.6129 84.2287 40.8064C84.0944 42.0283 83.806 45.0162 83.4814 48.3791C82.9577 53.8056 82.3397 60.2084 82.123 61.7419C81.772 64.2258 81.0701 66.7097 79.3154 68.4839C79.0215 68.781 78.6194 69.1777 78.1518 69.6388C75.8275 71.9314 71.8866 75.8184 71.5944 77C71.5503 77.1786 71.4894 77.4022 71.4175 77.6664C70.918 79.5022 69.8838 83.3025 70.1906 87.6452L57.2054 88Z" fill="url(#paint3_linear_56_15150)"/>
<path d="M27.0906 88C26.6226 85.2796 25.6867 79.0581 25.6867 75.9355C25.6867 72.0322 22.8791 68.129 19.7206 64.9355C18.4087 63.6091 16.7336 61.793 15.1227 60.0465C12.8551 57.5881 10.7147 55.2675 9.8939 54.6451C9.15151 54.0822 8.57271 53.9017 8.19804 53.8782L8.23393 54.0596C8.09852 54.087 7.95579 54.1118 7.80855 54.1373C7.23852 54.2361 6.60085 54.3466 6.05805 54.6676C5.73684 54.8576 5.47246 55.1124 5.30067 55.4727C5.1277 55.8355 5.02964 56.3451 5.10985 57.0751C5.15575 57.4927 5.42629 58.1232 5.90404 58.9221C6.37098 59.703 6.99806 60.5844 7.68804 61.4877C8.58319 62.6595 9.55869 63.8362 10.4108 64.8641C10.8804 65.4305 11.3127 65.952 11.6733 66.4023L10.9222 67.017C10.5815 66.5915 10.1598 66.0827 9.69598 65.523C8.83418 64.4831 7.82685 63.2677 6.92329 62.0849C6.2241 61.1696 5.57166 60.2546 5.07713 59.4276C4.59342 58.6187 4.22056 57.8298 4.14947 57.183C4.0542 56.3161 4.16087 55.6134 4.43024 55.0484C4.7008 54.481 5.11638 54.0927 5.57019 53.8243C6.28264 53.403 7.1504 53.2557 7.72023 53.1594C7.34581 48.8975 6.64819 41.1661 6.38438 39.0323C6.03343 36.1935 4.27867 35.129 2.52391 35.4839C0.769147 35.8387 -0.28371 37.6129 0.0672433 40.8064C0.201519 42.0283 0.489917 45.0162 0.814503 48.3791C1.33828 53.8056 1.95628 60.2084 2.17296 61.7419C2.52391 64.2258 3.22581 66.7097 4.98057 68.4839C5.27444 68.781 5.67659 69.1777 6.14415 69.6388C8.46847 71.9314 12.4093 75.8184 12.7015 77C12.7457 77.1786 12.8065 77.4022 12.8784 77.6664C13.378 79.5022 14.4121 83.3025 14.1053 87.6452L27.0906 88Z" fill="white"/>
<path d="M27.0906 88C26.6226 85.2796 25.6867 79.0581 25.6867 75.9355C25.6867 72.0322 22.8791 68.129 19.7206 64.9355C18.4087 63.6091 16.7336 61.793 15.1227 60.0465C12.8551 57.5881 10.7147 55.2675 9.8939 54.6451C9.15151 54.0822 8.57271 53.9017 8.19804 53.8782L8.23393 54.0596C8.09852 54.087 7.95579 54.1118 7.80855 54.1373C7.23852 54.2361 6.60085 54.3466 6.05805 54.6676C5.73684 54.8576 5.47246 55.1124 5.30067 55.4727C5.1277 55.8355 5.02964 56.3451 5.10985 57.0751C5.15575 57.4927 5.42629 58.1232 5.90404 58.9221C6.37098 59.703 6.99806 60.5844 7.68804 61.4877C8.58319 62.6595 9.55869 63.8362 10.4108 64.8641C10.8804 65.4305 11.3127 65.952 11.6733 66.4023L10.9222 67.017C10.5815 66.5915 10.1598 66.0827 9.69598 65.523C8.83418 64.4831 7.82685 63.2677 6.92329 62.0849C6.2241 61.1696 5.57166 60.2546 5.07713 59.4276C4.59342 58.6187 4.22056 57.8298 4.14947 57.183C4.0542 56.3161 4.16087 55.6134 4.43024 55.0484C4.7008 54.481 5.11638 54.0927 5.57019 53.8243C6.28264 53.403 7.1504 53.2557 7.72023 53.1594C7.34581 48.8975 6.64819 41.1661 6.38438 39.0323C6.03343 36.1935 4.27867 35.129 2.52391 35.4839C0.769147 35.8387 -0.28371 37.6129 0.0672433 40.8064C0.201519 42.0283 0.489917 45.0162 0.814503 48.3791C1.33828 53.8056 1.95628 60.2084 2.17296 61.7419C2.52391 64.2258 3.22581 66.7097 4.98057 68.4839C5.27444 68.781 5.67659 69.1777 6.14415 69.6388C8.46847 71.9314 12.4093 75.8184 12.7015 77C12.7457 77.1786 12.8065 77.4022 12.8784 77.6664C13.378 79.5022 14.4121 83.3025 14.1053 87.6452L27.0906 88Z" fill="url(#paint4_linear_56_15150)"/>
<path fill-rule="evenodd" clip-rule="evenodd" d="M65.6283 39.7419C66.6812 38.914 69.4186 35.9806 71.9455 30.871C75.104 24.4839 78.9645 18.0968 84.5798 17.3871C90.195 16.6774 77.5608 30.8708 74.4022 34.4193C71.8753 37.258 70.7756 39.1505 70.5417 39.7419H72.2964C72.1794 46.4839 68.436 61.671 54.3979 68.4839H29.8312C23.865 64.9355 12.0029 54.1484 12.2836 39.3871L65.6283 39.7419ZM18.2843 42.2258H23.8996C23.4316 46.8387 23.4784 57.0581 27.4091 61.0323C24.1335 58.9032 17.7228 52.1613 18.2843 42.2258Z" fill="white"/>
<path fill-rule="evenodd" clip-rule="evenodd" d="M65.6283 39.7419C66.6812 38.914 69.4186 35.9806 71.9455 30.871C75.104 24.4839 78.9645 18.0968 84.5798 17.3871C90.195 16.6774 77.5608 30.8708 74.4022 34.4193C71.8753 37.258 70.7756 39.1505 70.5417 39.7419H72.2964C72.1794 46.4839 68.436 61.671 54.3979 68.4839H29.8312C23.865 64.9355 12.0029 54.1484 12.2836 39.3871L65.6283 39.7419ZM18.2843 42.2258H23.8996C23.4316 46.8387 23.4784 57.0581 27.4091 61.0323C24.1335 58.9032 17.7228 52.1613 18.2843 42.2258Z" fill="url(#paint5_linear_56_15150)"/>
<path d="M104.616 61.8733V38.1267C104.616 37.0777 104.172 36.3306 103.285 35.8856C102.428 35.4087 102 34.8524 102 34.2166C102 33.2947 102.704 32.8338 104.111 32.8338H116.778C118.124 32.8338 118.797 33.2947 118.797 34.2166C118.797 34.8842 118.353 35.4564 117.466 35.9332C116.609 36.3783 116.181 37.1094 116.181 38.1267V48.1403H117.695C120.847 48.1403 122.422 46.6303 122.422 43.6104V40.1294C122.422 35.0431 124.61 32.5 128.985 32.5C130.851 32.5 132.335 32.945 133.437 33.8351C134.66 34.7888 135.272 36.2193 135.272 38.1267C135.272 39.2393 134.875 40.2089 134.079 41.0354C133.284 41.8302 132.351 42.2275 131.28 42.2275C130.27 42.2275 129.413 41.9573 128.71 41.4169C127.884 40.7811 127.471 39.9705 127.471 38.985C127.471 38.2857 127.624 37.7929 127.93 37.5068C128.266 37.2207 128.434 36.9187 128.434 36.6008C128.434 35.8697 128.113 35.5041 127.471 35.5041C126.828 35.5041 126.354 35.7584 126.048 36.267C125.681 36.871 125.497 39.1599 125.497 43.1335C125.497 44.119 125.344 45.1521 125.038 46.233C124.702 47.4092 124.182 48.2198 123.478 48.6649C125.803 48.9827 127.746 49.7616 129.306 51.0014C131.173 52.4637 132.106 54.3233 132.106 56.5804V60.5858C132.106 61.4441 132.351 61.8733 132.84 61.8733C133.146 61.8733 133.498 61.6508 133.896 61.2057C134.293 60.7607 134.676 60.5381 135.043 60.5381C136.022 60.5381 136.511 60.9832 136.511 61.8733C136.511 62.4137 136.343 63.0177 136.007 63.6853C135.364 64.9251 134.278 65.8946 132.748 66.594C131.433 67.198 130.01 67.5 128.48 67.5C123.463 67.5 120.954 64.7025 120.954 59.1076C120.954 56.6599 120.954 55.4995 120.954 55.6267C120.893 54.0372 120.648 52.9087 120.219 52.2411C119.822 51.5736 119.21 51.1762 118.384 51.049C118.2 51.0173 117.466 51.0014 116.181 51.0014V62.2548C116.181 63.0813 116.609 63.7171 117.466 64.1621C118.353 64.5754 118.797 65.0999 118.797 65.7357C118.797 66.6894 118.124 67.1662 116.778 67.1662H104.111C102.704 67.1662 102 66.6894 102 65.7357C102 65.0999 102.428 64.5754 103.285 64.1621C104.172 63.7171 104.616 62.9541 104.616 61.8733Z" fill="white"/>
<path d="M141.465 61.8733V38.1267C141.465 37.0777 141.022 36.3306 140.135 35.8856C139.278 35.4087 138.85 34.8524 138.85 34.2166C138.85 33.2947 139.553 32.8338 140.961 32.8338H155.555C164.397 32.8338 168.818 36.3624 168.818 43.4196C168.818 50.4768 164.397 54.0054 155.555 54.0054H153.03V61.8733C153.03 62.7952 153.551 63.5422 154.591 64.1144C155.631 64.6866 156.151 65.243 156.151 65.7834C156.151 66.7053 155.34 67.1662 153.719 67.1662H140.961C139.553 67.1662 138.85 66.6894 138.85 65.7357C138.85 65.1635 139.278 64.639 140.135 64.1621C141.022 63.6535 141.465 62.8906 141.465 61.8733ZM153.03 35.7425V51.049H154.545C156.595 51.049 157.62 49.6344 157.62 46.8052V40.0817C157.62 37.1889 156.595 35.7425 154.545 35.7425H153.03Z" fill="white"/>
<path d="M186.521 48.951V64.2575H188.035C190.085 64.2575 191.11 62.8111 191.11 59.9183V53.1948C191.11 50.3656 190.085 48.951 188.035 48.951H186.521ZM186.521 38.1267V46.0899H189.045C197.887 46.0899 202.308 49.5867 202.308 56.5804C202.308 63.6376 197.887 67.1662 189.045 67.1662H174.451C173.044 67.1662 172.34 66.7053 172.34 65.7834C172.34 65.1476 172.768 64.6072 173.625 64.1621C174.512 63.6853 174.956 62.9223 174.956 61.8733V38.1267C174.956 37.1094 174.512 36.3624 173.625 35.8856C172.768 35.3769 172.34 34.8365 172.34 34.2643C172.34 33.3106 173.044 32.8338 174.451 32.8338H187.209C188.831 32.8338 189.642 33.2947 189.642 34.2166C189.642 34.757 189.121 35.3134 188.081 35.8856C187.041 36.4578 186.521 37.2048 186.521 38.1267ZM216.902 32.8338C218.279 32.8338 218.967 33.2947 218.967 34.2166C218.967 34.8842 218.523 35.4405 217.636 35.8856C216.749 36.3306 216.305 37.0777 216.305 38.1267V61.9687C216.305 62.9541 216.749 63.6694 217.636 64.1144C218.523 64.5595 218.967 65.0999 218.967 65.7357C218.967 66.6894 218.279 67.1662 216.902 67.1662H204.19C202.813 67.1662 202.124 66.6894 202.124 65.7357C202.124 65.0681 202.476 64.5913 203.18 64.3052C204.006 63.9555 204.48 63.5899 204.603 63.2084C204.694 62.9223 204.74 62.525 204.74 62.0163V37.9837C204.74 37.03 204.297 36.3306 203.409 35.8856C202.553 35.4087 202.124 34.8524 202.124 34.2166C202.124 33.2947 202.813 32.8338 204.19 32.8338H216.902Z" fill="white"/>
<path d="M244.033 42.3229L236.644 67.1662H235.175L228.245 46.376H228.154V58.7262C228.154 60.252 228.398 61.3965 228.888 62.1594C229.377 62.9223 230.28 63.6694 231.596 64.4005C232.024 64.6231 232.238 65.0204 232.238 65.5926C232.238 66.6417 231.534 67.1662 230.127 67.1662H223.427C222.05 67.1662 221.361 66.6417 221.361 65.5926C221.361 65.0204 221.576 64.6231 222.004 64.4005C223.319 63.733 224.207 63.0018 224.666 62.2071C225.155 61.4124 225.4 60.252 225.4 58.7262V39.4142C225.4 38.2698 225.048 37.3638 224.344 36.6962C224.191 36.5372 223.549 36.1399 222.417 35.5041C221.713 35.0908 221.361 34.614 221.361 34.0736C221.361 33.247 221.989 32.8338 223.243 32.8338H235.405L240.04 46.376L244.124 32.8338H256.194C257.602 32.8338 258.305 33.2947 258.305 34.2166C258.305 34.8842 257.862 35.4246 256.974 35.8379C256.118 36.2511 255.689 36.9187 255.689 37.8406V62.2548C255.689 63.1449 256.118 63.7965 256.974 64.2098C257.862 64.5913 258.305 65.0999 258.305 65.7357C258.305 66.6894 257.602 67.1662 256.194 67.1662H243.574C242.166 67.1662 241.463 66.6894 241.463 65.7357C241.463 65.1317 241.906 64.6072 242.793 64.1621C243.681 63.6853 244.124 62.9223 244.124 61.8733V42.3229H244.033Z" fill="white"/>
<path d="M292.988 67.1662H280.367C278.96 67.1662 278.256 66.6894 278.256 65.7357C278.256 65.1317 278.7 64.6072 279.587 64.1621C280.474 63.6853 280.918 62.9223 280.918 61.8733V35.8379H276.099C274.233 35.8379 273.055 36.1558 272.565 36.7916C272.198 37.3002 272.015 38.5876 272.015 40.654V59.8706C272.015 62.3819 271.586 64.2257 270.73 65.4019C269.751 66.8006 268.098 67.5 265.773 67.5C263.907 67.5 262.423 67.055 261.322 66.1648C260.098 65.2112 259.486 63.7807 259.486 61.8733C259.486 60.7607 259.884 59.807 260.679 59.0123C261.475 58.1857 262.408 57.7725 263.479 57.7725C264.488 57.7725 265.345 58.0427 266.049 58.5831C266.875 59.2189 267.288 60.0295 267.288 61.015C267.288 61.5872 267.135 62.0799 266.829 62.4932C266.553 62.8747 266.416 63.1449 266.416 63.3038C266.416 64.0985 266.676 64.4959 267.196 64.4959C268.022 64.4959 268.573 64.178 268.848 63.5422C269.123 62.8747 269.261 61.5236 269.261 59.4891V41.6076C269.261 38.3015 268.71 36.4419 267.609 36.0286C266.936 35.9332 266.247 35.8379 265.544 35.7425C264.748 35.6154 264.351 35.1703 264.351 34.4074C264.351 33.3583 265.039 32.8338 266.416 32.8338H292.988C294.365 32.8338 295.053 33.2947 295.053 34.2166C295.053 34.8842 294.625 35.4246 293.768 35.8379C292.911 36.2511 292.483 36.9187 292.483 37.8406V62.2548C292.483 63.1449 292.942 63.7965 293.86 64.2098C294.778 64.5913 295.236 65.0999 295.236 65.7357C295.236 66.6894 294.487 67.1662 292.988 67.1662Z" fill="white"/>
<path d="M304.939 67.1662H298.743C297.305 67.1662 296.586 66.6735 296.586 65.688C296.586 65.1476 296.755 64.7979 297.091 64.639C298.254 64.0985 299.202 63.3992 299.937 62.5409C300.518 61.8733 301.053 60.7448 301.543 59.1553L307.371 40.4632C307.83 39.0009 308.06 37.7929 308.06 36.8392C308.06 36.3624 307.662 35.965 306.866 35.6471C306.071 35.2975 305.673 34.8206 305.673 34.2166C305.673 33.2947 306.377 32.8338 307.784 32.8338H318.707L326.325 61.8256C326.509 62.5886 327.059 63.3038 327.977 63.9714C328.803 64.5754 329.216 65.1317 329.216 65.6403C329.216 66.6576 328.329 67.1662 326.554 67.1662H315.035C313.291 67.1662 312.419 66.6258 312.419 65.545C312.419 65.0045 312.771 64.5436 313.475 64.1621C314.179 63.7489 314.53 63.3674 314.53 63.0177C314.53 62.6362 314.117 60.7289 313.291 57.2956H305.168C304.434 59.6798 304.067 61.2216 304.067 61.921C304.067 62.8111 304.602 63.5104 305.673 64.0191C306.775 64.5277 307.325 65.0681 307.325 65.6403C307.325 66.6576 306.53 67.1662 304.939 67.1662ZM309.895 42.3706L306.132 54.2916H312.649L309.895 42.3706Z" fill="white"/>
<path d="M345.665 47.8542H351.035V37.6022C351.035 36.871 350.729 36.2352 350.117 35.6948C349.536 35.1226 349.245 34.5663 349.245 34.0259C349.245 33.2312 349.75 32.8338 350.759 32.8338H363.196C364.512 32.8338 365.17 33.2947 365.17 34.2166C365.17 34.8524 364.741 35.4087 363.885 35.8856C363.028 36.3624 362.6 37.1094 362.6 38.1267V62.2548C362.6 63.0813 363.028 63.7171 363.885 64.1621C364.741 64.5754 365.17 65.0999 365.17 65.7357C365.17 66.6894 364.512 67.1662 363.196 67.1662H350.759C349.75 67.1662 349.245 66.753 349.245 65.9264C349.245 65.4178 349.536 64.8933 350.117 64.3529C350.729 63.7807 351.035 63.129 351.035 62.3978V50.8583H345.665V62.3501C345.665 63.2084 345.971 63.9237 346.583 64.4959C347.195 65.0363 347.501 65.5132 347.501 65.9264C347.501 66.753 346.966 67.1662 345.895 67.1662H333.504C332.157 67.1662 331.484 66.6894 331.484 65.7357C331.484 65.0999 331.913 64.5595 332.769 64.1144C333.657 63.6694 334.1 62.9223 334.1 61.8733V38.1267C334.1 37.0777 333.657 36.3306 332.769 35.8856C331.913 35.4087 331.484 34.8524 331.484 34.2166C331.484 33.2947 332.157 32.8338 333.504 32.8338H345.895C346.966 32.8338 347.501 33.2312 347.501 34.0259C347.501 34.5663 347.195 35.1226 346.583 35.6948C345.971 36.267 345.665 36.9028 345.665 37.6022V47.8542Z" fill="white"/>
<path d="M397.935 67.1662H385.177C383.524 67.1662 382.698 66.7053 382.698 65.7834C382.698 65.243 383.218 64.6866 384.259 64.1144C385.33 63.5104 385.865 62.7634 385.865 61.8733V53.767C383.876 53.926 382.775 54.0054 382.561 54.0054C374.208 54.0054 370.032 51.0649 370.032 45.1839V38.1267C370.032 37.0777 369.588 36.3306 368.701 35.8856C367.844 35.4087 367.416 34.8524 367.416 34.2166C367.416 33.2947 368.12 32.8338 369.527 32.8338H378.706C379.807 32.8338 380.541 33.2312 380.909 34.0259C381.153 34.5345 381.276 35.4405 381.276 36.7439V46.8052C381.276 49.6662 382.301 51.0967 384.35 51.0967H385.865V37.6022C385.865 36.871 385.559 36.2352 384.947 35.6948C384.366 35.1226 384.075 34.5663 384.075 34.0259C384.075 33.2312 384.672 32.8338 385.865 32.8338H397.935C399.312 32.8338 400 33.2947 400 34.2166C400 34.8524 399.572 35.3928 398.715 35.8379C397.858 36.2829 397.43 37.0459 397.43 38.1267V61.8733C397.43 62.9223 397.858 63.6853 398.715 64.1621C399.572 64.6072 400 65.1317 400 65.7357C400 66.6894 399.312 67.1662 397.935 67.1662Z" fill="white"/>
<path d="M102.168 88.432V85.156H102.888C103.752 84.172 104.184 82.516 104.184 80.188V78.004H110.124V85.156H111.072V88.432H109.716V86.5H103.524V88.432H102.168ZM104.592 85.156H108.612V79.324H105.648V80.344C105.648 82.536 105.296 84.14 104.592 85.156ZM111.508 83.596C111.508 82.708 111.808 81.984 112.408 81.424C113.008 80.856 113.752 80.572 114.64 80.572C115.528 80.572 116.272 80.856 116.872 81.424C117.472 81.984 117.772 82.708 117.772 83.596C117.772 84.492 117.468 85.228 116.86 85.804C116.26 86.38 115.52 86.668 114.64 86.668C113.76 86.668 113.016 86.38 112.408 85.804C111.808 85.228 111.508 84.492 111.508 83.596ZM113.404 82.3C113.116 82.668 112.972 83.1 112.972 83.596C112.972 84.092 113.116 84.528 113.404 84.904C113.692 85.28 114.104 85.468 114.64 85.468C115.176 85.468 115.588 85.28 115.876 84.904C116.164 84.528 116.308 84.092 116.308 83.596C116.308 83.1 116.164 82.668 115.876 82.3C115.588 81.932 115.176 81.748 114.64 81.748C114.104 81.748 113.692 81.932 113.404 82.3ZM123.728 81.472L122.744 82.336C122.632 82.176 122.464 82.044 122.24 81.94C122.016 81.828 121.788 81.772 121.556 81.772C121.06 81.772 120.672 81.96 120.392 82.336C120.112 82.704 119.972 83.132 119.972 83.62C119.972 84.116 120.116 84.548 120.404 84.916C120.692 85.284 121.092 85.468 121.604 85.468C122.132 85.468 122.536 85.296 122.816 84.952L123.716 85.864C123.22 86.4 122.512 86.668 121.592 86.668C120.712 86.668 119.972 86.392 119.372 85.84C118.772 85.288 118.472 84.548 118.472 83.62C118.472 82.708 118.768 81.972 119.36 81.412C119.952 80.852 120.684 80.572 121.556 80.572C121.98 80.572 122.392 80.652 122.792 80.812C123.192 80.972 123.504 81.192 123.728 81.472ZM125.742 86.5V81.892H123.894V80.74H129.018V81.892H127.182V86.5H125.742ZM133.336 86.5V85.768H133.3C133.156 86.024 132.92 86.236 132.592 86.404C132.272 86.564 131.912 86.644 131.512 86.644C130.96 86.644 130.46 86.5 130.012 86.212C129.572 85.916 129.352 85.464 129.352 84.856C129.352 84.528 129.432 84.244 129.592 84.004C129.76 83.756 129.968 83.564 130.216 83.428C130.464 83.292 130.772 83.184 131.14 83.104C131.516 83.016 131.868 82.96 132.196 82.936C132.532 82.912 132.904 82.9 133.312 82.9V82.756C133.312 82.42 133.188 82.16 132.94 81.976C132.692 81.792 132.376 81.7 131.992 81.7C131.384 81.7 130.86 81.92 130.42 82.36L129.676 81.484C130.332 80.876 131.144 80.572 132.112 80.572C132.608 80.572 133.028 80.644 133.372 80.788C133.724 80.924 133.992 81.116 134.176 81.364C134.36 81.604 134.488 81.86 134.56 82.132C134.64 82.396 134.68 82.684 134.68 82.996V86.5H133.336ZM133.312 84.076V83.872H132.988C131.524 83.872 130.792 84.192 130.792 84.832C130.792 85.088 130.888 85.272 131.08 85.384C131.28 85.496 131.52 85.552 131.8 85.552C132.288 85.552 132.66 85.424 132.916 85.168C133.18 84.904 133.312 84.54 133.312 84.076ZM135.998 86.5V80.74H138.974C139.318 80.74 139.626 80.776 139.898 80.848C140.178 80.92 140.43 81.076 140.654 81.316C140.878 81.548 140.99 81.856 140.99 82.24C140.99 82.536 140.898 82.796 140.714 83.02C140.538 83.236 140.306 83.38 140.018 83.452V83.476C140.378 83.532 140.67 83.684 140.894 83.932C141.126 84.172 141.242 84.484 141.242 84.868C141.242 85.38 141.042 85.78 140.642 86.068C140.242 86.356 139.714 86.5 139.058 86.5H135.998ZM137.438 85.468H138.794C139.458 85.468 139.79 85.236 139.79 84.772C139.79 84.308 139.47 84.076 138.83 84.076H137.438V85.468ZM137.438 83.044H138.806C139.334 83.044 139.598 82.832 139.598 82.408C139.598 81.976 139.298 81.76 138.698 81.76H137.438V83.044ZM142.27 86.5V80.74H143.71V83.296H143.746L145.966 80.74H147.79L145.258 83.452L147.982 86.5H146.134L143.746 83.764H143.71V86.5H142.27ZM152.002 86.5V85.768H151.966C151.822 86.024 151.586 86.236 151.258 86.404C150.938 86.564 150.578 86.644 150.178 86.644C149.626 86.644 149.126 86.5 148.678 86.212C148.238 85.916 148.018 85.464 148.018 84.856C148.018 84.528 148.098 84.244 148.258 84.004C148.426 83.756 148.634 83.564 148.882 83.428C149.13 83.292 149.438 83.184 149.806 83.104C150.182 83.016 150.534 82.96 150.862 82.936C151.198 82.912 151.57 82.9 151.978 82.9V82.756C151.978 82.42 151.854 82.16 151.606 81.976C151.358 81.792 151.042 81.7 150.658 81.7C150.05 81.7 149.526 81.92 149.086 82.36L148.342 81.484C148.998 80.876 149.81 80.572 150.778 80.572C151.274 80.572 151.694 80.644 152.038 80.788C152.39 80.924 152.658 81.116 152.842 81.364C153.026 81.604 153.154 81.86 153.226 82.132C153.306 82.396 153.346 82.684 153.346 82.996V86.5H152.002ZM151.978 84.076V83.872H151.654C150.19 83.872 149.458 84.192 149.458 84.832C149.458 85.088 149.554 85.272 149.746 85.384C149.946 85.496 150.186 85.552 150.466 85.552C150.954 85.552 151.326 85.424 151.582 85.168C151.846 84.904 151.978 84.54 151.978 84.076ZM156.968 83.596C156.968 82.708 157.268 81.984 157.868 81.424C158.468 80.856 159.212 80.572 160.1 80.572C160.988 80.572 161.732 80.856 162.332 81.424C162.932 81.984 163.232 82.708 163.232 83.596C163.232 84.492 162.928 85.228 162.32 85.804C161.72 86.38 160.98 86.668 160.1 86.668C159.22 86.668 158.476 86.38 157.868 85.804C157.268 85.228 156.968 84.492 156.968 83.596ZM158.864 82.3C158.576 82.668 158.432 83.1 158.432 83.596C158.432 84.092 158.576 84.528 158.864 84.904C159.152 85.28 159.564 85.468 160.1 85.468C160.636 85.468 161.048 85.28 161.336 84.904C161.624 84.528 161.768 84.092 161.768 83.596C161.768 83.1 161.624 82.668 161.336 82.3C161.048 81.932 160.636 81.748 160.1 81.748C159.564 81.748 159.152 81.932 158.864 82.3ZM167.208 86.668C166.208 86.668 165.412 86.336 164.82 85.672C164.54 85.352 164.336 84.976 164.208 84.544C164.088 84.112 164.028 83.536 164.028 82.816C164.028 82.216 164.044 81.708 164.076 81.292C164.116 80.876 164.188 80.46 164.292 80.044C164.404 79.628 164.556 79.292 164.748 79.036C164.948 78.772 165.212 78.548 165.54 78.364C165.876 78.18 166.276 78.056 166.74 77.992L168.216 77.8C168.56 77.752 168.808 77.692 168.96 77.62C169.112 77.548 169.212 77.42 169.26 77.236L170.292 77.536C170.188 78 170.012 78.34 169.764 78.556C169.524 78.764 169.168 78.9 168.696 78.964L167.136 79.168C166.784 79.216 166.492 79.284 166.26 79.372C166.036 79.46 165.828 79.604 165.636 79.804C165.452 79.996 165.312 80.264 165.216 80.608C165.128 80.952 165.076 81.388 165.06 81.916H165.096C165.568 81.044 166.368 80.608 167.496 80.608C168.28 80.608 168.948 80.888 169.5 81.448C170.052 82.008 170.328 82.732 170.328 83.62C170.328 84.524 170.028 85.26 169.428 85.828C168.828 86.388 168.088 86.668 167.208 86.668ZM165.972 84.916C166.268 85.276 166.672 85.456 167.184 85.456C167.696 85.456 168.104 85.276 168.408 84.916C168.72 84.548 168.876 84.104 168.876 83.584C168.876 83.072 168.72 82.636 168.408 82.276C168.104 81.908 167.692 81.724 167.172 81.724C166.66 81.724 166.256 81.904 165.96 82.264C165.672 82.624 165.528 83.064 165.528 83.584C165.528 84.104 165.676 84.548 165.972 84.916ZM172.453 83.044H175.405C175.405 82.644 175.289 82.312 175.057 82.048C174.825 81.784 174.489 81.652 174.049 81.652C173.625 81.652 173.261 81.784 172.957 82.048C172.653 82.312 172.485 82.644 172.453 83.044ZM176.845 83.692C176.845 83.86 176.841 83.988 176.833 84.076H172.453C172.485 84.476 172.661 84.812 172.981 85.084C173.301 85.356 173.673 85.492 174.097 85.492C174.761 85.492 175.269 85.244 175.621 84.748L176.581 85.516C176.013 86.284 175.189 86.668 174.109 86.668C173.205 86.668 172.461 86.396 171.877 85.852C171.301 85.308 171.013 84.576 171.013 83.656C171.013 82.736 171.301 81.992 171.877 81.424C172.453 80.856 173.181 80.572 174.061 80.572C174.893 80.572 175.565 80.84 176.077 81.376C176.589 81.912 176.845 82.684 176.845 83.692ZM177.172 88.144V85.324H177.772C178.308 84.628 178.576 83.596 178.576 82.228V80.74H183.256V85.324H184.108V88.144H182.896V86.5H178.384V88.144H177.172ZM179.296 85.324H181.816V81.892H179.944V82.6C179.944 83.664 179.728 84.572 179.296 85.324ZM184.52 83.596C184.52 82.708 184.82 81.984 185.42 81.424C186.02 80.856 186.764 80.572 187.652 80.572C188.54 80.572 189.284 80.856 189.884 81.424C190.484 81.984 190.784 82.708 190.784 83.596C190.784 84.492 190.48 85.228 189.872 85.804C189.272 86.38 188.532 86.668 187.652 86.668C186.772 86.668 186.028 86.38 185.42 85.804C184.82 85.228 184.52 84.492 184.52 83.596ZM186.416 82.3C186.128 82.668 185.984 83.1 185.984 83.596C185.984 84.092 186.128 84.528 186.416 84.904C186.704 85.28 187.116 85.468 187.652 85.468C188.188 85.468 188.6 85.28 188.888 84.904C189.176 84.528 189.32 84.092 189.32 83.596C189.32 83.1 189.176 82.668 188.888 82.3C188.6 81.932 188.188 81.748 187.652 81.748C187.116 81.748 186.704 81.932 186.416 82.3ZM191.82 86.5V80.74H194.796C195.14 80.74 195.448 80.776 195.72 80.848C196 80.92 196.252 81.076 196.476 81.316C196.7 81.548 196.812 81.856 196.812 82.24C196.812 82.536 196.72 82.796 196.536 83.02C196.36 83.236 196.128 83.38 195.84 83.452V83.476C196.2 83.532 196.492 83.684 196.716 83.932C196.948 84.172 197.064 84.484 197.064 84.868C197.064 85.38 196.864 85.78 196.464 86.068C196.064 86.356 195.536 86.5 194.88 86.5H191.82ZM193.26 85.468H194.616C195.28 85.468 195.612 85.236 195.612 84.772C195.612 84.308 195.292 84.076 194.652 84.076H193.26V85.468ZM193.26 83.044H194.628C195.156 83.044 195.42 82.832 195.42 82.408C195.42 81.976 195.12 81.76 194.52 81.76H193.26V83.044ZM200.733 86.5V80.74H206.037V86.5H204.597V81.892H202.173V86.5H200.733ZM207.068 83.596C207.068 82.708 207.368 81.984 207.968 81.424C208.568 80.856 209.312 80.572 210.2 80.572C211.088 80.572 211.832 80.856 212.432 81.424C213.032 81.984 213.332 82.708 213.332 83.596C213.332 84.492 213.028 85.228 212.42 85.804C211.82 86.38 211.08 86.668 210.2 86.668C209.32 86.668 208.576 86.38 207.968 85.804C207.368 85.228 207.068 84.492 207.068 83.596ZM208.964 82.3C208.676 82.668 208.532 83.1 208.532 83.596C208.532 84.092 208.676 84.528 208.964 84.904C209.252 85.28 209.664 85.468 210.2 85.468C210.736 85.468 211.148 85.28 211.436 84.904C211.724 84.528 211.868 84.092 211.868 83.596C211.868 83.1 211.724 82.668 211.436 82.3C211.148 81.932 210.736 81.748 210.2 81.748C209.664 81.748 209.252 81.932 208.964 82.3ZM217.08 86.5V78.004H218.592V81.676H218.628L222.18 78.004H224.22L220.248 81.928L224.484 86.5H222.36L218.628 82.24H218.592V86.5H217.08ZM224.922 80.74H226.302V81.544H226.338C226.506 81.28 226.758 81.052 227.094 80.86C227.438 80.668 227.85 80.572 228.33 80.572C229.146 80.572 229.814 80.86 230.334 81.436C230.862 82.012 231.126 82.732 231.126 83.596C231.126 84.46 230.866 85.188 230.346 85.78C229.834 86.372 229.15 86.668 228.294 86.668C227.894 86.668 227.522 86.584 227.178 86.416C226.834 86.248 226.57 86.02 226.386 85.732H226.362V89.38H224.922V80.74ZM229.218 84.904C229.514 84.528 229.662 84.092 229.662 83.596C229.662 83.1 229.514 82.668 229.218 82.3C228.93 81.932 228.526 81.748 228.006 81.748C227.502 81.748 227.094 81.94 226.782 82.324C226.47 82.708 226.314 83.14 226.314 83.62C226.314 84.1 226.47 84.528 226.782 84.904C227.094 85.28 227.502 85.468 228.006 85.468C228.526 85.468 228.93 85.28 229.218 84.904ZM238.192 86.5V80.74H239.632V86.5H238.192ZM232.156 86.5V80.74H233.596V82.756H234.844C235.556 82.756 236.12 82.912 236.536 83.224C236.96 83.528 237.172 83.992 237.172 84.616C237.172 85.224 236.96 85.692 236.536 86.02C236.112 86.34 235.548 86.5 234.844 86.5H232.156ZM233.596 85.408H234.472C234.904 85.408 235.22 85.348 235.42 85.228C235.628 85.108 235.732 84.908 235.732 84.628C235.732 84.34 235.636 84.136 235.444 84.016C235.252 83.896 234.928 83.836 234.472 83.836H233.596V85.408ZM240.995 86.5V80.74H243.011L244.691 84.628H244.703L246.323 80.74H248.363V86.5H246.947V82.42H246.923L245.135 86.5H244.175L242.435 82.408H242.411V86.5H240.995ZM251.337 86.5L248.865 80.74H250.461L252.069 84.928H252.093L253.521 80.74H255.021L252.297 87.736C252.073 88.304 251.801 88.72 251.481 88.984C251.169 89.248 250.713 89.38 250.113 89.38C249.849 89.38 249.601 89.352 249.369 89.296L249.489 88.048C249.665 88.104 249.845 88.132 250.029 88.132C250.317 88.132 250.525 88.064 250.653 87.928C250.781 87.8 250.913 87.568 251.049 87.232L251.337 86.5ZM258.161 86.5V80.74H259.601V84.46H259.625L262.145 80.74H263.705V86.5H262.265V82.804H262.241L259.745 86.5H258.161ZM267.79 86.5V78.004H269.302V81.436H273.274V78.004H274.786V86.5H273.274V82.732H269.302V86.5H267.79ZM275.893 83.596C275.893 82.708 276.193 81.984 276.793 81.424C277.393 80.856 278.137 80.572 279.025 80.572C279.913 80.572 280.657 80.856 281.257 81.424C281.857 81.984 282.157 82.708 282.157 83.596C282.157 84.492 281.853 85.228 281.245 85.804C280.645 86.38 279.905 86.668 279.025 86.668C278.145 86.668 277.401 86.38 276.793 85.804C276.193 85.228 275.893 84.492 275.893 83.596ZM277.789 82.3C277.501 82.668 277.357 83.1 277.357 83.596C277.357 84.092 277.501 84.528 277.789 84.904C278.077 85.28 278.489 85.468 279.025 85.468C279.561 85.468 279.973 85.28 280.261 84.904C280.549 84.528 280.693 84.092 280.693 83.596C280.693 83.1 280.549 82.668 280.261 82.3C279.973 81.932 279.561 81.748 279.025 81.748C278.489 81.748 278.077 81.932 277.789 82.3ZM283.194 86.5V80.74H286.17C286.514 80.74 286.822 80.776 287.094 80.848C287.374 80.92 287.626 81.076 287.85 81.316C288.074 81.548 288.186 81.856 288.186 82.24C288.186 82.536 288.094 82.796 287.91 83.02C287.734 83.236 287.502 83.38 287.214 83.452V83.476C287.574 83.532 287.866 83.684 288.09 83.932C288.322 84.172 288.438 84.484 288.438 84.868C288.438 85.38 288.238 85.78 287.838 86.068C287.438 86.356 286.91 86.5 286.254 86.5H283.194ZM284.634 85.468H285.99C286.654 85.468 286.986 85.236 286.986 84.772C286.986 84.308 286.666 84.076 286.026 84.076H284.634V85.468ZM284.634 83.044H286.002C286.53 83.044 286.794 82.832 286.794 82.408C286.794 81.976 286.494 81.76 285.894 81.76H284.634V83.044ZM295.502 86.5V80.74H296.942V86.5H295.502ZM289.466 86.5V80.74H290.906V82.756H292.154C292.866 82.756 293.43 82.912 293.846 83.224C294.27 83.528 294.482 83.992 294.482 84.616C294.482 85.224 294.27 85.692 293.846 86.02C293.422 86.34 292.858 86.5 292.154 86.5H289.466ZM290.906 85.408H291.782C292.214 85.408 292.53 85.348 292.73 85.228C292.938 85.108 293.042 84.908 293.042 84.628C293.042 84.34 292.946 84.136 292.754 84.016C292.562 83.896 292.238 83.836 291.782 83.836H290.906V85.408ZM298.306 86.5V80.74H300.322L302.002 84.628H302.014L303.634 80.74H305.674V86.5H304.258V82.42H304.234L302.446 86.5H301.486L299.746 82.408H299.722V86.5H298.306ZM313.543 86.5V81.892H311.695V80.74H316.819V81.892H314.983V86.5H313.543ZM318.524 83.044H321.476C321.476 82.644 321.36 82.312 321.128 82.048C320.896 81.784 320.56 81.652 320.12 81.652C319.696 81.652 319.332 81.784 319.028 82.048C318.724 82.312 318.556 82.644 318.524 83.044ZM322.916 83.692C322.916 83.86 322.912 83.988 322.904 84.076H318.524C318.556 84.476 318.732 84.812 319.052 85.084C319.372 85.356 319.744 85.492 320.168 85.492C320.832 85.492 321.34 85.244 321.692 84.748L322.652 85.516C322.084 86.284 321.26 86.668 320.18 86.668C319.276 86.668 318.532 86.396 317.948 85.852C317.372 85.308 317.084 84.576 317.084 83.656C317.084 82.736 317.372 81.992 317.948 81.424C318.524 80.856 319.252 80.572 320.132 80.572C320.964 80.572 321.636 80.84 322.148 81.376C322.66 81.912 322.916 82.684 322.916 83.692ZM323.951 80.74H325.331V81.544H325.367C325.535 81.28 325.787 81.052 326.123 80.86C326.467 80.668 326.879 80.572 327.359 80.572C328.175 80.572 328.843 80.86 329.363 81.436C329.891 82.012 330.155 82.732 330.155 83.596C330.155 84.46 329.895 85.188 329.375 85.78C328.863 86.372 328.179 86.668 327.323 86.668C326.923 86.668 326.551 86.584 326.207 86.416C325.863 86.248 325.599 86.02 325.415 85.732H325.391V89.38H323.951V80.74ZM328.247 84.904C328.543 84.528 328.691 84.092 328.691 83.596C328.691 83.1 328.543 82.668 328.247 82.3C327.959 81.932 327.555 81.748 327.035 81.748C326.531 81.748 326.123 81.94 325.811 82.324C325.499 82.708 325.343 83.14 325.343 83.62C325.343 84.1 325.499 84.528 325.811 84.904C326.123 85.28 326.531 85.468 327.035 85.468C327.555 85.468 327.959 85.28 328.247 84.904ZM331.185 80.74H332.565V81.544H332.601C332.769 81.28 333.021 81.052 333.357 80.86C333.701 80.668 334.113 80.572 334.593 80.572C335.409 80.572 336.077 80.86 336.597 81.436C337.125 82.012 337.389 82.732 337.389 83.596C337.389 84.46 337.129 85.188 336.609 85.78C336.097 86.372 335.413 86.668 334.557 86.668C334.157 86.668 333.785 86.584 333.441 86.416C333.097 86.248 332.833 86.02 332.649 85.732H332.625V89.38H331.185V80.74ZM335.481 84.904C335.777 84.528 335.925 84.092 335.925 83.596C335.925 83.1 335.777 82.668 335.481 82.3C335.193 81.932 334.789 81.748 334.269 81.748C333.765 81.748 333.357 81.94 333.045 82.324C332.733 82.708 332.577 83.14 332.577 83.62C332.577 84.1 332.733 84.528 333.045 84.904C333.357 85.28 333.765 85.468 334.269 85.468C334.789 85.468 335.193 85.28 335.481 84.904ZM338.418 86.5V80.74H339.858V84.46H339.882L342.402 80.74H343.962V86.5H342.522V82.804H342.498L340.002 86.5H338.418ZM346.56 86.5V81.892H344.712V80.74H349.836V81.892H348V86.5H346.56ZM350.101 83.596C350.101 82.708 350.401 81.984 351.001 81.424C351.601 80.856 352.345 80.572 353.233 80.572C354.121 80.572 354.865 80.856 355.465 81.424C356.065 81.984 356.365 82.708 356.365 83.596C356.365 84.492 356.061 85.228 355.453 85.804C354.853 86.38 354.113 86.668 353.233 86.668C352.353 86.668 351.609 86.38 351.001 85.804C350.401 85.228 350.101 84.492 350.101 83.596ZM351.997 82.3C351.709 82.668 351.565 83.1 351.565 83.596C351.565 84.092 351.709 84.528 351.997 84.904C352.285 85.28 352.697 85.468 353.233 85.468C353.769 85.468 354.181 85.28 354.469 84.904C354.757 84.528 354.901 84.092 354.901 83.596C354.901 83.1 354.757 82.668 354.469 82.3C354.181 81.932 353.769 81.748 353.233 81.748C352.697 81.748 352.285 81.932 351.997 82.3ZM357.401 80.74H358.781V81.544H358.817C358.985 81.28 359.237 81.052 359.573 80.86C359.917 80.668 360.329 80.572 360.809 80.572C361.625 80.572 362.293 80.86 362.813 81.436C363.341 82.012 363.605 82.732 363.605 83.596C363.605 84.46 363.345 85.188 362.825 85.78C362.313 86.372 361.629 86.668 360.773 86.668C360.373 86.668 360.001 86.584 359.657 86.416C359.313 86.248 359.049 86.02 358.865 85.732H358.841V89.38H357.401V80.74ZM361.697 84.904C361.993 84.528 362.141 84.092 362.141 83.596C362.141 83.1 361.993 82.668 361.697 82.3C361.409 81.932 361.005 81.748 360.485 81.748C359.981 81.748 359.573 81.94 359.261 82.324C358.949 82.708 358.793 83.14 358.793 83.62C358.793 84.1 358.949 84.528 359.261 84.904C359.573 85.28 359.981 85.468 360.485 85.468C361.005 85.468 361.409 85.28 361.697 84.904ZM364.635 86.5V80.74H366.075V84.46H366.099L368.619 80.74H370.179V86.5H368.739V82.804H368.715L366.219 86.5H364.635ZM371.12 86.5L372.572 84.316C371.716 84.068 371.288 83.496 371.288 82.6C371.288 81.992 371.5 81.532 371.924 81.22C372.356 80.9 372.912 80.74 373.592 80.74H376.496V86.5H375.056V84.46H373.988L372.812 86.5H371.12ZM373.94 83.392H375.056V81.82H373.94C373.484 81.82 373.16 81.88 372.968 82C372.776 82.12 372.68 82.324 372.68 82.612C372.68 82.892 372.78 83.092 372.98 83.212C373.188 83.332 373.508 83.392 373.94 83.392ZM377.86 86.5V80.74H379.876L381.556 84.628H381.568L383.188 80.74H385.228V86.5H383.812V82.42H383.788L382 86.5H381.04L379.3 82.408H379.276V86.5H377.86Z" fill="white" fill-opacity="0.64"/>
<defs>
<linearGradient id="paint0_linear_56_15150" x1="39.716" y1="-36.1584" x2="25.1172" y2="86.3583" gradientUnits="userSpaceOnUse">
<stop stop-color="#F94942"/>
<stop offset="0.505" stop-color="#FF6E68"/>
<stop offset="1" stop-color="#F94942"/>
</linearGradient>
<linearGradient id="paint1_linear_56_15150" x1="39.716" y1="-36.1584" x2="25.1172" y2="86.3583" gradientUnits="userSpaceOnUse">
<stop stop-color="#F94942"/>
<stop offset="0.505" stop-color="#FF6E68"/>
<stop offset="1" stop-color="#F94942"/>
</linearGradient>
<linearGradient id="paint2_linear_56_15150" x1="39.716" y1="-36.1584" x2="25.1172" y2="86.3583" gradientUnits="userSpaceOnUse">
<stop stop-color="#F94942"/>
<stop offset="0.505" stop-color="#FF6E68"/>
<stop offset="1" stop-color="#F94942"/>
</linearGradient>
<linearGradient id="paint3_linear_56_15150" x1="39.716" y1="-36.1584" x2="25.1172" y2="86.3583" gradientUnits="userSpaceOnUse">
<stop stop-color="#F94942"/>
<stop offset="0.505" stop-color="#FF6E68"/>
<stop offset="1" stop-color="#F94942"/>
</linearGradient>
<linearGradient id="paint4_linear_56_15150" x1="39.716" y1="-36.1584" x2="25.1172" y2="86.3583" gradientUnits="userSpaceOnUse">
<stop stop-color="#F94942"/>
<stop offset="0.505" stop-color="#FF6E68"/>
<stop offset="1" stop-color="#F94942"/>
</linearGradient>
<linearGradient id="paint5_linear_56_15150" x1="39.716" y1="-36.1584" x2="25.1172" y2="86.3583" gradientUnits="userSpaceOnUse">
<stop stop-color="#F94942"/>
<stop offset="0.505" stop-color="#FF6E68"/>
<stop offset="1" stop-color="#F94942"/>
</linearGradient>
</defs>
</svg>
