<svg width="410" height="105" viewBox="0 0 410 105" fill="none" xmlns="http://www.w3.org/2000/svg">
<path d="M38.6048 28.742C39.3034 32.7445 43.8691 36.5484 45.9748 37.9678C42.1143 32.6452 41.4124 27.086 42.8162 23.7742C44.3911 20.0587 51.59 17.0323 51.239 9.93549C50.9583 4.25807 44.5709 0.946237 41.4124 0C43.2841 0.946237 47.0978 3.83226 47.3786 7.80646C47.7295 12.7742 45.6238 15.2581 42.4653 17.7419C39.3067 20.2258 37.5519 22.7097 38.6048 28.742Z" fill="white"/>
<path d="M38.6048 28.742C39.3034 32.7445 43.8691 36.5484 45.9748 37.9678C42.1143 32.6452 41.4124 27.086 42.8162 23.7742C44.3911 20.0587 51.59 17.0323 51.239 9.93549C50.9583 4.25807 44.5709 0.946237 41.4124 0C43.2841 0.946237 47.0978 3.83226 47.3786 7.80646C47.7295 12.7742 45.6238 15.2581 42.4653 17.7419C39.3067 20.2258 37.5519 22.7097 38.6048 28.742Z" fill="#E20707"/>
<path d="M46.3259 28.3871C46.3259 32.3613 48.8995 35.957 50.1864 37.2581C47.7297 28.0323 51.5902 26.6129 55.4506 22.3549C58.539 18.9484 55.0997 14.5484 52.994 12.7742C53.4619 13.2473 54.2574 14.8323 53.6959 17.3871C52.994 20.5807 46.3259 23.4194 46.3259 28.3871Z" fill="white"/>
<path d="M46.3259 28.3871C46.3259 32.3613 48.8995 35.957 50.1864 37.2581C47.7297 28.0323 51.5902 26.6129 55.4506 22.3549C58.539 18.9484 55.0997 14.5484 52.994 12.7742C53.4619 13.2473 54.2574 14.8323 53.6959 17.3871C52.994 20.5807 46.3259 23.4194 46.3259 28.3871Z" fill="#E20707"/>
<path d="M33.0819 20.9355C32.38 23.0646 28.8705 25.1936 29.5724 28.742C30.1217 31.519 34.1347 35.8388 36.7941 37.4937C34.1347 33.7097 32.38 29.0968 33.0819 27.3226C33.7838 25.5484 36.9424 24.1291 36.9424 19.871C36.9424 16.4646 34.1347 13.957 32.7309 13.1291C34.1347 15.9678 33.7838 18.8065 33.0819 20.9355Z" fill="white"/>
<path d="M33.0819 20.9355C32.38 23.0646 28.8705 25.1936 29.5724 28.742C30.1217 31.519 34.1347 35.8388 36.7941 37.4937C34.1347 33.7097 32.38 29.0968 33.0819 27.3226C33.7838 25.5484 36.9424 24.1291 36.9424 19.871C36.9424 16.4646 34.1347 13.957 32.7309 13.1291C34.1347 15.9678 33.7838 18.8065 33.0819 20.9355Z" fill="#E20707"/>
<path d="M57.2054 88C57.6733 85.2796 58.6092 79.0581 58.6092 75.9355C58.6092 72.0322 61.4168 68.129 64.5754 64.9355C65.8872 63.6091 67.5623 61.793 69.1732 60.0465C71.4409 57.5881 73.5813 55.2675 74.402 54.6451C75.1444 54.0822 75.7232 53.9017 76.0978 53.8782L76.062 54.0596C76.1974 54.087 76.3401 54.1118 76.4873 54.1373C77.0574 54.2361 77.695 54.3466 78.2378 54.6676C78.559 54.8576 78.8234 55.1124 78.9952 55.4727C79.1682 55.8355 79.2663 56.3451 79.186 57.0751C79.1401 57.4927 78.8696 58.1232 78.3918 58.9221C77.9249 59.703 77.2978 60.5844 76.6078 61.4877C75.7127 62.6595 74.7372 63.8362 73.885 64.8641C73.4155 65.4305 72.9832 65.952 72.6226 66.4023L73.3737 67.017C73.7144 66.5915 74.1361 66.0827 74.5999 65.523C75.4617 64.4831 76.469 63.2677 77.3726 62.0849C78.0718 61.1696 78.7242 60.2546 79.2188 59.4276C79.7025 58.6187 80.0753 57.8298 80.1464 57.183C80.2417 56.3161 80.135 55.6134 79.8656 55.0484C79.5951 54.481 79.1795 54.0927 78.7257 53.8243C78.0133 53.403 77.1455 53.2558 76.5757 53.1594C76.9501 48.8975 77.6478 41.1661 77.9116 39.0323C78.2625 36.1935 80.0173 35.129 81.772 35.4839C83.5268 35.8387 84.5797 37.6129 84.2287 40.8064C84.0944 42.0283 83.806 45.0162 83.4814 48.3791C82.9577 53.8056 82.3397 60.2084 82.123 61.7419C81.772 64.2258 81.0701 66.7097 79.3154 68.4839C79.0215 68.781 78.6194 69.1777 78.1518 69.6388C75.8275 71.9314 71.8866 75.8184 71.5944 77C71.5503 77.1786 71.4894 77.4022 71.4175 77.6664C70.918 79.5022 69.8838 83.3025 70.1906 87.6452L57.2054 88Z" fill="white"/>
<path d="M57.2054 88C57.6733 85.2796 58.6092 79.0581 58.6092 75.9355C58.6092 72.0322 61.4168 68.129 64.5754 64.9355C65.8872 63.6091 67.5623 61.793 69.1732 60.0465C71.4409 57.5881 73.5813 55.2675 74.402 54.6451C75.1444 54.0822 75.7232 53.9017 76.0978 53.8782L76.062 54.0596C76.1974 54.087 76.3401 54.1118 76.4873 54.1373C77.0574 54.2361 77.695 54.3466 78.2378 54.6676C78.559 54.8576 78.8234 55.1124 78.9952 55.4727C79.1682 55.8355 79.2663 56.3451 79.186 57.0751C79.1401 57.4927 78.8696 58.1232 78.3918 58.9221C77.9249 59.703 77.2978 60.5844 76.6078 61.4877C75.7127 62.6595 74.7372 63.8362 73.885 64.8641C73.4155 65.4305 72.9832 65.952 72.6226 66.4023L73.3737 67.017C73.7144 66.5915 74.1361 66.0827 74.5999 65.523C75.4617 64.4831 76.469 63.2677 77.3726 62.0849C78.0718 61.1696 78.7242 60.2546 79.2188 59.4276C79.7025 58.6187 80.0753 57.8298 80.1464 57.183C80.2417 56.3161 80.135 55.6134 79.8656 55.0484C79.5951 54.481 79.1795 54.0927 78.7257 53.8243C78.0133 53.403 77.1455 53.2558 76.5757 53.1594C76.9501 48.8975 77.6478 41.1661 77.9116 39.0323C78.2625 36.1935 80.0173 35.129 81.772 35.4839C83.5268 35.8387 84.5797 37.6129 84.2287 40.8064C84.0944 42.0283 83.806 45.0162 83.4814 48.3791C82.9577 53.8056 82.3397 60.2084 82.123 61.7419C81.772 64.2258 81.0701 66.7097 79.3154 68.4839C79.0215 68.781 78.6194 69.1777 78.1518 69.6388C75.8275 71.9314 71.8866 75.8184 71.5944 77C71.5503 77.1786 71.4894 77.4022 71.4175 77.6664C70.918 79.5022 69.8838 83.3025 70.1906 87.6452L57.2054 88Z" fill="#E20707"/>
<path d="M27.0906 88C26.6226 85.2796 25.6867 79.0581 25.6867 75.9355C25.6867 72.0322 22.8791 68.129 19.7206 64.9355C18.4087 63.6091 16.7336 61.793 15.1227 60.0465C12.8551 57.5881 10.7147 55.2675 9.8939 54.6451C9.15151 54.0822 8.57271 53.9017 8.19804 53.8782L8.23393 54.0596C8.09852 54.087 7.95579 54.1118 7.80855 54.1373C7.23852 54.2361 6.60085 54.3466 6.05805 54.6676C5.73684 54.8576 5.47246 55.1124 5.30067 55.4727C5.1277 55.8355 5.02964 56.3451 5.10985 57.0751C5.15575 57.4927 5.42629 58.1232 5.90404 58.9221C6.37098 59.703 6.99806 60.5844 7.68804 61.4877C8.58319 62.6595 9.55869 63.8362 10.4108 64.8641C10.8804 65.4305 11.3127 65.952 11.6733 66.4023L10.9222 67.017C10.5815 66.5915 10.1598 66.0827 9.69598 65.523C8.83418 64.4831 7.82685 63.2677 6.92329 62.0849C6.2241 61.1696 5.57166 60.2546 5.07713 59.4276C4.59342 58.6187 4.22056 57.8298 4.14947 57.183C4.0542 56.3161 4.16087 55.6134 4.43024 55.0484C4.7008 54.481 5.11638 54.0927 5.57019 53.8243C6.28264 53.403 7.1504 53.2557 7.72023 53.1594C7.34581 48.8975 6.64819 41.1661 6.38438 39.0323C6.03343 36.1935 4.27867 35.129 2.52391 35.4839C0.769147 35.8387 -0.28371 37.6129 0.0672433 40.8064C0.201519 42.0283 0.489917 45.0162 0.814503 48.3791C1.33828 53.8056 1.95628 60.2084 2.17296 61.7419C2.52391 64.2258 3.22581 66.7097 4.98057 68.4839C5.27444 68.781 5.67659 69.1777 6.14415 69.6388C8.46847 71.9314 12.4093 75.8184 12.7015 77C12.7457 77.1786 12.8065 77.4022 12.8784 77.6664C13.378 79.5022 14.4121 83.3025 14.1053 87.6452L27.0906 88Z" fill="white"/>
<path d="M27.0906 88C26.6226 85.2796 25.6867 79.0581 25.6867 75.9355C25.6867 72.0322 22.8791 68.129 19.7206 64.9355C18.4087 63.6091 16.7336 61.793 15.1227 60.0465C12.8551 57.5881 10.7147 55.2675 9.8939 54.6451C9.15151 54.0822 8.57271 53.9017 8.19804 53.8782L8.23393 54.0596C8.09852 54.087 7.95579 54.1118 7.80855 54.1373C7.23852 54.2361 6.60085 54.3466 6.05805 54.6676C5.73684 54.8576 5.47246 55.1124 5.30067 55.4727C5.1277 55.8355 5.02964 56.3451 5.10985 57.0751C5.15575 57.4927 5.42629 58.1232 5.90404 58.9221C6.37098 59.703 6.99806 60.5844 7.68804 61.4877C8.58319 62.6595 9.55869 63.8362 10.4108 64.8641C10.8804 65.4305 11.3127 65.952 11.6733 66.4023L10.9222 67.017C10.5815 66.5915 10.1598 66.0827 9.69598 65.523C8.83418 64.4831 7.82685 63.2677 6.92329 62.0849C6.2241 61.1696 5.57166 60.2546 5.07713 59.4276C4.59342 58.6187 4.22056 57.8298 4.14947 57.183C4.0542 56.3161 4.16087 55.6134 4.43024 55.0484C4.7008 54.481 5.11638 54.0927 5.57019 53.8243C6.28264 53.403 7.1504 53.2557 7.72023 53.1594C7.34581 48.8975 6.64819 41.1661 6.38438 39.0323C6.03343 36.1935 4.27867 35.129 2.52391 35.4839C0.769147 35.8387 -0.28371 37.6129 0.0672433 40.8064C0.201519 42.0283 0.489917 45.0162 0.814503 48.3791C1.33828 53.8056 1.95628 60.2084 2.17296 61.7419C2.52391 64.2258 3.22581 66.7097 4.98057 68.4839C5.27444 68.781 5.67659 69.1777 6.14415 69.6388C8.46847 71.9314 12.4093 75.8184 12.7015 77C12.7457 77.1786 12.8065 77.4022 12.8784 77.6664C13.378 79.5022 14.4121 83.3025 14.1053 87.6452L27.0906 88Z" fill="#E20707"/>
<path fill-rule="evenodd" clip-rule="evenodd" d="M65.6283 39.7419C66.6812 38.914 69.4186 35.9806 71.9455 30.871C75.104 24.4839 78.9645 18.0968 84.5798 17.3871C90.195 16.6774 77.5608 30.8708 74.4022 34.4193C71.8753 37.258 70.7756 39.1505 70.5417 39.7419H72.2964C72.1794 46.4839 68.436 61.671 54.3979 68.4839H29.8312C23.865 64.9355 12.0029 54.1484 12.2836 39.3871L65.6283 39.7419ZM18.2843 42.2258H23.8996C23.4316 46.8387 23.4784 57.0581 27.4091 61.0323C24.1335 58.9032 17.7228 52.1613 18.2843 42.2258Z" fill="white"/>
<path fill-rule="evenodd" clip-rule="evenodd" d="M65.6283 39.7419C66.6812 38.914 69.4186 35.9806 71.9455 30.871C75.104 24.4839 78.9645 18.0968 84.5798 17.3871C90.195 16.6774 77.5608 30.8708 74.4022 34.4193C71.8753 37.258 70.7756 39.1505 70.5417 39.7419H72.2964C72.1794 46.4839 68.436 61.671 54.3979 68.4839H29.8312C23.865 64.9355 12.0029 54.1484 12.2836 39.3871L65.6283 39.7419ZM18.2843 42.2258H23.8996C23.4316 46.8387 23.4784 57.0581 27.4091 61.0323C24.1335 58.9032 17.7228 52.1613 18.2843 42.2258Z" fill="#E20707"/>
<path d="M104.616 57.8733V34.1267C104.616 33.0777 104.172 32.3306 103.285 31.8856C102.428 31.4087 102 30.8524 102 30.2166C102 29.2947 102.704 28.8338 104.111 28.8338H116.778C118.124 28.8338 118.797 29.2947 118.797 30.2166C118.797 30.8842 118.353 31.4564 117.466 31.9332C116.609 32.3783 116.181 33.1094 116.181 34.1267V44.1403H117.695C120.847 44.1403 122.422 42.6303 122.422 39.6104V36.1294C122.422 31.0431 124.61 28.5 128.985 28.5C130.851 28.5 132.335 28.945 133.437 29.8351C134.66 30.7888 135.272 32.2193 135.272 34.1267C135.272 35.2393 134.875 36.2089 134.079 37.0354C133.284 37.8302 132.351 38.2275 131.28 38.2275C130.27 38.2275 129.413 37.9573 128.71 37.4169C127.884 36.7811 127.471 35.9705 127.471 34.985C127.471 34.2857 127.624 33.7929 127.93 33.5068C128.266 33.2207 128.434 32.9187 128.434 32.6008C128.434 31.8697 128.113 31.5041 127.471 31.5041C126.828 31.5041 126.354 31.7584 126.048 32.267C125.681 32.871 125.497 35.1599 125.497 39.1335C125.497 40.119 125.344 41.1521 125.038 42.233C124.702 43.4092 124.182 44.2198 123.478 44.6649C125.803 44.9827 127.746 45.7616 129.306 47.0014C131.173 48.4637 132.106 50.3233 132.106 52.5804V56.5858C132.106 57.4441 132.351 57.8733 132.84 57.8733C133.146 57.8733 133.498 57.6508 133.896 57.2057C134.293 56.7607 134.676 56.5381 135.043 56.5381C136.022 56.5381 136.511 56.9832 136.511 57.8733C136.511 58.4137 136.343 59.0177 136.007 59.6853C135.364 60.9251 134.278 61.8946 132.748 62.594C131.433 63.198 130.01 63.5 128.48 63.5C123.463 63.5 120.954 60.7025 120.954 55.1076C120.954 52.6599 120.954 51.4995 120.954 51.6267C120.893 50.0372 120.648 48.9087 120.219 48.2411C119.822 47.5736 119.21 47.1762 118.384 47.049C118.2 47.0173 117.466 47.0014 116.181 47.0014V58.2548C116.181 59.0813 116.609 59.7171 117.466 60.1621C118.353 60.5754 118.797 61.0999 118.797 61.7357C118.797 62.6894 118.124 63.1662 116.778 63.1662H104.111C102.704 63.1662 102 62.6894 102 61.7357C102 61.0999 102.428 60.5754 103.285 60.1621C104.172 59.7171 104.616 58.9541 104.616 57.8733Z" fill="#E20707"/>
<path d="M141.465 57.8733V34.1267C141.465 33.0777 141.022 32.3306 140.135 31.8856C139.278 31.4087 138.85 30.8524 138.85 30.2166C138.85 29.2947 139.553 28.8338 140.961 28.8338H155.555C164.397 28.8338 168.818 32.3624 168.818 39.4196C168.818 46.4768 164.397 50.0054 155.555 50.0054H153.03V57.8733C153.03 58.7952 153.551 59.5422 154.591 60.1144C155.631 60.6866 156.151 61.243 156.151 61.7834C156.151 62.7053 155.34 63.1662 153.719 63.1662H140.961C139.553 63.1662 138.85 62.6894 138.85 61.7357C138.85 61.1635 139.278 60.639 140.135 60.1621C141.022 59.6535 141.465 58.8906 141.465 57.8733ZM153.03 31.7425V47.049H154.545C156.595 47.049 157.62 45.6344 157.62 42.8052V36.0817C157.62 33.1889 156.595 31.7425 154.545 31.7425H153.03Z" fill="#E20707"/>
<path d="M186.521 44.951V60.2575H188.035C190.085 60.2575 191.11 58.8111 191.11 55.9183V49.1948C191.11 46.3656 190.085 44.951 188.035 44.951H186.521ZM186.521 34.1267V42.0899H189.045C197.887 42.0899 202.308 45.5867 202.308 52.5804C202.308 59.6376 197.887 63.1662 189.045 63.1662H174.451C173.044 63.1662 172.34 62.7053 172.34 61.7834C172.34 61.1476 172.768 60.6072 173.625 60.1621C174.512 59.6853 174.956 58.9223 174.956 57.8733V34.1267C174.956 33.1094 174.512 32.3624 173.625 31.8856C172.768 31.3769 172.34 30.8365 172.34 30.2643C172.34 29.3106 173.044 28.8338 174.451 28.8338H187.209C188.831 28.8338 189.642 29.2947 189.642 30.2166C189.642 30.757 189.121 31.3134 188.081 31.8856C187.041 32.4578 186.521 33.2048 186.521 34.1267ZM216.902 28.8338C218.279 28.8338 218.967 29.2947 218.967 30.2166C218.967 30.8842 218.523 31.4405 217.636 31.8856C216.749 32.3306 216.305 33.0777 216.305 34.1267V57.9687C216.305 58.9541 216.749 59.6694 217.636 60.1144C218.523 60.5595 218.967 61.0999 218.967 61.7357C218.967 62.6894 218.279 63.1662 216.902 63.1662H204.19C202.813 63.1662 202.124 62.6894 202.124 61.7357C202.124 61.0681 202.476 60.5913 203.18 60.3052C204.006 59.9555 204.48 59.5899 204.603 59.2084C204.694 58.9223 204.74 58.525 204.74 58.0163V33.9837C204.74 33.03 204.297 32.3306 203.409 31.8856C202.553 31.4087 202.124 30.8524 202.124 30.2166C202.124 29.2947 202.813 28.8338 204.19 28.8338H216.902Z" fill="#E20707"/>
<path d="M244.033 38.3229L236.644 63.1662H235.175L228.245 42.376H228.154V54.7262C228.154 56.252 228.398 57.3965 228.888 58.1594C229.377 58.9223 230.28 59.6694 231.596 60.4005C232.024 60.6231 232.238 61.0204 232.238 61.5926C232.238 62.6417 231.534 63.1662 230.127 63.1662H223.427C222.05 63.1662 221.361 62.6417 221.361 61.5926C221.361 61.0204 221.576 60.6231 222.004 60.4005C223.319 59.733 224.207 59.0018 224.666 58.2071C225.155 57.4124 225.4 56.252 225.4 54.7262V35.4142C225.4 34.2698 225.048 33.3638 224.344 32.6962C224.191 32.5372 223.549 32.1399 222.417 31.5041C221.713 31.0908 221.361 30.614 221.361 30.0736C221.361 29.247 221.989 28.8338 223.243 28.8338H235.405L240.04 42.376L244.124 28.8338H256.194C257.602 28.8338 258.305 29.2947 258.305 30.2166C258.305 30.8842 257.862 31.4246 256.974 31.8379C256.118 32.2511 255.689 32.9187 255.689 33.8406V58.2548C255.689 59.1449 256.118 59.7965 256.974 60.2098C257.862 60.5913 258.305 61.0999 258.305 61.7357C258.305 62.6894 257.602 63.1662 256.194 63.1662H243.574C242.166 63.1662 241.463 62.6894 241.463 61.7357C241.463 61.1317 241.906 60.6072 242.793 60.1621C243.681 59.6853 244.124 58.9223 244.124 57.8733V38.3229H244.033Z" fill="#E20707"/>
<path d="M302.988 63.1662H290.367C288.96 63.1662 288.256 62.6894 288.256 61.7357C288.256 61.1317 288.7 60.6072 289.587 60.1621C290.474 59.6853 290.918 58.9223 290.918 57.8733V31.8379H286.099C284.233 31.8379 283.055 32.1558 282.565 32.7916C282.198 33.3002 282.015 34.5876 282.015 36.654V55.8706C282.015 58.3819 281.586 60.2257 280.73 61.4019C279.751 62.8006 278.098 63.5 275.773 63.5C273.907 63.5 272.423 63.0549 271.322 62.1648C270.098 61.2112 269.486 59.7807 269.486 57.8733C269.486 56.7607 269.884 55.807 270.679 55.0123C271.475 54.1857 272.408 53.7725 273.479 53.7725C274.488 53.7725 275.345 54.0427 276.049 54.5831C276.875 55.2189 277.288 56.0295 277.288 57.015C277.288 57.5872 277.135 58.0799 276.829 58.4932C276.553 58.8747 276.416 59.1449 276.416 59.3038C276.416 60.0985 276.676 60.4959 277.196 60.4959C278.022 60.4959 278.573 60.178 278.848 59.5422C279.123 58.8747 279.261 57.5236 279.261 55.4891V37.6076C279.261 34.3015 278.71 32.4419 277.609 32.0286C276.936 31.9332 276.247 31.8379 275.544 31.7425C274.748 31.6154 274.351 31.1703 274.351 30.4074C274.351 29.3583 275.039 28.8338 276.416 28.8338H302.988C304.365 28.8338 305.053 29.2947 305.053 30.2166C305.053 30.8842 304.625 31.4246 303.768 31.8379C302.911 32.2511 302.483 32.9187 302.483 33.8406V58.2548C302.483 59.1449 302.942 59.7965 303.86 60.2098C304.778 60.5913 305.236 61.0999 305.236 61.7357C305.236 62.6894 304.487 63.1662 302.988 63.1662Z" fill="#E20707"/>
<path d="M314.939 63.1662H308.743C307.305 63.1662 306.586 62.6735 306.586 61.688C306.586 61.1476 306.755 60.7979 307.091 60.639C308.254 60.0985 309.202 59.3992 309.937 58.5409C310.518 57.8733 311.053 56.7448 311.543 55.1553L317.371 36.4632C317.83 35.0009 318.06 33.7929 318.06 32.8392C318.06 32.3624 317.662 31.965 316.866 31.6471C316.071 31.2975 315.673 30.8206 315.673 30.2166C315.673 29.2947 316.377 28.8338 317.784 28.8338H328.707L336.325 57.8256C336.509 58.5886 337.059 59.3038 337.977 59.9714C338.803 60.5754 339.216 61.1317 339.216 61.6403C339.216 62.6576 338.329 63.1662 336.554 63.1662H325.035C323.291 63.1662 322.419 62.6258 322.419 61.545C322.419 61.0045 322.771 60.5436 323.475 60.1621C324.179 59.7489 324.53 59.3674 324.53 59.0177C324.53 58.6362 324.117 56.7289 323.291 53.2956H315.168C314.434 55.6798 314.067 57.2216 314.067 57.921C314.067 58.8111 314.602 59.5104 315.673 60.0191C316.775 60.5277 317.325 61.0681 317.325 61.6403C317.325 62.6576 316.53 63.1662 314.939 63.1662ZM319.895 38.3706L316.132 50.2916H322.649L319.895 38.3706Z" fill="#E20707"/>
<path d="M355.665 43.8542H361.035V33.6022C361.035 32.871 360.729 32.2352 360.117 31.6948C359.536 31.1226 359.245 30.5663 359.245 30.0259C359.245 29.2312 359.75 28.8338 360.759 28.8338H373.196C374.512 28.8338 375.17 29.2947 375.17 30.2166C375.17 30.8524 374.741 31.4087 373.885 31.8856C373.028 32.3624 372.6 33.1094 372.6 34.1267V58.2548C372.6 59.0813 373.028 59.7171 373.885 60.1621C374.741 60.5754 375.17 61.0999 375.17 61.7357C375.17 62.6894 374.512 63.1662 373.196 63.1662H360.759C359.75 63.1662 359.245 62.753 359.245 61.9264C359.245 61.4178 359.536 60.8933 360.117 60.3529C360.729 59.7807 361.035 59.129 361.035 58.3978V46.8583H355.665V58.3501C355.665 59.2084 355.971 59.9237 356.583 60.4959C357.195 61.0363 357.501 61.5132 357.501 61.9264C357.501 62.753 356.966 63.1662 355.895 63.1662H343.504C342.157 63.1662 341.484 62.6894 341.484 61.7357C341.484 61.0999 341.913 60.5595 342.769 60.1144C343.657 59.6694 344.1 58.9223 344.1 57.8733V34.1267C344.1 33.0777 343.657 32.3306 342.769 31.8856C341.913 31.4087 341.484 30.8524 341.484 30.2166C341.484 29.2947 342.157 28.8338 343.504 28.8338H355.895C356.966 28.8338 357.501 29.2312 357.501 30.0259C357.501 30.5663 357.195 31.1226 356.583 31.6948C355.971 32.267 355.665 32.9028 355.665 33.6022V43.8542Z" fill="#E20707"/>
<path d="M407.935 63.1662H395.177C393.524 63.1662 392.698 62.7053 392.698 61.7834C392.698 61.243 393.218 60.6866 394.259 60.1144C395.33 59.5104 395.865 58.7634 395.865 57.8733V49.767C393.876 49.926 392.775 50.0054 392.561 50.0054C384.208 50.0054 380.032 47.0649 380.032 41.1839V34.1267C380.032 33.0777 379.588 32.3306 378.701 31.8856C377.844 31.4087 377.416 30.8524 377.416 30.2166C377.416 29.2947 378.12 28.8338 379.527 28.8338H388.706C389.807 28.8338 390.541 29.2312 390.909 30.0259C391.153 30.5345 391.276 31.4405 391.276 32.7439V42.8052C391.276 45.6662 392.301 47.0967 394.35 47.0967H395.865V33.6022C395.865 32.871 395.559 32.2352 394.947 31.6948C394.366 31.1226 394.075 30.5663 394.075 30.0259C394.075 29.2312 394.672 28.8338 395.865 28.8338H407.935C409.312 28.8338 410 29.2947 410 30.2166C410 30.8524 409.572 31.3928 408.715 31.8379C407.858 32.2829 407.43 33.0459 407.43 34.1267V57.8733C407.43 58.9223 407.858 59.6853 408.715 60.1621C409.572 60.6072 410 61.1317 410 61.7357C410 62.6894 409.312 63.1662 407.935 63.1662Z" fill="#E20707"/>
<path d="M102.252 91.398V86.484H103.332C104.628 85.008 105.276 82.524 105.276 79.032V75.756H114.186V86.484H115.608V91.398H113.574V88.5H104.286V91.398H102.252ZM105.888 86.484H111.918V77.736H107.472V79.266C107.472 82.554 106.944 84.96 105.888 86.484ZM116.262 84.144C116.262 82.812 116.712 81.726 117.612 80.886C118.512 80.034 119.628 79.608 120.96 79.608C122.292 79.608 123.408 80.034 124.308 80.886C125.208 81.726 125.658 82.812 125.658 84.144C125.658 85.488 125.202 86.592 124.29 87.456C123.39 88.32 122.28 88.752 120.96 88.752C119.64 88.752 118.524 88.32 117.612 87.456C116.712 86.592 116.262 85.488 116.262 84.144ZM119.106 82.2C118.674 82.752 118.458 83.4 118.458 84.144C118.458 84.888 118.674 85.542 119.106 86.106C119.538 86.67 120.156 86.952 120.96 86.952C121.764 86.952 122.382 86.67 122.814 86.106C123.246 85.542 123.462 84.888 123.462 84.144C123.462 83.4 123.246 82.752 122.814 82.2C122.382 81.648 121.764 81.372 120.96 81.372C120.156 81.372 119.538 81.648 119.106 82.2ZM134.592 80.958L133.116 82.254C132.948 82.014 132.696 81.816 132.36 81.66C132.024 81.492 131.682 81.408 131.334 81.408C130.59 81.408 130.008 81.69 129.588 82.254C129.168 82.806 128.958 83.448 128.958 84.18C128.958 84.924 129.174 85.572 129.606 86.124C130.038 86.676 130.638 86.952 131.406 86.952C132.198 86.952 132.804 86.694 133.224 86.178L134.574 87.546C133.83 88.35 132.768 88.752 131.388 88.752C130.068 88.752 128.958 88.338 128.058 87.51C127.158 86.682 126.708 85.572 126.708 84.18C126.708 82.812 127.152 81.708 128.04 80.868C128.928 80.028 130.026 79.608 131.334 79.608C131.97 79.608 132.588 79.728 133.188 79.968C133.788 80.208 134.256 80.538 134.592 80.958ZM137.614 88.5V81.588H134.842V79.86H142.528V81.588H139.774V88.5H137.614ZM149.004 88.5V87.402H148.95C148.734 87.786 148.38 88.104 147.888 88.356C147.408 88.596 146.868 88.716 146.268 88.716C145.44 88.716 144.69 88.5 144.018 88.068C143.358 87.624 143.028 86.946 143.028 86.034C143.028 85.542 143.148 85.116 143.388 84.756C143.64 84.384 143.952 84.096 144.324 83.892C144.696 83.688 145.158 83.526 145.71 83.406C146.274 83.274 146.802 83.19 147.294 83.154C147.798 83.118 148.356 83.1 148.968 83.1V82.884C148.968 82.38 148.782 81.99 148.41 81.714C148.038 81.438 147.564 81.3 146.988 81.3C146.076 81.3 145.29 81.63 144.63 82.29L143.514 80.976C144.498 80.064 145.716 79.608 147.168 79.608C147.912 79.608 148.542 79.716 149.058 79.932C149.586 80.136 149.988 80.424 150.264 80.796C150.54 81.156 150.732 81.54 150.84 81.948C150.96 82.344 151.02 82.776 151.02 83.244V88.5H149.004ZM148.968 84.864V84.558H148.482C146.286 84.558 145.188 85.038 145.188 85.998C145.188 86.382 145.332 86.658 145.62 86.826C145.92 86.994 146.28 87.078 146.7 87.078C147.432 87.078 147.99 86.886 148.374 86.502C148.77 86.106 148.968 85.56 148.968 84.864ZM152.996 88.5V79.86H157.46C157.976 79.86 158.438 79.914 158.846 80.022C159.266 80.13 159.644 80.364 159.98 80.724C160.316 81.072 160.484 81.534 160.484 82.11C160.484 82.554 160.346 82.944 160.07 83.28C159.806 83.604 159.458 83.82 159.026 83.928V83.964C159.566 84.048 160.004 84.276 160.34 84.648C160.688 85.008 160.862 85.476 160.862 86.052C160.862 86.82 160.562 87.42 159.962 87.852C159.362 88.284 158.57 88.5 157.586 88.5H152.996ZM155.156 86.952H157.19C158.186 86.952 158.684 86.604 158.684 85.908C158.684 85.212 158.204 84.864 157.244 84.864H155.156V86.952ZM155.156 83.316H157.208C158 83.316 158.396 82.998 158.396 82.362C158.396 81.714 157.946 81.39 157.046 81.39H155.156V83.316ZM162.406 88.5V79.86H164.566V83.694H164.62L167.95 79.86H170.686L166.888 83.928L170.974 88.5H168.202L164.62 84.396H164.566V88.5H162.406ZM177.003 88.5V87.402H176.949C176.733 87.786 176.379 88.104 175.887 88.356C175.407 88.596 174.867 88.716 174.267 88.716C173.439 88.716 172.689 88.5 172.017 88.068C171.357 87.624 171.027 86.946 171.027 86.034C171.027 85.542 171.147 85.116 171.387 84.756C171.639 84.384 171.951 84.096 172.323 83.892C172.695 83.688 173.157 83.526 173.709 83.406C174.273 83.274 174.801 83.19 175.293 83.154C175.797 83.118 176.355 83.1 176.967 83.1V82.884C176.967 82.38 176.781 81.99 176.409 81.714C176.037 81.438 175.563 81.3 174.987 81.3C174.075 81.3 173.289 81.63 172.629 82.29L171.513 80.976C172.497 80.064 173.715 79.608 175.167 79.608C175.911 79.608 176.541 79.716 177.057 79.932C177.585 80.136 177.987 80.424 178.263 80.796C178.539 81.156 178.731 81.54 178.839 81.948C178.959 82.344 179.019 82.776 179.019 83.244V88.5H177.003ZM176.967 84.864V84.558H176.481C174.285 84.558 173.187 85.038 173.187 85.998C173.187 86.382 173.331 86.658 173.619 86.826C173.919 86.994 174.279 87.078 174.699 87.078C175.431 87.078 175.989 86.886 176.373 86.502C176.769 86.106 176.967 85.56 176.967 84.864ZM185.064 88.5V75.756H193.416V77.664H187.332V80.94H189.582C190.998 80.94 192.138 81.252 193.002 81.876C193.866 82.5 194.298 83.448 194.298 84.72C194.298 85.968 193.866 86.91 193.002 87.546C192.138 88.182 191.004 88.5 189.6 88.5H185.064ZM187.332 86.592H189.348C191.124 86.592 192.012 85.968 192.012 84.72C192.012 84.108 191.778 83.646 191.31 83.334C190.854 83.01 190.2 82.848 189.348 82.848H187.332V86.592ZM195.876 88.5V79.86H198.036V85.44H198.072L201.852 79.86H204.192V88.5H202.032V82.956H201.996L198.252 88.5H195.876ZM209.006 88.788C207.386 88.788 206.126 88.266 205.226 87.222L206.522 85.962C206.774 86.298 207.104 86.574 207.512 86.79C207.932 87.006 208.376 87.114 208.844 87.114C209.984 87.114 210.554 86.748 210.554 86.016C210.554 85.572 210.374 85.266 210.014 85.098C209.666 84.93 209.18 84.846 208.556 84.846H207.872V83.298H208.556C209.744 83.298 210.338 82.932 210.338 82.2C210.338 81.564 209.852 81.246 208.88 81.246C208.004 81.246 207.314 81.576 206.81 82.236L205.604 81.066C206.372 80.094 207.548 79.608 209.132 79.608C210.152 79.608 210.968 79.818 211.58 80.238C212.204 80.658 212.516 81.234 212.516 81.966C212.516 82.458 212.354 82.89 212.03 83.262C211.706 83.622 211.292 83.856 210.788 83.964V84C211.376 84.108 211.85 84.348 212.21 84.72C212.57 85.092 212.75 85.554 212.75 86.106C212.75 86.946 212.39 87.606 211.67 88.086C210.962 88.554 210.074 88.788 209.006 88.788ZM214.361 88.5V79.86H216.521V83.118H220.157V79.86H222.317V88.5H220.157V84.846H216.521V88.5H214.361ZM226.024 83.316H230.452C230.452 82.716 230.278 82.218 229.93 81.822C229.582 81.426 229.078 81.228 228.418 81.228C227.782 81.228 227.236 81.426 226.78 81.822C226.324 82.218 226.072 82.716 226.024 83.316ZM232.612 84.288C232.612 84.54 232.606 84.732 232.594 84.864H226.024C226.072 85.464 226.336 85.968 226.816 86.376C227.296 86.784 227.854 86.988 228.49 86.988C229.486 86.988 230.248 86.616 230.776 85.872L232.216 87.024C231.364 88.176 230.128 88.752 228.508 88.752C227.152 88.752 226.036 88.344 225.16 87.528C224.296 86.712 223.864 85.614 223.864 84.234C223.864 82.854 224.296 81.738 225.16 80.886C226.024 80.034 227.116 79.608 228.436 79.608C229.684 79.608 230.692 80.01 231.46 80.814C232.228 81.618 232.612 82.776 232.612 84.288ZM241.544 80.958L240.068 82.254C239.9 82.014 239.648 81.816 239.312 81.66C238.976 81.492 238.634 81.408 238.286 81.408C237.542 81.408 236.96 81.69 236.54 82.254C236.12 82.806 235.91 83.448 235.91 84.18C235.91 84.924 236.126 85.572 236.558 86.124C236.99 86.676 237.59 86.952 238.358 86.952C239.15 86.952 239.756 86.694 240.176 86.178L241.526 87.546C240.782 88.35 239.72 88.752 238.34 88.752C237.02 88.752 235.91 88.338 235.01 87.51C234.11 86.682 233.66 85.572 233.66 84.18C233.66 82.812 234.104 81.708 234.992 80.868C235.88 80.028 236.978 79.608 238.286 79.608C238.922 79.608 239.54 79.728 240.14 79.968C240.74 80.208 241.208 80.538 241.544 80.958ZM246.715 88.626C246.103 88.626 245.599 88.566 245.203 88.446L245.437 86.448C245.689 86.532 245.947 86.574 246.211 86.574C247.111 86.574 247.759 86.046 248.155 84.99C248.563 83.934 248.767 82.068 248.767 79.392V75.756H257.533V88.5H255.265V77.736H250.945V79.698C250.945 82.83 250.615 85.104 249.955 86.52C249.307 87.924 248.227 88.626 246.715 88.626ZM265.048 88.5V87.402H264.994C264.778 87.786 264.424 88.104 263.932 88.356C263.452 88.596 262.912 88.716 262.312 88.716C261.484 88.716 260.734 88.5 260.062 88.068C259.402 87.624 259.072 86.946 259.072 86.034C259.072 85.542 259.192 85.116 259.432 84.756C259.684 84.384 259.996 84.096 260.368 83.892C260.74 83.688 261.202 83.526 261.754 83.406C262.318 83.274 262.846 83.19 263.338 83.154C263.842 83.118 264.4 83.1 265.012 83.1V82.884C265.012 82.38 264.826 81.99 264.454 81.714C264.082 81.438 263.608 81.3 263.032 81.3C262.12 81.3 261.334 81.63 260.674 82.29L259.558 80.976C260.542 80.064 261.76 79.608 263.212 79.608C263.956 79.608 264.586 79.716 265.102 79.932C265.63 80.136 266.032 80.424 266.308 80.796C266.584 81.156 266.776 81.54 266.884 81.948C267.004 82.344 267.064 82.776 267.064 83.244V88.5H265.048ZM265.012 84.864V84.558H264.526C262.33 84.558 261.232 85.038 261.232 85.998C261.232 86.382 261.376 86.658 261.664 86.826C261.964 86.994 262.324 87.078 262.744 87.078C263.476 87.078 264.034 86.886 264.418 86.502C264.814 86.106 265.012 85.56 265.012 84.864ZM269.041 88.5V79.86H271.201V83.118H274.837V79.86H276.997V88.5H274.837V84.846H271.201V88.5H269.041ZM284.016 88.5V85.278C283.32 85.458 282.558 85.548 281.73 85.548C279.738 85.548 278.742 84.642 278.742 82.83V79.86H280.812V82.218C280.812 82.842 280.938 83.268 281.19 83.496C281.454 83.712 281.868 83.82 282.432 83.82C282.876 83.82 283.404 83.748 284.016 83.604V79.86H286.176V88.5H284.016ZM289.884 83.316H294.312C294.312 82.716 294.138 82.218 293.79 81.822C293.442 81.426 292.938 81.228 292.278 81.228C291.642 81.228 291.096 81.426 290.64 81.822C290.184 82.218 289.932 82.716 289.884 83.316ZM296.472 84.288C296.472 84.54 296.466 84.732 296.454 84.864H289.884C289.932 85.464 290.196 85.968 290.676 86.376C291.156 86.784 291.714 86.988 292.35 86.988C293.346 86.988 294.108 86.616 294.636 85.872L296.076 87.024C295.224 88.176 293.988 88.752 292.368 88.752C291.012 88.752 289.896 88.344 289.02 87.528C288.156 86.712 287.724 85.614 287.724 84.234C287.724 82.854 288.156 81.738 289.02 80.886C289.884 80.034 290.976 79.608 292.296 79.608C293.544 79.608 294.552 80.01 295.32 80.814C296.088 81.618 296.472 82.776 296.472 84.288ZM302.146 78.348C301.342 78.348 300.7 78.126 300.22 77.682C299.74 77.226 299.446 76.602 299.338 75.81L300.508 75.684C300.568 76.092 300.742 76.404 301.03 76.62C301.33 76.836 301.702 76.944 302.146 76.944C302.59 76.944 302.962 76.836 303.262 76.62C303.562 76.404 303.742 76.092 303.802 75.684L304.954 75.918C304.858 76.686 304.57 77.286 304.09 77.718C303.61 78.138 302.962 78.348 302.146 78.348ZM298.024 88.5V79.86H300.184V85.44H300.22L304 79.86H306.34V88.5H304.18V82.956H304.144L300.4 88.5H298.024Z" fill="white" fill-opacity="0.42"/>
</svg>
