<svg width="364" height="105" viewBox="0 0 364 105" fill="none" xmlns="http://www.w3.org/2000/svg">
<path d="M39.1048 28.742C39.8034 32.7445 44.3691 36.5484 46.4748 37.9678C42.6143 32.6452 41.9124 27.086 43.3162 23.7742C44.8911 20.0587 52.09 17.0323 51.739 9.93549C51.4583 4.25807 45.0709 0.946237 41.9124 0C43.7841 0.946237 47.5978 3.83226 47.8786 7.80646C48.2295 12.7742 46.1238 15.2581 42.9653 17.7419C39.8067 20.2258 38.0519 22.7097 39.1048 28.742Z" fill="url(#paint0_linear_47_7123)"/>
<path d="M46.8259 28.3871C46.8259 32.3613 49.3995 35.957 50.6864 37.2581C48.2297 28.0323 52.0902 26.6129 55.9506 22.3549C59.039 18.9484 55.5997 14.5484 53.494 12.7742C53.9619 13.2473 54.7574 14.8323 54.1959 17.3871C53.494 20.5807 46.8259 23.4194 46.8259 28.3871Z" fill="url(#paint1_linear_47_7123)"/>
<path d="M33.5819 20.9355C32.88 23.0646 29.3705 25.1936 30.0724 28.742C30.6217 31.519 34.6347 35.8388 37.2941 37.4937C34.6347 33.7097 32.88 29.0968 33.5819 27.3226C34.2838 25.5484 37.4424 24.1291 37.4424 19.871C37.4424 16.4646 34.6347 13.957 33.2309 13.1291C34.6347 15.9678 34.2838 18.8065 33.5819 20.9355Z" fill="url(#paint2_linear_47_7123)"/>
<path d="M57.7054 88C58.1733 85.2796 59.1092 79.0581 59.1092 75.9355C59.1092 72.0322 61.9168 68.129 65.0754 64.9355C66.3872 63.6091 68.0623 61.793 69.6732 60.0465C71.9409 57.5881 74.0813 55.2675 74.902 54.6451C75.6444 54.0822 76.2232 53.9017 76.5978 53.8782L76.562 54.0596C76.6974 54.087 76.8401 54.1118 76.9873 54.1373C77.5574 54.2361 78.195 54.3466 78.7378 54.6676C79.059 54.8576 79.3234 55.1124 79.4952 55.4727C79.6682 55.8355 79.7663 56.3451 79.686 57.0751C79.6401 57.4927 79.3696 58.1232 78.8918 58.9221C78.4249 59.703 77.7978 60.5844 77.1078 61.4877C76.2127 62.6595 75.2372 63.8362 74.385 64.8641C73.9155 65.4305 73.4832 65.952 73.1226 66.4023L73.8737 67.017C74.2144 66.5915 74.6361 66.0827 75.0999 65.523C75.9617 64.4831 76.969 63.2677 77.8726 62.0849C78.5718 61.1696 79.2242 60.2546 79.7188 59.4276C80.2025 58.6187 80.5753 57.8298 80.6464 57.183C80.7417 56.3161 80.635 55.6134 80.3656 55.0484C80.0951 54.481 79.6795 54.0927 79.2257 53.8243C78.5133 53.403 77.6455 53.2558 77.0757 53.1594C77.4501 48.8975 78.1478 41.1661 78.4116 39.0323C78.7625 36.1935 80.5173 35.129 82.272 35.4839C84.0268 35.8387 85.0797 37.6129 84.7287 40.8064C84.5944 42.0283 84.306 45.0162 83.9814 48.3791C83.4577 53.8056 82.8397 60.2084 82.623 61.7419C82.272 64.2258 81.5701 66.7097 79.8154 68.4839C79.5215 68.781 79.1194 69.1777 78.6518 69.6388C76.3275 71.9314 72.3866 75.8184 72.0944 77C72.0503 77.1786 71.9894 77.4022 71.9175 77.6664C71.418 79.5022 70.3838 83.3025 70.6906 87.6452L57.7054 88Z" fill="url(#paint3_linear_47_7123)"/>
<path d="M27.5906 88C27.1226 85.2796 26.1867 79.0581 26.1867 75.9355C26.1867 72.0322 23.3791 68.129 20.2206 64.9355C18.9087 63.6091 17.2336 61.793 15.6227 60.0465C13.3551 57.5881 11.2147 55.2675 10.3939 54.6451C9.65151 54.0822 9.07271 53.9017 8.69804 53.8782L8.73393 54.0596C8.59852 54.087 8.45579 54.1118 8.30855 54.1373C7.73852 54.2361 7.10085 54.3466 6.55805 54.6676C6.23684 54.8576 5.97246 55.1124 5.80067 55.4727C5.6277 55.8355 5.52964 56.3451 5.60985 57.0751C5.65575 57.4927 5.92629 58.1232 6.40404 58.9221C6.87098 59.703 7.49806 60.5844 8.18804 61.4877C9.08319 62.6595 10.0587 63.8362 10.9108 64.8641C11.3804 65.4305 11.8127 65.952 12.1733 66.4023L11.4222 67.017C11.0815 66.5915 10.6598 66.0827 10.196 65.523C9.33418 64.4831 8.32685 63.2677 7.42329 62.0849C6.7241 61.1696 6.07166 60.2546 5.57713 59.4276C5.09342 58.6187 4.72056 57.8298 4.64947 57.183C4.5542 56.3161 4.66087 55.6134 4.93024 55.0484C5.2008 54.481 5.61638 54.0927 6.07019 53.8243C6.78264 53.403 7.6504 53.2557 8.22023 53.1594C7.84581 48.8975 7.14819 41.1661 6.88438 39.0323C6.53343 36.1935 4.77867 35.129 3.02391 35.4839C1.26915 35.8387 0.21629 37.6129 0.567243 40.8064C0.701519 42.0283 0.989917 45.0162 1.3145 48.3791C1.83828 53.8056 2.45628 60.2084 2.67296 61.7419C3.02391 64.2258 3.72581 66.7097 5.48057 68.4839C5.77444 68.781 6.17659 69.1777 6.64415 69.6388C8.96847 71.9314 12.9093 75.8184 13.2015 77C13.2457 77.1786 13.3065 77.4022 13.3784 77.6664C13.878 79.5022 14.9121 83.3025 14.6053 87.6452L27.5906 88Z" fill="url(#paint4_linear_47_7123)"/>
<path fill-rule="evenodd" clip-rule="evenodd" d="M66.1283 39.7419C67.1812 38.914 69.9186 35.9806 72.4455 30.871C75.604 24.4839 79.4645 18.0968 85.0798 17.3871C90.695 16.6774 78.0608 30.8708 74.9022 34.4193C72.3753 37.258 71.2756 39.1505 71.0417 39.7419H72.7964C72.6794 46.4839 68.936 61.671 54.8979 68.4839H30.3312C24.365 64.9355 12.5029 54.1484 12.7836 39.3871L66.1283 39.7419ZM18.7843 42.2258H24.3996C23.9316 46.8387 23.9784 57.0581 27.9091 61.0323C24.6335 58.9032 18.2228 52.1613 18.7843 42.2258Z" fill="url(#paint5_linear_47_7123)"/>
<path d="M104.791 60.6771V40.3229C104.791 39.4237 104.403 38.7834 103.625 38.4019C102.875 37.9932 102.5 37.5164 102.5 36.9714C102.5 36.1812 103.116 35.7861 104.349 35.7861H115.443C116.622 35.7861 117.211 36.1812 117.211 36.9714C117.211 37.5436 116.823 38.0341 116.046 38.4428C115.295 38.8243 114.92 39.451 114.92 40.3229V48.906H116.247C119.007 48.906 120.387 47.6117 120.387 45.0232V42.0395C120.387 37.6798 122.303 35.5 126.135 35.5C127.769 35.5 129.069 35.8815 130.033 36.6444C131.105 37.4619 131.641 38.688 131.641 40.3229C131.641 41.2766 131.293 42.1076 130.596 42.8161C129.899 43.4973 129.082 43.8379 128.144 43.8379C127.26 43.8379 126.51 43.6063 125.893 43.1431C125.17 42.5981 124.808 41.9033 124.808 41.0586C124.808 40.4591 124.942 40.0368 125.21 39.7916C125.505 39.5463 125.652 39.2875 125.652 39.015C125.652 38.3883 125.371 38.0749 124.808 38.0749C124.245 38.0749 123.83 38.2929 123.562 38.7289C123.241 39.2466 123.08 41.2084 123.08 44.6144C123.08 45.4591 122.946 46.3447 122.678 47.2711C122.383 48.2793 121.927 48.9741 121.311 49.3556C123.348 49.6281 125.049 50.2956 126.416 51.3583C128.051 52.6117 128.868 54.2057 128.868 56.1403V59.5736C128.868 60.3093 129.082 60.6771 129.511 60.6771C129.779 60.6771 130.087 60.4864 130.435 60.1049C130.784 59.7234 131.119 59.5327 131.44 59.5327C132.298 59.5327 132.726 59.9142 132.726 60.6771C132.726 61.1403 132.579 61.658 132.284 62.2302C131.722 63.2929 130.77 64.124 129.431 64.7234C128.278 65.2411 127.032 65.5 125.692 65.5C121.298 65.5 119.1 63.1022 119.1 58.3065C119.1 56.2084 119.1 55.2139 119.1 55.3229C119.047 53.9605 118.832 52.9932 118.457 52.421C118.109 51.8488 117.573 51.5082 116.85 51.3992C116.689 51.3719 116.046 51.3583 114.92 51.3583V61.0041C114.92 61.7125 115.295 62.2575 116.046 62.639C116.823 62.9932 117.211 63.4428 117.211 63.9877C117.211 64.8052 116.622 65.2139 115.443 65.2139H104.349C103.116 65.2139 102.5 64.8052 102.5 63.9877C102.5 63.4428 102.875 62.9932 103.625 62.639C104.403 62.2575 104.791 61.6035 104.791 60.6771Z" fill="#DE4B44"/>
<path d="M137.065 60.6771V40.3229C137.065 39.4237 136.677 38.7834 135.9 38.4019C135.149 37.9932 134.774 37.5164 134.774 36.9714C134.774 36.1812 135.391 35.7861 136.623 35.7861H149.405C157.149 35.7861 161.021 38.8106 161.021 44.8597C161.021 50.9087 157.149 53.9332 149.405 53.9332H147.194V60.6771C147.194 61.4673 147.65 62.1076 148.561 62.5981C149.472 63.0886 149.928 63.5654 149.928 64.0286C149.928 64.8188 149.218 65.2139 147.797 65.2139H136.623C135.391 65.2139 134.774 64.8052 134.774 63.9877C134.774 63.4973 135.149 63.0477 135.9 62.639C136.677 62.203 137.065 61.549 137.065 60.6771ZM147.194 38.2793V51.3992H148.521C150.316 51.3992 151.214 50.1866 151.214 47.7616V41.9986C151.214 39.5191 150.316 38.2793 148.521 38.2793H147.194Z" fill="#DE4B44"/>
<path d="M176.527 49.6008V62.7207H177.853C179.648 62.7207 180.546 61.4809 180.546 59.0014V53.2384C180.546 50.8134 179.648 49.6008 177.853 49.6008H176.527ZM176.527 40.3229V47.1485H178.737C186.482 47.1485 190.354 50.1458 190.354 56.1403C190.354 62.1894 186.482 65.2139 178.737 65.2139H165.955C164.723 65.2139 164.106 64.8188 164.106 64.0286C164.106 63.4837 164.482 63.0204 165.232 62.639C166.009 62.2302 166.398 61.5763 166.398 60.6771V40.3229C166.398 39.451 166.009 38.8106 165.232 38.4019C164.482 37.9659 164.106 37.5027 164.106 37.0123C164.106 36.1948 164.723 35.7861 165.955 35.7861H177.13C178.55 35.7861 179.26 36.1812 179.26 36.9714C179.26 37.4346 178.804 37.9114 177.893 38.4019C176.982 38.8924 176.527 39.5327 176.527 40.3229ZM203.136 35.7861C204.341 35.7861 204.944 36.1812 204.944 36.9714C204.944 37.5436 204.556 38.0204 203.779 38.4019C203.002 38.7834 202.613 39.4237 202.613 40.3229V60.7589C202.613 61.6035 203.002 62.2166 203.779 62.5981C204.556 62.9796 204.944 63.4428 204.944 63.9877C204.944 64.8052 204.341 65.2139 203.136 65.2139H192.002C190.796 65.2139 190.193 64.8052 190.193 63.9877C190.193 63.4155 190.501 63.0068 191.117 62.7616C191.841 62.4619 192.256 62.1485 192.363 61.8215C192.444 61.5763 192.484 61.2357 192.484 60.7997V40.2003C192.484 39.3828 192.095 38.7834 191.318 38.4019C190.568 37.9932 190.193 37.5164 190.193 36.9714C190.193 36.1812 190.796 35.7861 192.002 35.7861H203.136Z" fill="#DE4B44"/>
<path d="M226.898 43.9196L220.426 65.2139H219.14L213.071 47.3937H212.99V57.9796C212.99 59.2875 213.205 60.2684 213.633 60.9223C214.062 61.5763 214.853 62.2166 216.005 62.8433C216.38 63.0341 216.568 63.3747 216.568 63.8651C216.568 64.7643 215.951 65.2139 214.719 65.2139H208.85C207.644 65.2139 207.041 64.7643 207.041 63.8651C207.041 63.3747 207.229 63.0341 207.604 62.8433C208.756 62.2711 209.533 61.6444 209.935 60.9632C210.364 60.282 210.579 59.2875 210.579 57.9796V41.4264C210.579 40.4455 210.27 39.6689 209.654 39.0967C209.52 38.9605 208.957 38.6199 207.966 38.0749C207.35 37.7207 207.041 37.312 207.041 36.8488C207.041 36.1403 207.591 35.7861 208.689 35.7861H219.341L223.401 47.3937L226.978 35.7861H237.549C238.782 35.7861 239.398 36.1812 239.398 36.9714C239.398 37.5436 239.01 38.0068 238.233 38.361C237.482 38.7153 237.107 39.2875 237.107 40.0777V61.0041C237.107 61.767 237.482 62.3256 238.233 62.6798C239.01 63.0068 239.398 63.4428 239.398 63.9877C239.398 64.8052 238.782 65.2139 237.549 65.2139H226.496C225.263 65.2139 224.647 64.8052 224.647 63.9877C224.647 63.47 225.035 63.0204 225.812 62.639C226.589 62.2302 226.978 61.5763 226.978 60.6771V43.9196H226.898Z" fill="#DE4B44"/>
<path d="M269.774 65.2139H258.721C257.488 65.2139 256.872 64.8052 256.872 63.9877C256.872 63.47 257.26 63.0204 258.038 62.639C258.815 62.2302 259.203 61.5763 259.203 60.6771V38.361H254.983C253.348 38.361 252.317 38.6335 251.888 39.1785C251.566 39.6144 251.405 40.718 251.405 42.4891V58.9605C251.405 61.1131 251.03 62.6935 250.28 63.7016C249.423 64.9005 247.976 65.5 245.939 65.5C244.304 65.5 243.005 65.1185 242.04 64.3556C240.968 63.5381 240.432 62.312 240.432 60.6771C240.432 59.7234 240.781 58.906 241.477 58.2248C242.174 57.5163 242.991 57.1621 243.929 57.1621C244.814 57.1621 245.564 57.3937 246.18 57.8569C246.904 58.4019 247.265 59.0967 247.265 59.9414C247.265 60.4319 247.131 60.8542 246.863 61.2084C246.622 61.5354 246.502 61.767 246.502 61.9033C246.502 62.5845 246.729 62.9251 247.185 62.9251C247.909 62.9251 248.391 62.6526 248.632 62.1076C248.873 61.5354 248.994 60.3774 248.994 58.6335V43.3065C248.994 40.4728 248.511 38.8787 247.547 38.5245C246.957 38.4428 246.354 38.361 245.738 38.2793C245.041 38.1703 244.693 37.7888 244.693 37.1349C244.693 36.2357 245.296 35.7861 246.502 35.7861H269.774C270.98 35.7861 271.583 36.1812 271.583 36.9714C271.583 37.5436 271.208 38.0068 270.458 38.361C269.707 38.7153 269.332 39.2875 269.332 40.0777V61.0041C269.332 61.767 269.734 62.3256 270.538 62.6798C271.342 63.0068 271.744 63.4428 271.744 63.9877C271.744 64.8052 271.088 65.2139 269.774 65.2139Z" fill="#DE4B44"/>
<path d="M280.242 65.2139H274.815C273.556 65.2139 272.926 64.7916 272.926 63.9469C272.926 63.4837 273.074 63.1839 273.368 63.0477C274.387 62.5845 275.217 61.985 275.861 61.2493C276.37 60.6771 276.839 59.7098 277.267 58.3474L282.372 42.3256C282.774 41.0722 282.975 40.0368 282.975 39.2193C282.975 38.8106 282.627 38.47 281.93 38.1975C281.233 37.8978 280.885 37.4891 280.885 36.9714C280.885 36.1812 281.501 35.7861 282.734 35.7861H292.3L298.973 60.6362C299.133 61.2902 299.616 61.9033 300.42 62.4755C301.143 62.9932 301.505 63.47 301.505 63.906C301.505 64.7779 300.728 65.2139 299.174 65.2139H289.085C287.557 65.2139 286.794 64.7507 286.794 63.8243C286.794 63.361 287.102 62.9659 287.718 62.639C288.334 62.2847 288.642 61.9578 288.642 61.658C288.642 61.3311 288.281 59.6962 287.557 56.7534H280.443C279.8 58.797 279.478 60.1185 279.478 60.718C279.478 61.4809 279.947 62.0804 280.885 62.5163C281.85 62.9523 282.332 63.4155 282.332 63.906C282.332 64.7779 281.635 65.2139 280.242 65.2139ZM284.583 43.9605L281.287 54.1785H286.994L284.583 43.9605Z" fill="#DE4B44"/>
<path d="M315.912 48.6608H320.614V39.8733C320.614 39.2466 320.346 38.7016 319.81 38.2384C319.301 37.748 319.047 37.2711 319.047 36.8079C319.047 36.1267 319.489 35.7861 320.373 35.7861H331.266C332.418 35.7861 332.994 36.1812 332.994 36.9714C332.994 37.5164 332.619 37.9932 331.869 38.4019C331.119 38.8106 330.743 39.451 330.743 40.3229V61.0041C330.743 61.7125 331.119 62.2575 331.869 62.639C332.619 62.9932 332.994 63.4428 332.994 63.9877C332.994 64.8052 332.418 65.2139 331.266 65.2139H320.373C319.489 65.2139 319.047 64.8597 319.047 64.1512C319.047 63.7153 319.301 63.2657 319.81 62.8025C320.346 62.312 320.614 61.7534 320.614 61.1267V51.2357H315.912V61.0858C315.912 61.8215 316.179 62.4346 316.715 62.9251C317.251 63.3883 317.519 63.797 317.519 64.1512C317.519 64.8597 317.05 65.2139 316.112 65.2139H305.26C304.081 65.2139 303.491 64.8052 303.491 63.9877C303.491 63.4428 303.866 62.9796 304.617 62.5981C305.394 62.2166 305.782 61.5763 305.782 60.6771V40.3229C305.782 39.4237 305.394 38.7834 304.617 38.4019C303.866 37.9932 303.491 37.5164 303.491 36.9714C303.491 36.1812 304.081 35.7861 305.26 35.7861H316.112C317.05 35.7861 317.519 36.1267 317.519 36.8079C317.519 37.2711 317.251 37.748 316.715 38.2384C316.179 38.7289 315.912 39.2738 315.912 39.8733V48.6608Z" fill="#DE4B44"/>
<path d="M361.691 65.2139H350.517C349.07 65.2139 348.347 64.8188 348.347 64.0286C348.347 63.5654 348.802 63.0886 349.713 62.5981C350.651 62.0804 351.12 61.4401 351.12 60.6771V53.7289C349.378 53.8651 348.414 53.9332 348.226 53.9332C340.911 53.9332 337.253 51.4128 337.253 46.3719V40.3229C337.253 39.4237 336.864 38.7834 336.087 38.4019C335.337 37.9932 334.962 37.5164 334.962 36.9714C334.962 36.1812 335.578 35.7861 336.811 35.7861H344.85C345.814 35.7861 346.457 36.1267 346.779 36.8079C346.993 37.2439 347.101 38.0204 347.101 39.1376V47.7616C347.101 50.2139 347.998 51.4401 349.794 51.4401H351.12V39.8733C351.12 39.2466 350.852 38.7016 350.316 38.2384C349.807 37.748 349.552 37.2711 349.552 36.8079C349.552 36.1267 350.075 35.7861 351.12 35.7861H361.691C362.897 35.7861 363.5 36.1812 363.5 36.9714C363.5 37.5164 363.125 37.9796 362.375 38.361C361.624 38.7425 361.249 39.3965 361.249 40.3229V60.6771C361.249 61.5763 361.624 62.2302 362.375 62.639C363.125 63.0204 363.5 63.47 363.5 63.9877C363.5 64.8052 362.897 65.2139 361.691 65.2139Z" fill="#DE4B44"/>
<path d="M102.654 85.271V82.268H103.314C104.106 81.366 104.502 79.848 104.502 77.714V75.712H109.947V82.268H110.816V85.271H109.573V83.5H103.897V85.271H102.654ZM104.876 82.268H108.561V76.922H105.844V77.857C105.844 79.8663 105.521 81.3367 104.876 82.268ZM111.216 80.838C111.216 80.024 111.491 79.3603 112.041 78.847C112.591 78.3263 113.273 78.066 114.087 78.066C114.901 78.066 115.583 78.3263 116.133 78.847C116.683 79.3603 116.958 80.024 116.958 80.838C116.958 81.6593 116.679 82.334 116.122 82.862C115.572 83.39 114.893 83.654 114.087 83.654C113.28 83.654 112.598 83.39 112.041 82.862C111.491 82.334 111.216 81.6593 111.216 80.838ZM112.954 79.65C112.69 79.9873 112.558 80.3833 112.558 80.838C112.558 81.2927 112.69 81.6923 112.954 82.037C113.218 82.3817 113.595 82.554 114.087 82.554C114.578 82.554 114.956 82.3817 115.22 82.037C115.484 81.6923 115.616 81.2927 115.616 80.838C115.616 80.3833 115.484 79.9873 115.22 79.65C114.956 79.3127 114.578 79.144 114.087 79.144C113.595 79.144 113.218 79.3127 112.954 79.65ZM122.417 78.891L121.515 79.683C121.413 79.5363 121.259 79.4153 121.053 79.32C120.848 79.2173 120.639 79.166 120.426 79.166C119.972 79.166 119.616 79.3383 119.359 79.683C119.103 80.0203 118.974 80.4127 118.974 80.86C118.974 81.3147 119.106 81.7107 119.37 82.048C119.634 82.3853 120.001 82.554 120.47 82.554C120.954 82.554 121.325 82.3963 121.581 82.081L122.406 82.917C121.952 83.4083 121.303 83.654 120.459 83.654C119.653 83.654 118.974 83.401 118.424 82.895C117.874 82.389 117.599 81.7107 117.599 80.86C117.599 80.024 117.871 79.3493 118.413 78.836C118.956 78.3227 119.627 78.066 120.426 78.066C120.815 78.066 121.193 78.1393 121.559 78.286C121.926 78.4327 122.212 78.6343 122.417 78.891ZM124.264 83.5V79.276H122.57V78.22H127.267V79.276H125.584V83.5H124.264ZM131.225 83.5V82.829H131.192C131.06 83.0637 130.843 83.258 130.543 83.412C130.249 83.5587 129.919 83.632 129.553 83.632C129.047 83.632 128.588 83.5 128.178 83.236C127.774 82.9647 127.573 82.5503 127.573 81.993C127.573 81.6923 127.646 81.432 127.793 81.212C127.947 80.9847 128.137 80.8087 128.365 80.684C128.592 80.5593 128.874 80.4603 129.212 80.387C129.556 80.3063 129.879 80.255 130.18 80.233C130.488 80.211 130.829 80.2 131.203 80.2V80.068C131.203 79.76 131.089 79.5217 130.862 79.353C130.634 79.1843 130.345 79.1 129.993 79.1C129.435 79.1 128.955 79.3017 128.552 79.705L127.87 78.902C128.471 78.3447 129.215 78.066 130.103 78.066C130.557 78.066 130.942 78.132 131.258 78.264C131.58 78.3887 131.826 78.5647 131.995 78.792C132.163 79.012 132.281 79.2467 132.347 79.496C132.42 79.738 132.457 80.002 132.457 80.288V83.5H131.225ZM131.203 81.278V81.091H130.906C129.564 81.091 128.893 81.3843 128.893 81.971C128.893 82.2057 128.981 82.3743 129.157 82.477C129.34 82.5797 129.56 82.631 129.817 82.631C130.264 82.631 130.605 82.5137 130.84 82.279C131.082 82.037 131.203 81.7033 131.203 81.278ZM133.664 83.5V78.22H136.392C136.708 78.22 136.99 78.253 137.239 78.319C137.496 78.385 137.727 78.528 137.932 78.748C138.138 78.9607 138.24 79.243 138.24 79.595C138.24 79.8663 138.156 80.1047 137.987 80.31C137.826 80.508 137.613 80.64 137.349 80.706V80.728C137.679 80.7793 137.947 80.9187 138.152 81.146C138.365 81.366 138.471 81.652 138.471 82.004C138.471 82.4733 138.288 82.84 137.921 83.104C137.555 83.368 137.071 83.5 136.469 83.5H133.664ZM134.984 82.554H136.227C136.836 82.554 137.14 82.3413 137.14 81.916C137.14 81.4907 136.847 81.278 136.26 81.278H134.984V82.554ZM134.984 80.332H136.238C136.722 80.332 136.964 80.1377 136.964 79.749C136.964 79.353 136.689 79.155 136.139 79.155H134.984V80.332ZM139.415 83.5V78.22H140.735V80.563H140.768L142.803 78.22H144.475L142.154 80.706L144.651 83.5H142.957L140.768 80.992H140.735V83.5H139.415ZM148.335 83.5V82.829H148.302C148.17 83.0637 147.954 83.258 147.653 83.412C147.36 83.5587 147.03 83.632 146.663 83.632C146.157 83.632 145.699 83.5 145.288 83.236C144.885 82.9647 144.683 82.5503 144.683 81.993C144.683 81.6923 144.757 81.432 144.903 81.212C145.057 80.9847 145.248 80.8087 145.475 80.684C145.703 80.5593 145.985 80.4603 146.322 80.387C146.667 80.3063 146.99 80.255 147.29 80.233C147.598 80.211 147.939 80.2 148.313 80.2V80.068C148.313 79.76 148.2 79.5217 147.972 79.353C147.745 79.1843 147.455 79.1 147.103 79.1C146.546 79.1 146.066 79.3017 145.662 79.705L144.98 78.902C145.582 78.3447 146.326 78.066 147.213 78.066C147.668 78.066 148.053 78.132 148.368 78.264C148.691 78.3887 148.937 78.5647 149.105 78.792C149.274 79.012 149.391 79.2467 149.457 79.496C149.531 79.738 149.567 80.002 149.567 80.288V83.5H148.335ZM148.313 81.278V81.091H148.016C146.674 81.091 146.003 81.3843 146.003 81.971C146.003 82.2057 146.091 82.3743 146.267 82.477C146.451 82.5797 146.671 82.631 146.927 82.631C147.375 82.631 147.716 82.5137 147.95 82.279C148.192 82.037 148.313 81.7033 148.313 81.278ZM152.887 80.838C152.887 80.024 153.162 79.3603 153.712 78.847C154.262 78.3263 154.944 78.066 155.758 78.066C156.572 78.066 157.254 78.3263 157.804 78.847C158.354 79.3603 158.629 80.024 158.629 80.838C158.629 81.6593 158.35 82.334 157.793 82.862C157.243 83.39 156.565 83.654 155.758 83.654C154.951 83.654 154.269 83.39 153.712 82.862C153.162 82.334 152.887 81.6593 152.887 80.838ZM154.625 79.65C154.361 79.9873 154.229 80.3833 154.229 80.838C154.229 81.2927 154.361 81.6923 154.625 82.037C154.889 82.3817 155.267 82.554 155.758 82.554C156.249 82.554 156.627 82.3817 156.891 82.037C157.155 81.6923 157.287 81.2927 157.287 80.838C157.287 80.3833 157.155 79.9873 156.891 79.65C156.627 79.3127 156.249 79.144 155.758 79.144C155.267 79.144 154.889 79.3127 154.625 79.65ZM162.274 83.654C161.357 83.654 160.628 83.3497 160.085 82.741C159.828 82.4477 159.641 82.103 159.524 81.707C159.414 81.311 159.359 80.783 159.359 80.123C159.359 79.573 159.374 79.1073 159.403 78.726C159.44 78.3447 159.506 77.9633 159.601 77.582C159.704 77.2007 159.843 76.8927 160.019 76.658C160.202 76.416 160.444 76.2107 160.745 76.042C161.053 75.8733 161.42 75.7597 161.845 75.701L163.198 75.525C163.513 75.481 163.741 75.426 163.88 75.36C164.019 75.294 164.111 75.1767 164.155 75.008L165.101 75.283C165.006 75.7083 164.844 76.02 164.617 76.218C164.397 76.4087 164.071 76.5333 163.638 76.592L162.208 76.779C161.885 76.823 161.618 76.8853 161.405 76.966C161.2 77.0467 161.009 77.1787 160.833 77.362C160.664 77.538 160.536 77.7837 160.448 78.099C160.367 78.4143 160.32 78.814 160.305 79.298H160.338C160.771 78.4987 161.504 78.099 162.538 78.099C163.257 78.099 163.869 78.3557 164.375 78.869C164.881 79.3823 165.134 80.046 165.134 80.86C165.134 81.6887 164.859 82.3633 164.309 82.884C163.759 83.3973 163.081 83.654 162.274 83.654ZM161.141 82.048C161.412 82.378 161.783 82.543 162.252 82.543C162.721 82.543 163.095 82.378 163.374 82.048C163.66 81.7107 163.803 81.3037 163.803 80.827C163.803 80.3577 163.66 79.958 163.374 79.628C163.095 79.2907 162.718 79.122 162.241 79.122C161.772 79.122 161.401 79.287 161.13 79.617C160.866 79.947 160.734 80.3503 160.734 80.827C160.734 81.3037 160.87 81.7107 161.141 82.048ZM167.082 80.332H169.788C169.788 79.9653 169.682 79.661 169.469 79.419C169.257 79.177 168.949 79.056 168.545 79.056C168.157 79.056 167.823 79.177 167.544 79.419C167.266 79.661 167.112 79.9653 167.082 80.332ZM171.108 80.926C171.108 81.08 171.105 81.1973 171.097 81.278H167.082C167.112 81.6447 167.273 81.9527 167.566 82.202C167.86 82.4513 168.201 82.576 168.589 82.576C169.198 82.576 169.664 82.3487 169.986 81.894L170.866 82.598C170.346 83.302 169.59 83.654 168.6 83.654C167.772 83.654 167.09 83.4047 166.554 82.906C166.026 82.4073 165.762 81.7363 165.762 80.893C165.762 80.0497 166.026 79.3677 166.554 78.847C167.082 78.3263 167.75 78.066 168.556 78.066C169.319 78.066 169.935 78.3117 170.404 78.803C170.874 79.2943 171.108 80.002 171.108 80.926ZM171.408 85.007V82.422H171.958C172.449 81.784 172.695 80.838 172.695 79.584V78.22H176.985V82.422H177.766V85.007H176.655V83.5H172.519V85.007H171.408ZM173.355 82.422H175.665V79.276H173.949V79.925C173.949 80.9003 173.751 81.7327 173.355 82.422ZM178.143 80.838C178.143 80.024 178.418 79.3603 178.968 78.847C179.518 78.3263 180.2 78.066 181.014 78.066C181.828 78.066 182.51 78.3263 183.06 78.847C183.61 79.3603 183.885 80.024 183.885 80.838C183.885 81.6593 183.607 82.334 183.049 82.862C182.499 83.39 181.821 83.654 181.014 83.654C180.208 83.654 179.526 83.39 178.968 82.862C178.418 82.334 178.143 81.6593 178.143 80.838ZM179.881 79.65C179.617 79.9873 179.485 80.3833 179.485 80.838C179.485 81.2927 179.617 81.6923 179.881 82.037C180.145 82.3817 180.523 82.554 181.014 82.554C181.506 82.554 181.883 82.3817 182.147 82.037C182.411 81.6923 182.543 81.2927 182.543 80.838C182.543 80.3833 182.411 79.9873 182.147 79.65C181.883 79.3127 181.506 79.144 181.014 79.144C180.523 79.144 180.145 79.3127 179.881 79.65ZM184.835 83.5V78.22H187.563C187.878 78.22 188.161 78.253 188.41 78.319C188.667 78.385 188.898 78.528 189.103 78.748C189.308 78.9607 189.411 79.243 189.411 79.595C189.411 79.8663 189.327 80.1047 189.158 80.31C188.997 80.508 188.784 80.64 188.52 80.706V80.728C188.85 80.7793 189.118 80.9187 189.323 81.146C189.536 81.366 189.642 81.652 189.642 82.004C189.642 82.4733 189.459 82.84 189.092 83.104C188.725 83.368 188.241 83.5 187.64 83.5H184.835ZM186.155 82.554H187.398C188.007 82.554 188.311 82.3413 188.311 81.916C188.311 81.4907 188.018 81.278 187.431 81.278H186.155V82.554ZM186.155 80.332H187.409C187.893 80.332 188.135 80.1377 188.135 79.749C188.135 79.353 187.86 79.155 187.31 79.155H186.155V80.332ZM193.005 83.5V78.22H197.867V83.5H196.547V79.276H194.325V83.5H193.005ZM198.812 80.838C198.812 80.024 199.087 79.3603 199.637 78.847C200.187 78.3263 200.869 78.066 201.683 78.066C202.497 78.066 203.179 78.3263 203.729 78.847C204.279 79.3603 204.554 80.024 204.554 80.838C204.554 81.6593 204.276 82.334 203.718 82.862C203.168 83.39 202.49 83.654 201.683 83.654C200.877 83.654 200.195 83.39 199.637 82.862C199.087 82.334 198.812 81.6593 198.812 80.838ZM200.55 79.65C200.286 79.9873 200.154 80.3833 200.154 80.838C200.154 81.2927 200.286 81.6923 200.55 82.037C200.814 82.3817 201.192 82.554 201.683 82.554C202.175 82.554 202.552 82.3817 202.816 82.037C203.08 81.6923 203.212 81.2927 203.212 80.838C203.212 80.3833 203.08 79.9873 202.816 79.65C202.552 79.3127 202.175 79.144 201.683 79.144C201.192 79.144 200.814 79.3127 200.55 79.65ZM207.99 83.5V75.712H209.376V79.078H209.409L212.665 75.712H214.535L210.894 79.309L214.777 83.5H212.83L209.409 79.595H209.376V83.5H207.99ZM215.178 78.22H216.443V78.957H216.476C216.63 78.715 216.861 78.506 217.169 78.33C217.485 78.154 217.862 78.066 218.302 78.066C219.05 78.066 219.663 78.33 220.139 78.858C220.623 79.386 220.865 80.046 220.865 80.838C220.865 81.63 220.627 82.2973 220.15 82.84C219.681 83.3827 219.054 83.654 218.269 83.654C217.903 83.654 217.562 83.577 217.246 83.423C216.931 83.269 216.689 83.06 216.52 82.796H216.498V86.14H215.178V78.22ZM219.116 82.037C219.388 81.6923 219.523 81.2927 219.523 80.838C219.523 80.3833 219.388 79.9873 219.116 79.65C218.852 79.3127 218.482 79.144 218.005 79.144C217.543 79.144 217.169 79.32 216.883 79.672C216.597 80.024 216.454 80.42 216.454 80.86C216.454 81.3 216.597 81.6923 216.883 82.037C217.169 82.3817 217.543 82.554 218.005 82.554C218.482 82.554 218.852 82.3817 219.116 82.037ZM227.342 83.5V78.22H228.662V83.5H227.342ZM221.809 83.5V78.22H223.129V80.068H224.273C224.926 80.068 225.443 80.211 225.824 80.497C226.213 80.7757 226.407 81.201 226.407 81.773C226.407 82.3303 226.213 82.7593 225.824 83.06C225.436 83.3533 224.919 83.5 224.273 83.5H221.809ZM223.129 82.499H223.932C224.328 82.499 224.618 82.444 224.801 82.334C224.992 82.224 225.087 82.0407 225.087 81.784C225.087 81.52 224.999 81.333 224.823 81.223C224.647 81.113 224.35 81.058 223.932 81.058H223.129V82.499ZM229.912 83.5V78.22H231.76L233.3 81.784H233.311L234.796 78.22H236.666V83.5H235.368V79.76H235.346L233.707 83.5H232.827L231.232 79.749H231.21V83.5H229.912ZM239.392 83.5L237.126 78.22H238.589L240.063 82.059H240.085L241.394 78.22H242.769L240.272 84.633C240.066 85.1537 239.817 85.535 239.524 85.777C239.238 86.019 238.82 86.14 238.27 86.14C238.028 86.14 237.8 86.1143 237.588 86.063L237.698 84.919C237.859 84.9703 238.024 84.996 238.193 84.996C238.457 84.996 238.647 84.9337 238.765 84.809C238.882 84.6917 239.003 84.479 239.128 84.171L239.392 83.5ZM245.647 83.5V78.22H246.967V81.63H246.989L249.299 78.22H250.729V83.5H249.409V80.112H249.387L247.099 83.5H245.647ZM254.474 83.5V75.712H255.86V78.858H259.501V75.712H260.887V83.5H259.501V80.046H255.86V83.5H254.474ZM261.902 80.838C261.902 80.024 262.177 79.3603 262.727 78.847C263.277 78.3263 263.959 78.066 264.773 78.066C265.587 78.066 266.269 78.3263 266.819 78.847C267.369 79.3603 267.644 80.024 267.644 80.838C267.644 81.6593 267.366 82.334 266.808 82.862C266.258 83.39 265.58 83.654 264.773 83.654C263.967 83.654 263.285 83.39 262.727 82.862C262.177 82.334 261.902 81.6593 261.902 80.838ZM263.64 79.65C263.376 79.9873 263.244 80.3833 263.244 80.838C263.244 81.2927 263.376 81.6923 263.64 82.037C263.904 82.3817 264.282 82.554 264.773 82.554C265.265 82.554 265.642 82.3817 265.906 82.037C266.17 81.6923 266.302 81.2927 266.302 80.838C266.302 80.3833 266.17 79.9873 265.906 79.65C265.642 79.3127 265.265 79.144 264.773 79.144C264.282 79.144 263.904 79.3127 263.64 79.65ZM268.594 83.5V78.22H271.322C271.637 78.22 271.92 78.253 272.169 78.319C272.426 78.385 272.657 78.528 272.862 78.748C273.067 78.9607 273.17 79.243 273.17 79.595C273.17 79.8663 273.086 80.1047 272.917 80.31C272.756 80.508 272.543 80.64 272.279 80.706V80.728C272.609 80.7793 272.877 80.9187 273.082 81.146C273.295 81.366 273.401 81.652 273.401 82.004C273.401 82.4733 273.218 82.84 272.851 83.104C272.484 83.368 272 83.5 271.399 83.5H268.594ZM269.914 82.554H271.157C271.766 82.554 272.07 82.3413 272.07 81.916C272.07 81.4907 271.777 81.278 271.19 81.278H269.914V82.554ZM269.914 80.332H271.168C271.652 80.332 271.894 80.1377 271.894 79.749C271.894 79.353 271.619 79.155 271.069 79.155H269.914V80.332ZM279.877 83.5V78.22H281.197V83.5H279.877ZM274.344 83.5V78.22H275.664V80.068H276.808C277.461 80.068 277.978 80.211 278.359 80.497C278.748 80.7757 278.942 81.201 278.942 81.773C278.942 82.3303 278.748 82.7593 278.359 83.06C277.97 83.3533 277.453 83.5 276.808 83.5H274.344ZM275.664 82.499H276.467C276.863 82.499 277.153 82.444 277.336 82.334C277.527 82.224 277.622 82.0407 277.622 81.784C277.622 81.52 277.534 81.333 277.358 81.223C277.182 81.113 276.885 81.058 276.467 81.058H275.664V82.499ZM282.447 83.5V78.22H284.295L285.835 81.784H285.846L287.331 78.22H289.201V83.5H287.903V79.76H287.881L286.242 83.5H285.362L283.767 79.749H283.745V83.5H282.447ZM296.415 83.5V79.276H294.721V78.22H299.418V79.276H297.735V83.5H296.415ZM300.981 80.332H303.687C303.687 79.9653 303.58 79.661 303.368 79.419C303.155 79.177 302.847 79.056 302.444 79.056C302.055 79.056 301.721 79.177 301.443 79.419C301.164 79.661 301.01 79.9653 300.981 80.332ZM305.007 80.926C305.007 81.08 305.003 81.1973 304.996 81.278H300.981C301.01 81.6447 301.171 81.9527 301.465 82.202C301.758 82.4513 302.099 82.576 302.488 82.576C303.096 82.576 303.562 82.3487 303.885 81.894L304.765 82.598C304.244 83.302 303.489 83.654 302.499 83.654C301.67 83.654 300.988 83.4047 300.453 82.906C299.925 82.4073 299.661 81.7363 299.661 80.893C299.661 80.0497 299.925 79.3677 300.453 78.847C300.981 78.3263 301.648 78.066 302.455 78.066C303.217 78.066 303.833 78.3117 304.303 78.803C304.772 79.2943 305.007 80.002 305.007 80.926ZM305.955 78.22H307.22V78.957H307.253C307.407 78.715 307.638 78.506 307.946 78.33C308.261 78.154 308.639 78.066 309.079 78.066C309.827 78.066 310.439 78.33 310.916 78.858C311.4 79.386 311.642 80.046 311.642 80.838C311.642 81.63 311.404 82.2973 310.927 82.84C310.458 83.3827 309.831 83.654 309.046 83.654C308.679 83.654 308.338 83.577 308.023 83.423C307.708 83.269 307.466 83.06 307.297 82.796H307.275V86.14H305.955V78.22ZM309.893 82.037C310.164 81.6923 310.3 81.2927 310.3 80.838C310.3 80.3833 310.164 79.9873 309.893 79.65C309.629 79.3127 309.259 79.144 308.782 79.144C308.32 79.144 307.946 79.32 307.66 79.672C307.374 80.024 307.231 80.42 307.231 80.86C307.231 81.3 307.374 81.6923 307.66 82.037C307.946 82.3817 308.32 82.554 308.782 82.554C309.259 82.554 309.629 82.3817 309.893 82.037ZM312.586 78.22H313.851V78.957H313.884C314.038 78.715 314.269 78.506 314.577 78.33C314.892 78.154 315.27 78.066 315.71 78.066C316.458 78.066 317.07 78.33 317.547 78.858C318.031 79.386 318.273 80.046 318.273 80.838C318.273 81.63 318.035 82.2973 317.558 82.84C317.089 83.3827 316.462 83.654 315.677 83.654C315.31 83.654 314.969 83.577 314.654 83.423C314.339 83.269 314.097 83.06 313.928 82.796H313.906V86.14H312.586V78.22ZM316.524 82.037C316.795 81.6923 316.931 81.2927 316.931 80.838C316.931 80.3833 316.795 79.9873 316.524 79.65C316.26 79.3127 315.89 79.144 315.413 79.144C314.951 79.144 314.577 79.32 314.291 79.672C314.005 80.024 313.862 80.42 313.862 80.86C313.862 81.3 314.005 81.6923 314.291 82.037C314.577 82.3817 314.951 82.554 315.413 82.554C315.89 82.554 316.26 82.3817 316.524 82.037ZM319.217 83.5V78.22H320.537V81.63H320.559L322.869 78.22H324.299V83.5H322.979V80.112H322.957L320.669 83.5H319.217ZM326.68 83.5V79.276H324.986V78.22H329.683V79.276H328V83.5H326.68ZM329.926 80.838C329.926 80.024 330.201 79.3603 330.751 78.847C331.301 78.3263 331.983 78.066 332.797 78.066C333.611 78.066 334.293 78.3263 334.843 78.847C335.393 79.3603 335.668 80.024 335.668 80.838C335.668 81.6593 335.389 82.334 334.832 82.862C334.282 83.39 333.603 83.654 332.797 83.654C331.99 83.654 331.308 83.39 330.751 82.862C330.201 82.334 329.926 81.6593 329.926 80.838ZM331.664 79.65C331.4 79.9873 331.268 80.3833 331.268 80.838C331.268 81.2927 331.4 81.6923 331.664 82.037C331.928 82.3817 332.305 82.554 332.797 82.554C333.288 82.554 333.666 82.3817 333.93 82.037C334.194 81.6923 334.326 81.2927 334.326 80.838C334.326 80.3833 334.194 79.9873 333.93 79.65C333.666 79.3127 333.288 79.144 332.797 79.144C332.305 79.144 331.928 79.3127 331.664 79.65ZM336.617 78.22H337.882V78.957H337.915C338.069 78.715 338.3 78.506 338.608 78.33C338.924 78.154 339.301 78.066 339.741 78.066C340.489 78.066 341.102 78.33 341.578 78.858C342.062 79.386 342.304 80.046 342.304 80.838C342.304 81.63 342.066 82.2973 341.589 82.84C341.12 83.3827 340.493 83.654 339.708 83.654C339.342 83.654 339.001 83.577 338.685 83.423C338.37 83.269 338.128 83.06 337.959 82.796H337.937V86.14H336.617V78.22ZM340.555 82.037C340.827 81.6923 340.962 81.2927 340.962 80.838C340.962 80.3833 340.827 79.9873 340.555 79.65C340.291 79.3127 339.921 79.144 339.444 79.144C338.982 79.144 338.608 79.32 338.322 79.672C338.036 80.024 337.893 80.42 337.893 80.86C337.893 81.3 338.036 81.6923 338.322 82.037C338.608 82.3817 338.982 82.554 339.444 82.554C339.921 82.554 340.291 82.3817 340.555 82.037ZM343.248 83.5V78.22H344.568V81.63H344.59L346.9 78.22H348.33V83.5H347.01V80.112H346.988L344.7 83.5H343.248ZM349.193 83.5L350.524 81.498C349.74 81.2707 349.347 80.7463 349.347 79.925C349.347 79.3677 349.542 78.946 349.93 78.66C350.326 78.3667 350.836 78.22 351.459 78.22H354.121V83.5H352.801V81.63H351.822L350.744 83.5H349.193ZM351.778 80.651H352.801V79.21H351.778C351.36 79.21 351.063 79.265 350.887 79.375C350.711 79.485 350.623 79.672 350.623 79.936C350.623 80.1927 350.715 80.376 350.898 80.486C351.089 80.596 351.382 80.651 351.778 80.651ZM355.372 83.5V78.22H357.22L358.76 81.784H358.771L360.256 78.22H362.126V83.5H360.828V79.76H360.806L359.167 83.5H358.287L356.692 79.749H356.67V83.5H355.372Z" fill="#0C0E0D" fill-opacity="0.64"/>
<defs>
<linearGradient id="paint0_linear_47_7123" x1="51.8902" y1="-102.426" x2="46.9324" y2="87.8818" gradientUnits="userSpaceOnUse">
<stop stop-color="#0C0E0D"/>
<stop offset="0.535" stop-color="#535957"/>
<stop offset="1" stop-color="#0C0E0D"/>
</linearGradient>
<linearGradient id="paint1_linear_47_7123" x1="51.8902" y1="-102.426" x2="46.9324" y2="87.8818" gradientUnits="userSpaceOnUse">
<stop stop-color="#0C0E0D"/>
<stop offset="0.535" stop-color="#535957"/>
<stop offset="1" stop-color="#0C0E0D"/>
</linearGradient>
<linearGradient id="paint2_linear_47_7123" x1="51.8902" y1="-102.426" x2="46.9324" y2="87.8818" gradientUnits="userSpaceOnUse">
<stop stop-color="#0C0E0D"/>
<stop offset="0.535" stop-color="#535957"/>
<stop offset="1" stop-color="#0C0E0D"/>
</linearGradient>
<linearGradient id="paint3_linear_47_7123" x1="51.8902" y1="-102.426" x2="46.9324" y2="87.8818" gradientUnits="userSpaceOnUse">
<stop stop-color="#0C0E0D"/>
<stop offset="0.535" stop-color="#535957"/>
<stop offset="1" stop-color="#0C0E0D"/>
</linearGradient>
<linearGradient id="paint4_linear_47_7123" x1="51.8902" y1="-102.426" x2="46.9324" y2="87.8818" gradientUnits="userSpaceOnUse">
<stop stop-color="#0C0E0D"/>
<stop offset="0.535" stop-color="#535957"/>
<stop offset="1" stop-color="#0C0E0D"/>
</linearGradient>
<linearGradient id="paint5_linear_47_7123" x1="51.8902" y1="-102.426" x2="46.9324" y2="87.8818" gradientUnits="userSpaceOnUse">
<stop stop-color="#0C0E0D"/>
<stop offset="0.535" stop-color="#535957"/>
<stop offset="1" stop-color="#0C0E0D"/>
</linearGradient>
</defs>
</svg>
