<svg width="39" height="51" viewBox="0 0 39 51" fill="none" xmlns="http://www.w3.org/2000/svg">
<path fill-rule="evenodd" clip-rule="evenodd" d="M19.4792 51C19.4792 51 38.9583 30.2372 38.9583 19.4792C38.9583 8.72112 30.2372 0 19.4792 0C8.72112 0 0 8.72112 0 19.4792C0 30.2372 19.4792 51 19.4792 51ZM19.4792 29.042C25.1517 29.042 29.7501 24.4436 29.7501 18.7712C29.7501 13.0988 25.1517 8.50038 19.4792 8.50038C13.8068 8.50038 9.2084 13.0988 9.2084 18.7712C9.2084 24.4436 13.8068 29.042 19.4792 29.042Z" fill="white" fill-opacity="0.09"/>
<path fill-rule="evenodd" clip-rule="evenodd" d="M19.4792 51C19.4792 51 38.9583 30.2372 38.9583 19.4792C38.9583 8.72112 30.2372 0 19.4792 0C8.72112 0 0 8.72112 0 19.4792C0 30.2372 19.4792 51 19.4792 51ZM19.4792 29.042C25.1517 29.042 29.7501 24.4436 29.7501 18.7712C29.7501 13.0988 25.1517 8.50038 19.4792 8.50038C13.8068 8.50038 9.2084 13.0988 9.2084 18.7712C9.2084 24.4436 13.8068 29.042 19.4792 29.042Z" fill="url(#paint0_linear_59_15209)"/>
<defs>
<linearGradient id="paint0_linear_59_15209" x1="17.9915" y1="-20.9554" x2="7.26311" y2="49.4212" gradientUnits="userSpaceOnUse">
<stop stop-color="#F94942"/>
<stop offset="0.505" stop-color="#FF6E68"/>
<stop offset="1" stop-color="#F94942"/>
</linearGradient>
</defs>
</svg>
