<svg width="49" height="64" viewBox="0 0 49 64" fill="none" xmlns="http://www.w3.org/2000/svg">
<path d="M48.8889 24.4444C48.8889 37.9447 24.4444 64 24.4444 64C24.4444 64 0 37.9447 0 24.4444C0 10.9441 10.9442 0 24.4444 0C37.9447 0 48.8889 10.9441 48.8889 24.4444Z" fill="#D9D9D9"/>
<path d="M48.8889 24.4444C48.8889 37.9447 24.4444 64 24.4444 64C24.4444 64 0 37.9447 0 24.4444C0 10.9441 10.9442 0 24.4444 0C37.9447 0 48.8889 10.9441 48.8889 24.4444Z" fill="url(#paint0_linear_138_5068)"/>
<ellipse cx="24" cy="24.5" rx="17" ry="17.5" fill="white"/>
<path d="M22.6712 19.4919C22.8824 20.6745 24.2627 21.7984 24.8994 22.2178C23.7322 20.6452 23.52 19.0027 23.9444 18.0242C24.4206 16.9264 26.597 16.0323 26.4909 13.9355C26.406 12.2581 24.4749 11.2796 23.52 11C24.0859 11.2796 25.2389 12.1323 25.3237 13.3065C25.4298 14.7742 24.7933 15.5081 23.8383 16.2419C22.8834 16.9758 22.3529 17.7097 22.6712 19.4919Z" fill="url(#paint1_linear_138_5068)"/>
<path d="M25.0055 19.3871C25.0055 20.5613 25.7836 21.6237 26.1726 22.0081C25.4299 19.2823 26.597 18.8629 27.7641 17.6048C28.6978 16.5984 27.658 15.2984 27.0214 14.7742C27.1629 14.914 27.4034 15.3823 27.2336 16.1371C27.0214 17.0807 25.0055 17.9194 25.0055 19.3871Z" fill="url(#paint2_linear_138_5068)"/>
<path d="M21.0015 17.1855C20.7893 17.8145 19.7283 18.4436 19.9405 19.492C20.1066 20.3124 21.3198 21.5887 22.1238 22.0777C21.3198 20.9597 20.7893 19.5968 21.0015 19.0726C21.2137 18.5484 22.1686 18.129 22.1686 16.871C22.1686 15.8645 21.3198 15.1237 20.8954 14.879C21.3198 15.7178 21.2137 16.5565 21.0015 17.1855Z" fill="url(#paint3_linear_138_5068)"/>
<path d="M28.2947 37C28.4361 36.1962 28.7191 34.3581 28.7191 33.4355C28.7191 32.2823 29.5679 31.129 30.5228 30.1855C30.9194 29.7936 31.4258 29.257 31.9128 28.741C32.5984 28.0147 33.2455 27.329 33.4936 27.1452C33.7181 26.9788 33.8931 26.9255 34.0063 26.9186L33.9955 26.9722C34.0364 26.9803 34.0796 26.9876 34.1241 26.9951C34.2964 27.0243 34.4892 27.057 34.6533 27.1518C34.7504 27.2079 34.8303 27.2832 34.8823 27.3897C34.9346 27.4968 34.9642 27.6474 34.94 27.8631C34.9261 27.9865 34.8443 28.1728 34.6999 28.4088C34.5587 28.6395 34.3691 28.8999 34.1605 29.1668C33.8899 29.513 33.595 29.8607 33.3373 30.1644C33.1954 30.3317 33.0647 30.4858 32.9557 30.6189L33.1827 30.8005C33.2857 30.6748 33.4132 30.5244 33.5535 30.3591C33.814 30.0518 34.1185 29.6927 34.3917 29.3433C34.6031 29.0728 34.8003 28.8025 34.9499 28.5582C35.0961 28.3192 35.2088 28.0861 35.2303 27.895C35.2591 27.6388 35.2269 27.4312 35.1454 27.2643C35.0636 27.0967 34.938 26.9819 34.8008 26.9026C34.5854 26.7781 34.3231 26.7347 34.1508 26.7062C34.264 25.447 34.4749 23.1627 34.5547 22.5323C34.6608 21.6935 35.1913 21.379 35.7218 21.4839C36.2523 21.5887 36.5706 22.1129 36.4645 23.0564C36.4239 23.4175 36.3367 24.3003 36.2386 25.2938C36.0802 26.8971 35.8934 28.7888 35.8279 29.2419C35.7218 29.9758 35.5096 30.7097 34.9791 31.2339C34.8902 31.3217 34.7686 31.4389 34.6273 31.5751C33.9246 32.2524 32.7332 33.4009 32.6448 33.75C32.6315 33.8028 32.6131 33.8688 32.5913 33.9469C32.4403 34.4893 32.1277 35.6121 32.2204 36.8952L28.2947 37Z" fill="url(#paint4_linear_138_5068)"/>
<path d="M19.1902 37C19.0487 36.1962 18.7658 34.3581 18.7658 33.4355C18.7658 32.2823 17.9169 31.129 16.962 30.1855C16.5654 29.7936 16.059 29.257 15.572 28.741C14.8864 28.0147 14.2393 27.329 13.9912 27.1452C13.7667 26.9788 13.5917 26.9255 13.4785 26.9186L13.4893 26.9722C13.4484 26.9803 13.4052 26.9876 13.3607 26.9951C13.1884 27.0243 12.9956 27.057 12.8315 27.1518C12.7344 27.2079 12.6545 27.2832 12.6025 27.3897C12.5502 27.4968 12.5206 27.6474 12.5448 27.8631C12.5587 27.9865 12.6405 28.1728 12.7849 28.4088C12.9261 28.6395 13.1157 28.8999 13.3243 29.1668C13.5949 29.513 13.8898 29.8607 14.1475 30.1644C14.2894 30.3317 14.4201 30.4858 14.5291 30.6189L14.3021 30.8005C14.1991 30.6748 14.0716 30.5244 13.9313 30.3591C13.6708 30.0518 13.3663 29.6927 13.0931 29.3433C12.8817 29.0728 12.6845 28.8025 12.5349 28.5582C12.3887 28.3192 12.276 28.0861 12.2545 27.895C12.2257 27.6388 12.2579 27.4312 12.3394 27.2643C12.4212 27.0967 12.5468 26.9819 12.684 26.9026C12.8994 26.7781 13.1617 26.7347 13.334 26.7062C13.2208 25.447 13.0099 23.1627 12.9302 22.5323C12.8241 21.6935 12.2936 21.379 11.763 21.4839C11.2325 21.5887 10.9142 22.1129 11.0203 23.0564C11.0609 23.4175 11.1481 24.3003 11.2462 25.2938C11.4046 26.8971 11.5914 28.7888 11.6569 29.2419C11.763 29.9758 11.9752 30.7097 12.5058 31.2339C12.5946 31.3217 12.7162 31.4389 12.8575 31.5751C13.5602 32.2524 14.7517 33.4009 14.84 33.75C14.8533 33.8028 14.8717 33.8688 14.8935 33.9469C15.0445 34.4893 15.3572 35.6121 15.2644 36.8952L19.1902 37Z" fill="url(#paint5_linear_138_5068)"/>
<path fill-rule="evenodd" clip-rule="evenodd" d="M30.8411 22.7419C31.1594 22.4973 31.987 21.6306 32.751 20.121C33.7059 18.2339 34.873 16.3468 36.5706 16.1371C38.2682 15.9274 34.4486 20.1209 33.4937 21.1693C32.7297 22.0081 32.3973 22.5672 32.3266 22.7419H32.8571C32.8217 24.7339 31.6899 29.221 27.4459 31.2339H20.0187C18.215 30.1855 14.6288 26.9984 14.7137 22.6371L30.8411 22.7419ZM16.5278 23.4758H18.2255C18.084 24.8387 18.0981 27.8581 19.2865 29.0323C18.2962 28.4032 16.3581 26.4113 16.5278 23.4758Z" fill="url(#paint6_linear_138_5068)"/>
<defs>
<linearGradient id="paint0_linear_138_5068" x1="22.5776" y1="-26.297" x2="9.11449" y2="62.0188" gradientUnits="userSpaceOnUse">
<stop stop-color="#F94942"/>
<stop offset="0.505" stop-color="#FF6E68"/>
<stop offset="1" stop-color="#F94942"/>
</linearGradient>
<linearGradient id="paint1_linear_138_5068" x1="26.5366" y1="-19.2623" x2="25.105" y2="36.9668" gradientUnits="userSpaceOnUse">
<stop stop-color="#0C0E0D"/>
<stop offset="0.535" stop-color="#535957"/>
<stop offset="1" stop-color="#0C0E0D"/>
</linearGradient>
<linearGradient id="paint2_linear_138_5068" x1="26.5366" y1="-19.2623" x2="25.105" y2="36.9668" gradientUnits="userSpaceOnUse">
<stop stop-color="#0C0E0D"/>
<stop offset="0.535" stop-color="#535957"/>
<stop offset="1" stop-color="#0C0E0D"/>
</linearGradient>
<linearGradient id="paint3_linear_138_5068" x1="26.5366" y1="-19.2623" x2="25.105" y2="36.9668" gradientUnits="userSpaceOnUse">
<stop stop-color="#0C0E0D"/>
<stop offset="0.535" stop-color="#535957"/>
<stop offset="1" stop-color="#0C0E0D"/>
</linearGradient>
<linearGradient id="paint4_linear_138_5068" x1="26.5366" y1="-19.2623" x2="25.105" y2="36.9668" gradientUnits="userSpaceOnUse">
<stop stop-color="#0C0E0D"/>
<stop offset="0.535" stop-color="#535957"/>
<stop offset="1" stop-color="#0C0E0D"/>
</linearGradient>
<linearGradient id="paint5_linear_138_5068" x1="26.5366" y1="-19.2623" x2="25.105" y2="36.9668" gradientUnits="userSpaceOnUse">
<stop stop-color="#0C0E0D"/>
<stop offset="0.535" stop-color="#535957"/>
<stop offset="1" stop-color="#0C0E0D"/>
</linearGradient>
<linearGradient id="paint6_linear_138_5068" x1="26.5366" y1="-19.2623" x2="25.105" y2="36.9668" gradientUnits="userSpaceOnUse">
<stop stop-color="#0C0E0D"/>
<stop offset="0.535" stop-color="#535957"/>
<stop offset="1" stop-color="#0C0E0D"/>
</linearGradient>
</defs>
</svg>
