<svg width="54" height="54" viewBox="0 0 54 54" fill="none" xmlns="http://www.w3.org/2000/svg">
<path d="M25.5247 27.0001C25.5248 27.3913 25.6803 27.7664 25.9569 28.043L33.3106 35.3967L33.3121 35.3982C33.5894 35.6717 33.9636 35.8245 34.3531 35.8232C34.7425 35.8218 35.1157 35.6665 35.3911 35.3912C35.6665 35.1158 35.8218 34.7426 35.8231 34.3532C35.8245 33.9637 35.6717 33.5895 35.3982 33.3122L28.4751 26.3891V16.7951C28.4751 16.4039 28.3197 16.0287 28.043 15.752C27.7664 15.4754 27.3912 15.3199 26.9999 15.3199C26.6087 15.3199 26.2334 15.4754 25.9568 15.752C25.6801 16.0287 25.5247 16.4039 25.5247 16.7951V27.0001Z" fill="url(#paint0_linear_138_5061)"/>
<path d="M28.043 9.09379C28.3197 8.81715 28.4751 8.44194 28.4751 8.0507V6.30167C28.4751 5.91042 28.3197 5.5352 28.043 5.25854C27.7664 4.98189 27.3912 4.82647 26.9999 4.82647C26.6087 4.82647 26.2334 4.98189 25.9568 5.25854C25.6801 5.5352 25.5247 5.91042 25.5247 6.30167V8.0507C25.5247 8.44194 25.6802 8.81715 25.9568 9.09379C26.2334 9.37044 26.6087 9.52587 26.9999 9.52589C27.3912 9.52587 27.7664 9.37044 28.043 9.09379Z" fill="url(#paint1_linear_138_5061)"/>
<path d="M25.9568 45.6675C25.6802 45.9442 25.5247 46.3194 25.5247 46.7106V48.4602C25.5247 48.8515 25.6801 49.2267 25.9568 49.5034C26.2334 49.78 26.6087 49.9354 26.9999 49.9354C27.3912 49.9354 27.7664 49.78 28.043 49.5034C28.3197 49.2267 28.4751 48.8515 28.4751 48.4602V46.7106C28.4751 46.3194 28.3197 45.9442 28.043 45.6675C27.7664 45.3909 27.3911 45.2355 26.9999 45.2355C26.6087 45.2355 26.2334 45.3909 25.9568 45.6675Z" fill="url(#paint2_linear_138_5061)"/>
<path d="M7.67004 25.9055H5.9211C5.52985 25.9055 5.15462 26.0609 4.87797 26.3375C4.60131 26.6142 4.44589 26.9894 4.44589 27.3807C4.44589 27.7719 4.60131 28.1471 4.87797 28.4238C5.15462 28.7005 5.52985 28.8559 5.9211 28.8559H7.6701C8.06135 28.8559 8.43658 28.7005 8.71323 28.4238C8.98989 28.1471 9.14531 27.7719 9.14531 27.3807C9.14531 26.9894 8.98989 26.6142 8.71323 26.3375C8.43656 26.0609 8.06126 25.9055 7.67004 25.9055Z" fill="url(#paint3_linear_138_5061)"/>
<path d="M46.3299 28.8559H48.0789C48.4702 28.8559 48.8454 28.7005 49.1221 28.4238C49.3987 28.1471 49.5541 27.7719 49.5541 27.3807C49.5541 26.9894 49.3987 26.6142 49.1221 26.3375C48.8454 26.0609 48.4702 25.9055 48.0789 25.9055H46.3299C45.9387 25.9055 45.5634 26.0609 45.2868 26.3375C45.0101 26.6142 44.8547 26.9894 44.8547 27.3807C44.8547 27.7719 45.0101 28.1471 45.2868 28.4238C45.5634 28.7005 45.9387 28.8559 46.3299 28.8559Z" fill="url(#paint4_linear_138_5061)"/>
<path fill-rule="evenodd" clip-rule="evenodd" d="M27 0C21.6599 0 16.4397 1.58352 11.9996 4.55032C7.55949 7.51712 4.09883 11.7339 2.05526 16.6675C0.0116987 21.6011 -0.522991 27.0299 0.518809 32.2674C1.56061 37.5049 4.13211 42.3159 7.90813 46.0919C11.6841 49.8679 16.4951 52.4394 21.7326 53.4812C26.9701 54.523 32.3989 53.9883 37.3325 51.9447C42.2661 49.9012 46.4829 46.4405 49.4497 42.0004C52.4165 37.5603 54 32.3401 54 27C53.9919 19.8417 51.1447 12.9786 46.0831 7.91695C41.0214 2.85529 34.1583 0.00809301 27 0ZM26.9996 51.0496C22.2432 51.0495 17.5936 49.639 13.6388 46.9965C9.68384 44.3539 6.60135 40.5979 4.78109 36.2034C2.96084 31.8089 2.48458 26.9733 3.41253 22.3082C4.34049 17.643 6.63099 13.3578 9.99439 9.99437C13.3578 6.63098 17.643 4.34048 22.3082 3.41252C26.9733 2.48456 31.8089 2.96082 36.2034 4.78108C40.5979 6.60134 44.3539 9.68383 46.9965 13.6388C49.639 17.5936 51.0495 22.2432 51.0496 26.9996C51.0423 33.3758 48.5061 39.4888 43.9975 43.9974C39.4888 48.5061 33.3758 51.0423 26.9996 51.0496Z" fill="url(#paint5_linear_138_5061)"/>
<defs>
<linearGradient id="paint0_linear_138_5061" x1="24.9379" y1="-22.1881" x2="16.1777" y2="53.0399" gradientUnits="userSpaceOnUse">
<stop stop-color="#F94942"/>
<stop offset="0.505" stop-color="#FF6E68"/>
<stop offset="1" stop-color="#F94942"/>
</linearGradient>
<linearGradient id="paint1_linear_138_5061" x1="24.9379" y1="-22.1881" x2="16.1777" y2="53.0399" gradientUnits="userSpaceOnUse">
<stop stop-color="#F94942"/>
<stop offset="0.505" stop-color="#FF6E68"/>
<stop offset="1" stop-color="#F94942"/>
</linearGradient>
<linearGradient id="paint2_linear_138_5061" x1="24.9379" y1="-22.1881" x2="16.1777" y2="53.0399" gradientUnits="userSpaceOnUse">
<stop stop-color="#F94942"/>
<stop offset="0.505" stop-color="#FF6E68"/>
<stop offset="1" stop-color="#F94942"/>
</linearGradient>
<linearGradient id="paint3_linear_138_5061" x1="24.9379" y1="-22.1881" x2="16.1777" y2="53.0399" gradientUnits="userSpaceOnUse">
<stop stop-color="#F94942"/>
<stop offset="0.505" stop-color="#FF6E68"/>
<stop offset="1" stop-color="#F94942"/>
</linearGradient>
<linearGradient id="paint4_linear_138_5061" x1="24.9379" y1="-22.1881" x2="16.1777" y2="53.0399" gradientUnits="userSpaceOnUse">
<stop stop-color="#F94942"/>
<stop offset="0.505" stop-color="#FF6E68"/>
<stop offset="1" stop-color="#F94942"/>
</linearGradient>
<linearGradient id="paint5_linear_138_5061" x1="24.9379" y1="-22.1881" x2="16.1777" y2="53.0399" gradientUnits="userSpaceOnUse">
<stop stop-color="#F94942"/>
<stop offset="0.505" stop-color="#FF6E68"/>
<stop offset="1" stop-color="#F94942"/>
</linearGradient>
</defs>
</svg>
