<svg width="32" height="18" viewBox="0 0 32 18" fill="none" xmlns="http://www.w3.org/2000/svg">
<path d="M30.7892 1.21896C31.0058 0.515712 30.7892 0 29.7651 0H26.3725C25.5092 0 25.1147 0.446144 24.8982 0.936146C24.8982 0.936146 23.1732 5.04823 20.7289 7.7145C19.9399 8.49034 19.5795 8.73534 19.1494 8.73534C18.9344 8.73534 18.6219 8.49034 18.6219 7.78709V1.21896C18.6219 0.375063 18.3728 0 17.6534 0H12.3224C11.784 0 11.4591 0.390187 11.4591 0.762225C11.4591 1.56075 12.6813 1.74525 12.8066 3.99563V8.8775C12.8066 9.94673 12.6101 10.1418 12.177 10.1418C11.0275 10.1418 8.23049 6.01462 6.57053 1.29004C6.2472 0.372039 5.92078 0.00151296 5.05444 0.00151296H1.66336C0.693378 0.00151296 0.5 0.447656 0.5 0.937658C0.5 1.81785 1.64944 6.17342 5.85426 11.934C8.65747 15.8676 12.6039 18 16.1992 18C18.3542 18 18.6203 17.5266 18.6203 16.71V13.7367C18.6203 12.79 18.8261 12.5994 19.5083 12.5994C20.0095 12.5994 20.8728 12.8474 22.8855 14.7424C25.1844 16.9897 25.5649 17.9985 26.8567 17.9985H30.2478C31.2162 17.9985 31.7004 17.5251 31.422 16.5905C31.1172 15.6604 30.0188 14.3068 28.5615 12.7053C27.7694 11.7918 26.586 10.8088 26.2255 10.3173C25.7227 9.68358 25.8681 9.4038 26.2255 8.8412C26.227 8.84272 30.3592 3.15325 30.7892 1.21896Z" fill="white"/>
</svg>
