<svg width="30" height="32" viewBox="0 0 30 32" fill="none" xmlns="http://www.w3.org/2000/svg">
<path d="M15 0.5C6.7125 0.5 0 7.43625 0 16C0 19.41 1.05 22.5487 2.85 25.1062L0.7875 30.725L6.75 28.9425C9.1125 30.57 11.9625 31.5 15 31.5C23.2875 31.5 30 24.5638 30 16C30 7.43625 23.2875 0.5 15 0.5ZM22.9875 22.4325L21.375 24.06C19.6875 25.8038 15.225 23.905 11.2875 19.7975C7.35 15.7287 5.5875 11.1175 7.1625 9.4125L8.775 7.74625C9.375 7.12625 10.3875 7.12625 11.025 7.74625L13.3875 10.1875C14.2125 11.04 13.875 12.5125 12.7875 12.8612C12.0375 13.1325 11.5125 13.985 11.775 14.76C12.1875 16.5812 14.475 18.8287 16.1625 19.255C16.9125 19.4487 17.775 18.9837 18 18.2087C18.3375 17.085 19.7625 16.7362 20.5875 17.5887L22.95 20.03C23.55 20.6888 23.55 21.735 22.9875 22.4325Z" fill="white"/>
</svg>
